<svg xmlns="http://www.w3.org/2000/svg" xml:space="preserve" width="2.33333in" height="2.33333in" version="1.1" style="shape-rendering:geometricPrecision; text-rendering:geometricPrecision; image-rendering:optimizeQuality; fill-rule:evenodd; clip-rule:evenodd" viewBox="0 0 2333.33 2333.33">
 <defs>
  <style type="text/css">
   
    .fil0 {fill:black}
   
  </style>
 </defs>
 <g id="Layer_x0020_1">
  <metadata id="CorelCorpID_0Corel-Layer"></metadata>
  <g id="_2280678774256">
   <g>
    <path class="fil0" d="M930.54 1917.71c-102.46,0 -185.82,-83.35 -185.82,-185.8 0,-14.73 11.93,-26.67 26.67,-26.67 14.74,0 26.67,11.93 26.67,26.67 0,73.04 59.43,132.47 132.49,132.47 76.04,0 202.13,-64.17 202.13,-132.47l0.01 -1153.49c0,-73.04 -59.43,-132.47 -132.49,-132.47 -73.05,0 -132.48,59.43 -132.48,132.47 0,14.74 -11.93,26.67 -26.67,26.67 -14.74,0 -26.67,-11.93 -26.67,-26.67 0,-102.44 83.35,-185.8 185.8,-185.8 102.46,0 185.82,83.35 185.82,185.8l0 1153.51c0,106.01 -154.97,185.79 -255.45,185.79z" id="id_101" style="fill: rgb(122, 38, 193);"></path>
   </g>
   <g>
    <path class="fil0" d="M771.41 1758.57c-0.54,0 -1.08,-0.02 -1.63,-0.04 -104.44,-6.28 -177.48,-41.48 -217.08,-104.67 -52.8,-84.22 -28.69,-192.39 -13.98,-239.66 -59.23,-31.59 -96.54,-74.84 -111.01,-128.8 -24.77,-92.26 26.54,-186.04 46.78,-218.12 -22.67,-76.97 -18.94,-140.36 11.09,-188.58 26.26,-42.15 66.15,-61.39 91.4,-69.76 -1.42,-98.69 24.67,-171.11 77.67,-215.44 79.47,-66.5 187.89,-42.11 192.49,-41.04 12.06,2.82 20.58,13.59 20.58,25.98 0,51.65 13.72,89.37 40.8,112.11 42.41,35.67 106.87,25.63 107.51,25.5 14.52,-2.5 28.32,7.18 30.86,21.7 2.53,14.52 -7.18,28.32 -21.7,30.86 -3.61,0.61 -89.09,14.83 -151,-37.22 -35.04,-29.46 -54.83,-73.04 -58.97,-129.78 -29.22,-2.65 -84.97,-2.03 -126.62,33.05 -43.07,36.25 -62.44,101.29 -57.59,193.33 0.72,13.79 -9.2,25.85 -22.86,27.81 -0.35,0.06 -50.94,8.35 -77.59,51.67 -22.62,36.78 -23.12,89.21 -1.46,155.82 2.63,8.1 1.24,16.97 -3.75,23.87 -0.67,0.93 -69.43,98.08 -46.02,184.68 11.89,44.02 46.65,79.19 103.31,104.53 13.16,5.89 19.26,21.17 13.78,34.5 -0.51,1.25 -51.97,129.65 1.65,214.9 29.96,47.64 88.83,74.4 175,79.57 14.69,0.88 25.9,13.53 25.01,28.22 -0.91,14.13 -12.67,25.03 -26.65,25.03z" id="id_102" style="fill: rgb(122, 38, 193);"></path>
   </g>
   <g>
    <path class="fil0" d="M771.98 1772.68c-13.8,0 -25.48,-10.64 -26.57,-24.63 -7.04,-91.91 13.64,-163.14 61.48,-211.69 68.83,-69.86 167.57,-64.62 171.79,-64.36 14.69,0.9 25.87,13.57 24.97,28.25 -0.91,14.69 -13.54,25.78 -28.19,24.99 -1.51,-0.13 -79.68,-3.47 -130.92,48.9 -36.3,37.08 -51.76,94.24 -45.96,169.85 1.12,14.68 -9.86,27.48 -24.56,28.62 -0.69,0.04 -1.37,0.07 -2.06,0.07z" id="id_103" style="fill: rgb(122, 38, 193);"></path>
   </g>
   <g>
    <path class="fil0" d="M862.76 1264.1c-14.25,0 -26.06,-11.26 -26.62,-25.63 -0.08,-2.03 -6.68,-133.97 -88.53,-180.07 -54.15,-30.51 -131.9,-18.24 -231.07,36.43 -12.9,7.1 -29.11,2.41 -36.22,-10.49 -7.11,-12.9 -2.41,-29.11 10.49,-36.22 116.58,-64.26 211.87,-76.41 283.22,-36.06 107.96,61.03 115.17,217.69 115.42,224.34 0.57,14.72 -10.92,27.1 -25.63,27.67 -0.36,0.02 -0.71,0.02 -1.06,0.02z" id="id_104" style="fill: rgb(122, 38, 193);"></path>
   </g>
   <g>
    <g>
     <g>
      <path class="fil0" d="M1687.1 1188.91l-527.78 0c-14.74,0 -26.67,-11.93 -26.67,-26.67 0,-14.74 11.93,-26.67 26.67,-26.67l527.78 0c14.74,0 26.67,11.93 26.67,26.67 0,14.74 -11.94,26.67 -26.67,26.67z" id="id_105" style="fill: rgb(122, 38, 193);"></path>
     </g>
     <g>
      <path class="fil0" d="M1786.27 1293.29c-69.46,0 -125.96,-56.5 -125.96,-125.95 0,-69.46 56.5,-125.96 125.96,-125.96 69.46,0 125.96,56.5 125.96,125.96 0,69.46 -56.5,125.95 -125.96,125.95zm0 -198.59c-40.06,0 -72.62,32.58 -72.62,72.63 0,40.06 32.58,72.62 72.62,72.62 40.04,0 72.62,-32.58 72.62,-72.62 0.01,-40.03 -32.57,-72.63 -72.62,-72.63z" id="id_106" style="fill: rgb(122, 38, 193);"></path>
     </g>
    </g>
    <g>
     <g>
      <g>
       <path class="fil0" d="M1390.52 1004.93l-231.21 0c-14.74,0 -26.67,-11.93 -26.67,-26.67 0,-14.74 11.93,-26.67 26.67,-26.67l220.17 0 160.86 -160.86c10.41,-10.41 27.29,-10.42 37.7,0 10.41,10.41 10.41,27.29 0,37.7l-168.68 168.66c-5,5.02 -11.77,7.82 -18.84,7.82z" id="id_107" style="fill: rgb(122, 38, 193);"></path>
      </g>
      <g>
       <path class="fil0" d="M1559.19 1551.74c-6.82,0 -13.64,-2.61 -18.84,-7.82l-160.87 -160.84 -220.17 0c-14.74,0 -26.67,-11.93 -26.67,-26.67 0,-14.74 11.93,-26.67 26.67,-26.67l231.21 0c7.07,0 13.85,2.8 18.84,7.82l168.68 168.67c10.41,10.4 10.41,27.29 0,37.7 -5.21,5.19 -12.03,7.81 -18.85,7.81z" id="id_108" style="fill: rgb(122, 38, 193);"></path>
      </g>
     </g>
     <g>
      <path class="fil0" d="M1630.06 1720.57c-69.46,0 -125.95,-56.51 -125.95,-125.97 0,-69.46 56.5,-125.96 125.95,-125.96 69.46,0 125.96,56.5 125.96,125.96 0,69.46 -56.5,125.97 -125.96,125.97zm0 -198.6c-40.06,0 -72.62,32.58 -72.62,72.62 0,40.04 32.58,72.64 72.62,72.64 40.04,0 72.63,-32.59 72.63,-72.64 0,-40.04 -32.57,-72.62 -72.63,-72.62z" id="id_109" style="fill: rgb(122, 38, 193);"></path>
     </g>
     <g>
      <path class="fil0" d="M1628.75 864.69c-69.46,0 -125.97,-56.52 -125.97,-125.97 0,-69.46 56.51,-125.96 125.97,-125.96 69.46,0 125.95,56.5 125.95,125.96 0,69.46 -56.51,125.97 -125.95,125.97zm0 -198.59c-40.06,0 -72.64,32.58 -72.64,72.62 0,40.06 32.6,72.64 72.64,72.64 40.04,0 72.62,-32.58 72.62,-72.64 0,-40.04 -32.59,-72.62 -72.62,-72.62z" id="id_110" style="fill: rgb(122, 38, 193);"></path>
     </g>
    </g>
   </g>
   <g>
    <g>
     <g>
      <path class="fil0" d="M1344.29 1835.39c-9.14,0 -18.03,-4.69 -23,-13.12l-184.94 -313.94c-7.47,-12.69 -3.25,-29.04 9.44,-36.52 12.69,-7.51 29.03,-3.25 36.51,9.44l184.94 313.94c7.47,12.69 3.25,29.04 -9.44,36.51 -4.25,2.5 -8.91,3.68 -13.51,3.68z" id="id_111" style="fill: rgb(122, 38, 193);"></path>
     </g>
     <g>
      <path class="fil0" d="M1395.17 2019.97c-69.46,0 -125.96,-56.5 -125.96,-125.96 0,-69.46 56.5,-125.97 125.96,-125.97 69.46,0 125.96,56.51 125.96,125.97 0,69.46 -56.5,125.96 -125.96,125.96zm0 -198.59c-40.06,0 -72.62,32.6 -72.62,72.64 0,40.04 32.58,72.62 72.62,72.62 40.04,0 72.63,-32.58 72.63,-72.62 0,-40.04 -32.57,-72.64 -72.63,-72.64z" id="id_112" style="fill: rgb(122, 38, 193);"></path>
     </g>
    </g>
    <g>
     <g>
      <path class="fil0" d="M1159.28 903.7c-4.53,0 -9.11,-1.15 -13.31,-3.59 -12.75,-7.36 -17.12,-23.67 -9.76,-36.43l202.58 -350.87c7.35,-12.75 23.64,-17.14 36.43,-9.76 12.75,7.36 17.12,23.67 9.76,36.43l-202.58 350.89c-4.94,8.56 -13.9,13.33 -23.13,13.33z" id="id_113" style="fill: rgb(122, 38, 193);"></path>
     </g>
     <g>
      <path class="fil0" d="M1410.08 565.28c-69.46,0 -125.95,-56.51 -125.95,-125.97 0,-69.46 56.5,-125.95 125.95,-125.95 69.46,0 125.96,56.5 125.96,125.95 0,69.46 -56.5,125.97 -125.96,125.97zm0 -198.59c-40.06,0 -72.62,32.58 -72.62,72.62 0,40.06 32.58,72.64 72.62,72.64 40.04,0 72.63,-32.58 72.63,-72.64 0.01,-40.04 -32.57,-72.62 -72.63,-72.62z" id="id_114" style="fill: rgb(122, 38, 193);"></path>
     </g>
    </g>
   </g>
  </g>
 </g>
</svg>