<svg xmlns="http://www.w3.org/2000/svg" xmlns:xlink="http://www.w3.org/1999/xlink" width="1500" height="1500" viewBox="0 0 1500 1500">
  <defs>
    <clipPath id="clip-undraw_payments_re_77x0">
      <rect width="1500" height="1500" id="id_101"></rect>
    </clipPath>
  </defs>
  <g id="undraw_payments_re_77x0" clip-path="url(#clip-undraw_payments_re_77x0)">
    <rect width="1500" height="1500" fill="#000000" id="id_102"></rect>
    <g id="undraw_payments_re_77x0-2" data-name="undraw_payments_re_77x0">
      <rect id="Rectangle_2153" data-name="Rectangle 2153" width="1500" height="1500" fill="#ffffff" opacity="0"></rect>
      <path id="Path_15092" data-name="Path 15092" d="M800.839,768.2v1.4a48.52,48.52,0,0,1-48.544,48.5H204.377a48.516,48.516,0,0,1-48.528-48.5v-1.4Z" fill="#7a26c1"></path>
      <path id="Path_15093" data-name="Path 15093" d="M270.446,537.341c-39.6,9.773-75.141-20.67-81.347-48.912l2.756-.492C225.229,480.564,262.484,504.4,270.446,537.341Z" fill="#4ae19b"></path>
      <path id="Path_15094" data-name="Path 15094" d="M1227.55,1060.36c-11.45-4.94-14.05-22.94-4.47-30.92s26.84-2.16,29.63,9.99l-10.69-76.367c-2.45-17.557-4.42-37.183,6.2-51.384,9.94-13.3,29.37-17.56,44.96-11.835s27.11,20.005,32,35.871,3.74,33.106-.53,49.149-11.52,31.116-18.86,46.006c-7.51,15.26-16.63,31.8-32.7,37.42C1257.74,1073.66,1227.55,1060.36,1227.55,1060.36Z" fill="#4ae19b"></path>
      <path id="Path_15095" data-name="Path 15095" d="M1277.74,898.4a208.08,208.08,0,0,1,9.89,67.786,213.708,213.708,0,0,1-12.19,67.129,203.521,203.521,0,0,1-16.43,35.25,2.332,2.332,0,0,0-.19,1.72,2.313,2.313,0,0,0,4.18.61,212.16,212.16,0,0,0,24.87-65.14,217.639,217.639,0,0,0,2.79-70.045,209.947,209.947,0,0,0-8.47-38.538c-.91-2.817-5.37-1.612-4.45,1.228Z" fill="#ffffff"></path>
      <path id="Path_15096" data-name="Path 15096" d="M1220.76,1032.25l36.57,38.41c2.05,2.15,5.32-1.12,3.27-3.27l-36.57-38.4c-2.05-2.16-5.32,1.11-3.27,3.26Z" fill="#fff"></path>
      <path id="Path_15097" data-name="Path 15097" d="M1189.7,887.255a5.425,5.425,0,0,1-3.55-1.317,254.012,254.012,0,0,1-59.54-53.881,5.45,5.45,0,0,1-.29-7.6l11.09-12.232,2.28,2.066-11.08,12.232a2.332,2.332,0,0,0-.61,1.7,2.375,2.375,0,0,0,.77,1.635l.16.171a251.015,251.015,0,0,0,58.99,53.378l.2.154a2.341,2.341,0,0,0,1.7.609,2.368,2.368,0,0,0,1.64-.774l21.62-23.868a2.329,2.329,0,0,0,.62-1.622,2.391,2.391,0,0,0-.66-1.6c-5.02-2.729-9.91-5.7-14.54-8.845l1.73-2.547c4.61,3.122,9.47,6.078,14.46,8.786l.3.211a5.336,5.336,0,0,1,1.26,1.705,5.456,5.456,0,0,1,.52,2.06,5.36,5.36,0,0,1-.31,2.1,5.431,5.431,0,0,1-1.09,1.822l-21.63,23.867a5.375,5.375,0,0,1-3.77,1.782C1189.88,887.253,1189.79,887.255,1189.7,887.255Z" fill="#7a26c1"></path>
      <path id="Path_15098" data-name="Path 15098" d="M1165.86,847.076c6.79,6.141,13.77,9.511,15.58,7.51a2.476,2.476,0,0,0,.28-2.354,17.977,17.977,0,0,0-3.47-6.172q-9.045-6.441-17.6-13.9c-1.79-.585-3.16-.569-3.82.169a1.588,1.588,0,0,0-.23.354C1155.46,835.009,1159.42,841.243,1165.86,847.076Z" fill="#7a26c1"></path>
      <path id="Path_15099" data-name="Path 15099" d="M1124.92,797.6a5.326,5.326,0,0,0,1.7,3.678,266.565,266.565,0,0,0,29.98,31.412,238.519,238.519,0,0,0,25.12,19.547c1.46,1,2.94,1.97,4.44,2.924a5.35,5.35,0,0,0,3.54,1.323c.09,0,.18-.015.28-.015a5.424,5.424,0,0,0,3.77-1.785l21.62-23.856a5.457,5.457,0,0,0-.38-7.695l-.3-.216a166.558,166.558,0,0,1-58.81-53.205l-.23-.277a5.456,5.456,0,0,0-7.7.384l-21.63,23.856a5.431,5.431,0,0,0-1.09,1.822,5.375,5.375,0,0,0-.31,2.1Zm3.08-.154a2.536,2.536,0,0,1,.13-.907,2.6,2.6,0,0,1,.47-.786l21.63-23.871a2.241,2.241,0,0,1,.74-.551,2.336,2.336,0,0,1,.9-.219,2.293,2.293,0,0,1,1.57.493,169.717,169.717,0,0,0,59.59,53.929,2.368,2.368,0,0,1,.06,3.216l-21.64,23.871a2.193,2.193,0,0,1-.73.553,2.3,2.3,0,0,1-.9.217,2.4,2.4,0,0,1-1.71-.6l-.2-.154q-4.89-3.14-9.66-6.572-9.045-6.441-17.6-13.9a263.453,263.453,0,0,1-31.72-32.905l-.16-.169a2.413,2.413,0,0,1-.77-1.647Z" fill="#7a26c1"></path>
      <path id="Path_15100" data-name="Path 15100" d="M1181.44,823.811c1.81-2-2.23-8.6-9.03-14.75s-13.77-9.514-15.58-7.517,2.24,8.6,9.03,14.75S1179.63,825.808,1181.44,823.811Z" fill="#7a26c1"></path>
      <path id="Path_15101" data-name="Path 15101" d="M1045.57,1052.71h-18.88l-8.99-72.782h27.87Z" fill="#d6babe"></path>
      <path id="Path_15102" data-name="Path 15102" d="M1050.38,1071H989.5v-.77a23.686,23.686,0,0,1,23.7-23.68h37.18Z" fill="#5a587c"></path>
      <path id="Path_15103" data-name="Path 15103" d="M1101.01,1052.71h-18.88l-8.98-72.782h27.86Z" fill="#d6babe"></path>
      <path id="Path_15104" data-name="Path 15104" d="M1105.83,1071h-60.89v-.77a23.687,23.687,0,0,1,23.7-23.68h37.19Z" fill="#5e5366"></path>
      <path id="Path_15105" data-name="Path 15105" d="M1113.68,758.58l-4.51,267.33a6.137,6.137,0,0,1-6.71,6.02l-22.1-2a6.149,6.149,0,0,1-5.58-5.66l-12.94-166.749a1.537,1.537,0,0,0-2.61-.979,1.518,1.518,0,0,0-.46,1.04l-6.47,170.568a6.15,6.15,0,0,1-6.15,5.92h-23.7a6.158,6.158,0,0,1-6.15-5.78L999.714,757.041l98.566-24.625Z" fill="#5a587c"></path>
      <path id="Path_15106" data-name="Path 15106" d="M1042.19,507.563a37.8,37.8,0,1,0-37.83-37.8A37.809,37.809,0,0,0,1042.19,507.563Z" fill="#d6babe"></path>
      <path id="Path_15107" data-name="Path 15107" d="M996.339,766.533a6.875,6.875,0,0,1-2.1-4.872L991.686,579.37a43.867,43.867,0,0,1,29.694-42.234c3.55-16.067,22.41-18.079,33.4-17.839a17.088,17.088,0,0,1,13.83,7.577l7.88,11.815,17.37,10.177a43.906,43.906,0,0,1,20.75,47.428l-2.68,12.158a279.3,279.3,0,0,0,2.62,130.3l5.38,20.507a6.925,6.925,0,0,1-7.23,8.661l-6.26-.48a6.919,6.919,0,0,1-6.36-6.215l-1.03-10.338a.782.782,0,0,0-.25-.494.8.8,0,0,0-.52-.2.771.771,0,0,0-.77.693l-1,10.008a6.914,6.914,0,0,1-6.79,6.236l-88.45,1.361h-.11A6.886,6.886,0,0,1,996.339,766.533Z" fill="#7a26c1"></path>
      <path id="Path_15108" data-name="Path 15108" d="M1045.15,491.552c.15,5.344,3.86,8.435,8.42,11.234s9.89,4.012,15.11,5.183a4.62,4.62,0,0,0,4.53-.111,4.667,4.667,0,0,0,1.64-1.669,4.594,4.594,0,0,0,.61-2.259l4.79-18.2a115.583,115.583,0,0,0,3.68-17.756c1.16-11.557-1.58-23.99-9.66-32.346s-22.07-11.324-31.74-4.886c-11.48-14.652-63.949,17.719-51.006,27.908,2.3,1.812,5.823-.481,8.746-.7s6.2.292,8.05,2.559c2.43,2.961,1.37,7.372,2.37,11.067a10.347,10.347,0,0,0,13.07,6.692,35.517,35.517,0,0,0,6.77-4.353c2.25-1.492,5.08-2.6,7.6-1.654,3.33,1.241,4.51,5.311,4.81,8.846A82.662,82.662,0,0,0,1045.15,491.552Z" fill="#a66557"></path>
      <path id="Path_15109" data-name="Path 15109" d="M1036.31,592.863l-6.16,75.415L997.811,746.77l47.739-76.953Z" opacity="0.2" style="fill: rgb(190, 161, 212);"></path>
      <path id="Path_15110" data-name="Path 15110" d="M990.248,776a15.469,15.469,0,0,0,.489-23.726l20.6-51-28.031,5.658L968.04,754.494A15.567,15.567,0,0,0,990.248,776Z" fill="#d6babe"></path>
      <path id="Path_15111" data-name="Path 15111" d="M988.748,753.509l-15.868-5.716a6.962,6.962,0,0,1-4.336-8.341l26.178-95.76,3.991-86.546a19.742,19.742,0,1,1,39.407,2.388l-7.13,94.766-33.352,94.988a6.915,6.915,0,0,1-8.89,4.221Z" fill="#7a26c1"></path>
      <path id="Path_15112" data-name="Path 15112" d="M1152.28,781a15.478,15.478,0,0,0-2.94-18.631,15.52,15.52,0,0,0-5.75-3.452l-.65-54.994-23.69,16.014,4.25,49.769a15.568,15.568,0,0,0,28.78,11.3Z" fill="#d6babe"></path>
      <path id="Path_15113" data-name="Path 15113" d="M1142.23,760.825l-16.85.836a6.973,6.973,0,0,1-7.22-6.028l-12.76-98.447-29.68-81.4a19.717,19.717,0,0,1,5.36-21.441,19.739,19.739,0,0,1,31.92,8.471l29.96,90.194,5.84,100.5a6.909,6.909,0,0,1-6.57,7.317Z" fill="#7a26c1"></path>
      <path id="Path_15114" data-name="Path 15114" d="M1344.46,1071.78H757.685a1.54,1.54,0,1,1,0-3.08H1344.46a1.54,1.54,0,1,1,0,3.08Z" fill="#4b6b5d"></path>
      <path id="Path_15115" data-name="Path 15115" d="M651.786,739.5c-8.845,0-15.879-2.629-20.909-7.814-11.369-11.72-10.656-34.311-10.084-52.464.166-5.281.323-10.269.165-14.447l0-.063A31,31,0,0,1,651.8,633.871h73.332c8.834,0,15.861,2.625,20.888,7.8,11.368,11.71,10.664,34.3,10.1,52.444-.165,5.292-.321,10.291-.159,14.477A31.019,31.019,0,0,1,725.1,739.5Zm-27.749-74.81c.16,4.278,0,9.306-.166,14.629-.554,17.572-1.243,39.44,9.217,50.224,4.49,4.629,10.607,6.879,18.7,6.879H725.1a27.923,27.923,0,0,0,27.783-27.77c-.165-4.229-.007-9.28.16-14.628.547-17.567,1.229-39.43-9.231-50.2-4.486-4.622-10.6-6.869-18.676-6.869H651.8a27.915,27.915,0,0,0-27.767,27.739Z" fill="#7a26c1"></path>
      <path id="Path_15116" data-name="Path 15116" d="M254.245,540.172a68.757,68.757,0,0,1-36.307-10.627c-15.922-9.887-27.945-25.723-31.375-41.325l-.344-1.564,4.3-.769c33.871-7.471,72.182,16.6,80.389,50.537l.36,1.488-1.487.368A64.694,64.694,0,0,1,254.245,540.172Zm-64.3-51.054c3.7,14.312,14.912,28.679,29.62,37.813a64.238,64.238,0,0,0,47.968,8.715c-8.587-31.615-44.544-53.8-76.375-46.746Z" fill="#7a26c1"></path>
      <path id="Path_15117" data-name="Path 15117" d="M211.519,715.077c-10.076,0-18.263-4.506-23.069-12.726a31.936,31.936,0,0,1-.009-31.332c4.882-8.361,13.264-12.9,23.615-12.738h97.709c10.316-.131,18.7,4.384,23.59,12.754a31.935,31.935,0,0,1,0,31.328c-4.884,8.351-13.269,12.811-23.61,12.71H212.031Zm.057-53.721c-8.986,0-16.245,3.971-20.475,11.214a28.771,28.771,0,0,0,.009,28.227c4.3,7.359,11.709,11.342,20.9,11.2h97.757c9.2.146,16.629-3.835,20.928-11.186a28.77,28.77,0,0,0,0-28.223c-4.3-7.369-11.733-11.337-20.907-11.226H212.024c-.15,0-.3,0-.448,0Z" fill="#7a26c1"></path>
      <path id="Path_15118" data-name="Path 15118" d="M676.862,670.471h-30.8a7.7,7.7,0,1,1,0-15.391h30.8a7.7,7.7,0,1,1,0,15.391Z" fill="#7a26c1"></path>
      <path id="Path_15119" data-name="Path 15119" d="M676.862,695.1h-30.8a7.7,7.7,0,1,1,0-15.391h30.8a7.7,7.7,0,1,1,0,15.391Z" fill="#7a26c1"></path>
      <path id="Path_15120" data-name="Path 15120" d="M676.862,719.721h-30.8a7.7,7.7,0,1,1,0-15.391h30.8a7.7,7.7,0,1,1,0,15.391Z" fill="#7a26c1"></path>
      <path id="Path_15121" data-name="Path 15121" d="M730.765,670.471h-30.8a7.7,7.7,0,1,1,0-15.391h30.8a7.7,7.7,0,1,1,0,15.391Z" fill="#7a26c1"></path>
      <path id="Path_15122" data-name="Path 15122" d="M730.765,695.1h-30.8a7.7,7.7,0,1,1,0-15.391h30.8a7.7,7.7,0,1,1,0,15.391Z" fill="#7a26c1"></path>
      <path id="Path_15123" data-name="Path 15123" d="M730.765,719.721h-30.8a7.7,7.7,0,1,1,0-15.391h30.8a7.7,7.7,0,1,1,0,15.391Z" fill="#7a26c1"></path>
      <path id="Path_15124" data-name="Path 15124" d="M800.839,561.1H155.849v3.079h644.99Z" fill="#7a26c1"></path>
      <path id="Path_15125" data-name="Path 15125" d="M750.016,818.99H204.823A50.865,50.865,0,0,1,154,768.2V503.481a50.865,50.865,0,0,1,50.823-50.79H750.016a50.865,50.865,0,0,1,50.823,50.79V768.2a50.865,50.865,0,0,1-50.823,50.789ZM204.823,455.77a47.782,47.782,0,0,0-47.743,47.711V768.2a47.782,47.782,0,0,0,47.743,47.711H750.016A47.782,47.782,0,0,0,797.759,768.2V503.481a47.782,47.782,0,0,0-47.743-47.711Z" fill="#7a26c1"></path>
      <path id="Path_990" data-name="Path 990" d="M516.647,204.321c-10.72-7.567-22.448-15.457-35.565-15.142-31.748.763-48.865,47.3-80.58,45.668-20.226-1.044-33.652-21.59-52.485-29.04-24.518-9.7-55.719,9.27-58.393,35.5l3.149-2.882a760.223,760.223,0,0,0,291.249,13.455Z" transform="translate(-85.498 69.686)" fill="#81738c" opacity="0.266"></path>
      <path id="Path_958" data-name="Path 958" d="M888.616,177.257c-5.76-4.066-12.062-8.306-19.111-8.136-17.06.41-26.258,25.419-43.3,24.54-10.868-.561-18.083-11.6-28.2-15.6-13.175-5.212-29.941,4.981-31.378,19.076l1.692-1.549a408.511,408.511,0,0,0,156.5,7.23Z" transform="translate(-186.355 125.182)" fill="#5a587c" opacity="0.266"></path>
    </g>
  </g>
</svg>