<svg width="1500" height="1500" viewBox="0 0 1500 1500" fill="none" xmlns="http://www.w3.org/2000/svg">
<g clip-path="url(#clip0_21_913)">
<path d="M648.834 835.321C659.306 851.968 674.163 864.471 691.295 871.054C694.96 872.545 698.812 873.376 702.707 873.514C706.505 873.511 710.233 872.361 713.504 870.183C716.589 868.222 719.544 865.813 722.999 864.732C724.775 864.208 726.629 864.113 728.439 864.454C730.249 864.795 731.976 865.563 733.504 866.709C737.379 869.452 740.148 873.602 742.731 877.766C745.599 882.39 748.514 887.243 752.991 890.05C753.533 890.39 753.034 891.32 752.492 890.98C744.702 886.096 741.818 875.738 735.188 869.441C732.094 866.503 728.196 864.598 724.107 865.547C720.532 866.378 717.483 868.859 714.373 870.875C711.21 873.052 707.623 874.323 703.924 874.576C700.035 874.661 696.162 874 692.47 872.62C684.114 869.663 676.223 865.242 669.085 859.521C660.906 853.042 653.771 845.033 647.987 835.84C647.629 835.271 648.479 834.756 648.834 835.321V835.321Z" fill="white" id="id_273"></path>
<path d="M685.668 869.3C684.298 872.392 681.998 874.834 679.18 876.19C676.361 877.546 673.207 877.728 670.28 876.703C669.688 876.493 669.949 875.447 670.542 875.657C673.265 876.617 676.204 876.447 678.826 875.178C681.449 873.909 683.583 871.625 684.843 868.738C685.118 868.111 685.941 868.677 685.668 869.3V869.3Z" fill="white" id="id_274"></path>
<path d="M712.055 871.41C710.125 864.689 706.02 859.035 700.558 855.575C700.017 855.233 700.517 854.304 701.057 854.646C706.735 858.257 710.996 864.151 712.991 871.15C713.18 871.817 712.244 872.073 712.055 871.41Z" fill="white" id="id_275"></path>
<path d="M661.996 852.289C662.747 851.217 663.25 849.952 663.46 848.607C663.671 847.262 663.581 845.879 663.2 844.582C663.003 843.918 663.94 843.663 664.136 844.323C664.551 845.757 664.648 847.285 664.419 848.771C664.189 850.258 663.641 851.659 662.82 852.851C662.752 852.971 662.645 853.057 662.522 853.091C662.399 853.125 662.269 853.105 662.159 853.035C662.05 852.96 661.972 852.839 661.941 852.7C661.911 852.56 661.93 852.412 661.996 852.289V852.289Z" fill="white" id="id_276"></path>
<path d="M711.942 828.203C709.198 829.742 706.059 830.13 703.084 829.299C700.109 828.468 697.494 826.472 695.704 823.666C695.343 823.097 696.111 822.439 696.471 823.009C698.134 825.625 700.571 827.484 703.342 828.251C706.113 829.019 709.037 828.644 711.584 827.194C712.138 826.88 712.493 827.891 711.942 828.203Z" fill="white" id="id_277"></path>
<path d="M731.885 847.803C733.933 841.127 733.674 833.826 731.16 827.355C730.91 826.714 731.805 826.311 732.054 826.951C734.66 833.69 734.915 841.289 732.771 848.231C732.566 848.893 731.682 848.461 731.885 847.803Z" fill="white" id="id_278"></path>
<path d="M702.124 798.548C703.296 798.202 704.373 797.534 705.259 796.602C706.145 795.671 706.812 794.506 707.201 793.213C707.398 792.548 708.282 792.981 708.086 793.641C707.652 795.068 706.914 796.353 705.937 797.385C704.96 798.416 703.774 799.162 702.482 799.557C702.363 799.606 702.232 799.602 702.116 799.545C702 799.489 701.907 799.385 701.856 799.254C701.809 799.121 701.811 798.971 701.861 798.839C701.912 798.707 702.006 798.602 702.124 798.548H702.124Z" fill="white" id="id_279"></path>
<path d="M1345.1 829.343C1336.52 847.315 1323.14 861.783 1306.85 870.691C1303.38 872.679 1299.65 874.036 1295.79 874.714C1292.03 875.237 1288.2 874.612 1284.72 872.905C1281.44 871.386 1278.25 869.405 1274.7 868.811C1272.88 868.537 1271.03 868.7 1269.27 869.289C1267.51 869.878 1265.88 870.88 1264.49 872.229C1260.94 875.489 1258.65 879.991 1256.54 884.481C1254.19 889.467 1251.83 894.688 1247.69 898.094C1247.19 898.507 1247.79 899.36 1248.29 898.948C1255.49 893.022 1257.22 882.342 1263.12 875.174C1265.87 871.829 1269.53 869.398 1273.69 869.774C1277.33 870.102 1280.62 872.142 1283.93 873.712C1287.31 875.434 1291 876.197 1294.7 875.936C1298.57 875.482 1302.34 874.288 1305.86 872.407C1313.83 868.314 1321.18 862.833 1327.64 856.166C1335.05 848.602 1341.26 839.665 1345.99 829.74C1346.29 829.126 1345.39 828.732 1345.1 829.343Z" fill="white" id="id_280"></path>
<path d="M1312.25 868.17C1313.94 871.049 1316.49 873.153 1319.44 874.108C1322.38 875.063 1325.53 874.806 1328.32 873.384C1328.89 873.094 1328.51 872.092 1327.95 872.382C1325.35 873.712 1322.42 873.951 1319.68 873.055C1316.93 872.159 1314.57 870.188 1313 867.498C1312.66 866.913 1311.91 867.589 1312.25 868.17Z" fill="white" id="id_281"></path>
<path d="M1286.29 873.921C1287.47 866.984 1290.93 860.804 1295.97 856.614C1296.47 856.199 1295.87 855.346 1295.38 855.76C1290.13 860.131 1286.55 866.571 1285.33 873.793C1285.22 874.482 1286.17 874.606 1286.29 873.921H1286.29Z" fill="white" id="id_282"></path>
<path d="M1333.88 848.005C1333.02 847.046 1332.38 845.86 1332.03 844.554C1331.67 843.248 1331.61 841.863 1331.85 840.524C1331.97 839.837 1331.01 839.714 1330.89 840.396C1330.64 841.877 1330.71 843.407 1331.1 844.85C1331.49 846.294 1332.18 847.608 1333.13 848.678C1333.21 848.787 1333.32 848.857 1333.45 848.874C1333.57 848.891 1333.7 848.853 1333.8 848.768C1333.9 848.679 1333.97 848.548 1333.98 848.405C1334 848.262 1333.96 848.119 1333.88 848.005H1333.88Z" fill="white" id="id_283"></path>
<path d="M1287.19 777.721C1289.94 797.895 1286.98 818.532 1278.73 836.701C1277.02 840.648 1274.76 844.265 1272.05 847.42C1269.32 850.398 1265.93 852.496 1262.24 853.497C1258.81 854.509 1255.2 855.097 1252.05 857.03C1250.45 858.047 1249.06 859.433 1247.97 861.098C1246.88 862.763 1246.12 864.669 1245.73 866.691C1244.64 871.702 1245.21 876.855 1245.92 881.873C1246.71 887.444 1247.61 893.217 1246.13 898.746C1245.95 899.416 1246.88 899.692 1247.06 899.023C1249.64 889.404 1245.32 879.7 1246.2 869.975C1246.61 865.437 1248.24 861.011 1251.76 858.485C1254.84 856.277 1258.56 855.667 1262.04 854.677C1265.66 853.759 1269.02 851.858 1271.83 849.138C1274.68 846.149 1277.05 842.635 1278.85 838.747C1283.03 830.068 1285.97 820.702 1287.57 810.992C1289.45 799.922 1289.63 788.571 1288.12 777.43C1288.02 776.74 1287.1 777.036 1287.19 777.721Z" fill="white" id="id_284"></path>
<path d="M1281.69 831.026C1284.58 832.173 1287.74 832.123 1290.6 830.886C1293.46 829.649 1295.84 827.305 1297.31 824.273C1297.61 823.658 1296.77 823.111 1296.48 823.727C1295.11 826.553 1292.9 828.736 1290.23 829.882C1287.56 831.028 1284.62 831.061 1281.94 829.975C1281.35 829.74 1281.11 830.793 1281.69 831.026Z" fill="white" id="id_285"></path>
<path d="M1264.04 853.242C1261.28 846.9 1260.74 839.618 1262.53 832.848C1262.7 832.178 1261.77 831.902 1261.59 832.572C1259.74 839.62 1260.32 847.197 1263.2 853.79C1263.48 854.418 1264.31 853.867 1264.04 853.242Z" fill="white" id="id_286"></path>
<path d="M1288.2 800.235C1287 800.054 1285.86 799.54 1284.88 798.739C1283.9 797.937 1283.11 796.874 1282.58 795.644C1282.31 795.012 1281.48 795.564 1281.75 796.191C1282.34 797.547 1283.21 798.721 1284.29 799.609C1285.37 800.497 1286.63 801.073 1287.96 801.286C1288.08 801.318 1288.21 801.296 1288.32 801.224C1288.43 801.152 1288.51 801.036 1288.54 800.899C1288.58 800.76 1288.56 800.612 1288.49 800.487C1288.43 800.363 1288.32 800.272 1288.2 800.235V800.235Z" fill="white" id="id_287"></path>
<path d="M1243.63 543.013H1231.37C1231.13 543.014 1230.9 543.123 1230.73 543.314C1230.56 543.505 1230.47 543.764 1230.47 544.035C1230.46 544.189 1230.5 544.341 1230.56 544.476C1230.64 544.649 1230.75 544.796 1230.89 544.899C1231.04 545.002 1231.2 545.057 1231.37 545.057H1243.63C1243.81 545.058 1243.97 545.004 1244.12 544.901C1244.27 544.798 1244.38 544.651 1244.46 544.476C1244.51 544.339 1244.54 544.187 1244.54 544.035C1244.54 543.901 1244.52 543.768 1244.47 543.644C1244.43 543.52 1244.36 543.407 1244.28 543.312C1244.19 543.217 1244.09 543.142 1243.98 543.09C1243.87 543.039 1243.75 543.013 1243.63 543.013Z" fill="white" id="id_288"></path>
<path d="M1243.63 546.854H1231.37C1231.13 546.854 1230.9 546.962 1230.73 547.154C1230.56 547.346 1230.47 547.606 1230.47 547.877C1230.47 548.148 1230.56 548.408 1230.73 548.6C1230.9 548.791 1231.13 548.899 1231.37 548.899H1243.63C1243.88 548.899 1244.11 548.791 1244.28 548.6C1244.45 548.408 1244.54 548.148 1244.54 547.877C1244.54 547.606 1244.45 547.346 1244.28 547.154C1244.11 546.962 1243.88 546.854 1243.63 546.854Z" fill="white" id="id_289"></path>
<path d="M736.221 540.716C737.77 540.716 739.025 539.3 739.025 537.553C739.025 535.806 737.77 534.39 736.221 534.39C734.671 534.39 733.416 535.806 733.416 537.553C733.416 539.3 734.671 540.716 736.221 540.716Z" fill="white" id="id_290"></path>
<path d="M746.867 540.716C748.416 540.716 749.672 539.3 749.672 537.553C749.672 535.806 748.416 534.39 746.867 534.39C745.318 534.39 744.062 535.806 744.062 537.553C744.062 539.3 745.318 540.716 746.867 540.716Z" fill="white" id="id_291"></path>
<path d="M757.514 540.716C759.064 540.716 760.319 539.3 760.319 537.553C760.319 535.806 759.064 534.39 757.514 534.39C755.965 534.39 754.709 535.806 754.709 537.553C754.709 539.3 755.965 540.716 757.514 540.716Z" fill="white" id="id_292"></path>
<path d="M915.61 676.297C917.159 676.297 918.415 674.881 918.415 673.134C918.415 671.387 917.159 669.971 915.61 669.971C914.061 669.971 912.805 671.387 912.805 673.134C912.805 674.881 914.061 676.297 915.61 676.297Z" fill="white" id="id_293"></path>
<path d="M926.257 676.297C927.806 676.297 929.062 674.881 929.062 673.134C929.062 671.387 927.806 669.971 926.257 669.971C924.707 669.971 923.452 671.387 923.452 673.134C923.452 674.881 924.707 676.297 926.257 676.297Z" fill="white" id="id_294"></path>
<path d="M936.904 676.297C938.453 676.297 939.709 674.881 939.709 673.134C939.709 671.387 938.453 669.971 936.904 669.971C935.355 669.971 934.099 671.387 934.099 673.134C934.099 674.881 935.355 676.297 936.904 676.297Z" fill="white" id="id_295"></path>
<g clip-path="url(#clip1_21_913)">
<path opacity="0.1" d="M90.5601 777.612C111.89 856.414 157.045 924.531 228.407 957.549C376.711 1026.17 711.173 990.779 960.795 950.115C1086.93 929.637 1201.42 873.065 1285.83 789.507L90.5601 777.612Z" fill="#7a26c1" id="id_296"></path>
<path opacity="0.1" d="M1399.55 406.715H1262.59C1259.45 406.715 1256.44 405.637 1254.22 403.718C1252 401.799 1250.75 399.197 1250.75 396.483C1250.75 393.769 1252 391.166 1254.22 389.247C1256.44 387.329 1259.45 386.25 1262.59 386.25H1286.26C1283.12 386.25 1280.11 385.172 1277.89 383.253C1275.67 381.334 1274.42 378.732 1274.42 376.018C1274.42 373.304 1275.67 370.701 1277.89 368.782C1280.11 366.864 1283.12 365.785 1286.26 365.785H1269.36C1266.22 365.785 1263.21 364.707 1260.99 362.788C1258.77 360.869 1257.52 358.267 1257.52 355.553C1257.52 352.839 1258.77 350.236 1260.99 348.317C1263.21 346.399 1266.22 345.32 1269.36 345.32H1340.84C1324.98 338.948 1306.44 334.414 1285.08 332.035C1090.16 310.391 1020.57 324.707 996.021 339.469C965.734 357.629 931.945 370.989 895.834 377.425C775.569 398.867 550.657 424.674 346.804 369.163C245.486 341.55 170.179 388.194 125.049 466.103H1423.32C1421.63 443.461 1416.55 422.561 1407.24 404.252C1405.1 405.843 1402.37 406.718 1399.55 406.715Z" fill="#7a26c1" id="id_297"></path>
<path opacity="0.1" d="M78.9365 613.16C73.6754 658.988 75.4602 705.215 84.2445 750.638L1286.74 788.647C1320.22 755.365 1348.32 718.318 1370.29 678.516L78.9365 613.16ZM554.539 711.237H530.862C534.002 711.237 537.013 712.315 539.233 714.234C541.454 716.153 542.701 718.756 542.701 721.47C542.701 724.183 541.454 726.786 539.233 728.705C537.013 730.624 534.002 731.702 530.862 731.702H393.9C390.76 731.702 387.749 730.624 385.529 728.705C383.309 726.786 382.061 724.183 382.061 721.47C382.061 718.756 383.309 716.153 385.529 714.234C387.749 712.315 390.76 711.237 393.9 711.237H417.577C414.437 711.237 411.426 710.159 409.206 708.24C406.986 706.321 405.738 703.718 405.738 701.005C405.738 698.291 406.986 695.688 409.206 693.769C411.426 691.85 414.437 690.772 417.577 690.772H400.67C397.53 690.772 394.519 689.694 392.299 687.775C390.079 685.856 388.832 683.253 388.832 680.54C388.832 677.826 390.079 675.223 392.299 673.304C394.519 671.385 397.53 670.307 400.67 670.307H537.633C540.772 670.307 543.783 671.385 546.004 673.304C548.224 675.223 549.471 677.826 549.471 680.54C549.471 683.253 548.224 685.856 546.004 687.775C543.783 689.694 540.772 690.772 537.633 690.772H554.539C557.679 690.772 560.69 691.85 562.91 693.769C565.131 695.688 566.378 698.291 566.378 701.005C566.378 703.718 565.131 706.321 562.91 708.24C560.69 710.159 557.679 711.237 554.539 711.237V711.237Z" fill="#7a26c1" id="id_298"></path>
<path opacity="0.1" d="M1423.39 466.804L110.539 494.416C94.578 529.887 84.0481 569.999 79.1333 611.588H1400.38C1409.01 587.164 1415.39 562.189 1419.47 536.897C1423.4 512.449 1424.97 488.819 1423.39 466.804ZM345.662 557.245H321.985C325.124 557.245 328.136 558.323 330.356 560.242C332.576 562.161 333.823 564.763 333.823 567.477C333.823 570.191 332.576 572.794 330.356 574.713C328.136 576.632 325.124 577.71 321.985 577.71H185.022C181.882 577.71 178.871 576.632 176.651 574.713C174.431 572.794 173.184 570.191 173.184 567.477C173.184 564.763 174.431 562.161 176.651 560.242C178.871 558.323 181.882 557.245 185.022 557.245H208.699C205.559 557.245 202.548 556.167 200.328 554.248C198.108 552.329 196.861 549.726 196.861 547.012C196.861 544.298 198.108 541.696 200.328 539.777C202.548 537.858 205.559 536.78 208.699 536.78H191.792C188.652 536.78 185.641 535.702 183.421 533.783C181.201 531.864 179.954 529.261 179.954 526.547C179.954 523.833 181.201 521.231 183.421 519.312C185.641 517.393 188.652 516.315 191.792 516.315H328.755C331.895 516.315 334.906 517.393 337.126 519.312C339.346 521.231 340.593 523.833 340.593 526.547C340.593 529.261 339.346 531.864 337.126 533.783C334.906 535.702 331.895 536.78 328.755 536.78H345.662C348.801 536.78 351.812 537.858 354.033 539.777C356.253 541.696 357.5 544.298 357.5 547.012C357.5 549.726 356.253 552.329 354.033 554.248C351.812 556.167 348.801 557.245 345.662 557.245V557.245Z" fill="#7a26c1" id="id_299"></path>
<g opacity="0.1">
<path opacity="0.1" d="M908.501 982.932C908.501 982.932 943.151 909.122 1007.85 881.743C1035.09 870.423 1057.34 851.772 1071.27 828.59C1077.77 817.528 1083.09 805.975 1087.15 794.074" stroke="#535461" stroke-width="2" stroke-miterlimit="10" id="id_300"></path>
<path opacity="0.1" d="M1127.81 776.604C1121.07 783.932 1086.16 794.658 1086.16 794.658C1086.16 794.658 1090.36 762.798 1097.11 755.523C1100.45 752.305 1105.1 750.314 1110.09 749.954C1115.08 749.595 1120.04 750.894 1123.96 753.588C1127.88 756.282 1130.46 760.166 1131.18 764.449C1131.89 768.732 1130.7 773.091 1127.82 776.635L1127.81 776.604Z" fill="#7a26c1" id="id_301"></path>
<path opacity="0.1" d="M1115.83 834.654C1105.56 837.638 1069.53 830.214 1069.53 830.214C1069.53 830.214 1093.06 805.491 1103.34 802.507C1108.16 801.4 1113.29 801.922 1117.69 803.968C1122.09 806.013 1125.42 809.428 1127.01 813.519C1128.6 817.61 1128.33 822.071 1126.25 825.997C1124.18 829.922 1120.45 833.017 1115.83 834.654V834.654Z" fill="#7a26c1" id="id_302"></path>
<path opacity="0.1" d="M1050.88 903.26C1040.28 901.359 1013.51 879.226 1013.51 879.226C1013.51 879.226 1048.25 868.149 1058.87 870.05C1063.67 871.208 1067.79 873.9 1070.38 877.581C1072.98 881.262 1073.85 885.658 1072.84 889.878C1071.82 894.098 1068.99 897.827 1064.91 900.31C1060.84 902.792 1055.82 903.843 1050.88 903.249V903.26Z" fill="#7a26c1" id="id_303"></path>
<path opacity="0.1" d="M988.219 945.612C977.394 945.283 946.677 927.388 946.677 927.388C946.677 927.388 978.77 911.426 989.595 911.723C992.285 911.65 994.964 912.056 997.465 912.915C999.967 913.773 1002.24 915.067 1004.14 916.715C1006.04 918.363 1007.52 920.331 1008.51 922.496C1009.49 924.661 1009.95 926.978 1009.86 929.303C1009.76 931.628 1009.12 933.911 1007.96 936.012C1006.8 938.112 1005.16 939.985 1003.13 941.514C1001.1 943.043 998.732 944.195 996.167 944.9C993.602 945.605 990.897 945.847 988.219 945.612V945.612Z" fill="#7a26c1" id="id_304"></path>
<path opacity="0.1" d="M1035.99 809.473C1037.38 818.765 1060.84 843.531 1060.84 843.531C1060.84 843.531 1076.28 814.432 1074.9 805.14C1073.94 800.905 1071.16 797.145 1067.11 794.622C1063.06 792.099 1058.05 791.002 1053.1 791.553C1048.15 792.105 1043.63 794.263 1040.45 797.591C1037.27 800.919 1035.68 805.166 1035.99 809.473Z" fill="#7a26c1" id="id_305"></path>
<path opacity="0.1" d="M963.424 859.802C967.958 868.298 998.921 885.874 998.921 885.874C998.921 885.874 1003.59 854.11 999.056 845.614C998.09 843.445 996.62 841.471 994.736 839.813C992.853 838.156 990.596 836.849 988.105 835.975C985.614 835.101 982.942 834.678 980.255 834.732C977.567 834.786 974.921 835.316 972.479 836.289C970.038 837.261 967.854 838.657 966.061 840.388C964.268 842.12 962.905 844.15 962.057 846.355C961.208 848.56 960.891 850.892 961.127 853.206C961.362 855.521 962.144 857.77 963.424 859.813V859.802Z" fill="#7a26c1" id="id_306"></path>
<path opacity="0.1" d="M900.662 917.087C903.464 926.135 930.557 947.97 930.557 947.97C930.557 947.97 941.369 917.352 938.555 908.304C936.947 904.222 933.603 900.822 929.203 898.792C924.802 896.762 919.673 896.254 914.855 897.371C910.037 898.488 905.89 901.146 903.255 904.807C900.619 908.467 899.693 912.857 900.662 917.087Z" fill="#7a26c1" id="id_307"></path>
<path opacity="0.25" d="M1127.81 776.604C1121.07 783.932 1086.16 794.658 1086.16 794.658C1086.16 794.658 1090.36 762.798 1097.11 755.523C1100.45 752.305 1105.1 750.314 1110.09 749.954C1115.08 749.595 1120.04 750.894 1123.96 753.588C1127.88 756.282 1130.46 760.166 1131.18 764.449C1131.89 768.732 1130.7 773.091 1127.82 776.635L1127.81 776.604Z" fill="black" id="id_308"></path>
<path opacity="0.25" d="M1115.83 834.654C1105.56 837.638 1069.53 830.214 1069.53 830.214C1069.53 830.214 1093.06 805.491 1103.34 802.507C1108.16 801.4 1113.29 801.922 1117.69 803.968C1122.09 806.013 1125.42 809.428 1127.01 813.519C1128.6 817.61 1128.33 822.071 1126.25 825.997C1124.18 829.922 1120.45 833.017 1115.83 834.654V834.654Z" fill="black" id="id_309"></path>
<path opacity="0.25" d="M1050.88 903.26C1040.28 901.359 1013.51 879.226 1013.51 879.226C1013.51 879.226 1048.25 868.149 1058.87 870.05C1063.67 871.208 1067.79 873.9 1070.38 877.581C1072.98 881.262 1073.85 885.658 1072.84 889.878C1071.82 894.098 1068.99 897.827 1064.91 900.31C1060.84 902.792 1055.82 903.843 1050.88 903.249V903.26Z" fill="black" id="id_310"></path>
<path opacity="0.25" d="M988.219 945.612C977.394 945.283 946.677 927.388 946.677 927.388C946.677 927.388 978.77 911.426 989.595 911.723C992.285 911.65 994.964 912.056 997.465 912.915C999.967 913.773 1002.24 915.067 1004.14 916.715C1006.04 918.363 1007.52 920.331 1008.51 922.496C1009.49 924.661 1009.95 926.978 1009.86 929.303C1009.76 931.628 1009.12 933.911 1007.96 936.012C1006.8 938.112 1005.16 939.985 1003.13 941.514C1001.1 943.043 998.732 944.195 996.167 944.9C993.602 945.605 990.897 945.847 988.219 945.612V945.612Z" fill="black" id="id_311"></path>
<path opacity="0.25" d="M1035.99 809.473C1037.38 818.765 1060.84 843.531 1060.84 843.531C1060.84 843.531 1076.28 814.432 1074.9 805.14C1073.94 800.905 1071.16 797.145 1067.11 794.622C1063.06 792.099 1058.05 791.002 1053.1 791.553C1048.15 792.105 1043.63 794.263 1040.45 797.591C1037.27 800.919 1035.68 805.166 1035.99 809.473Z" fill="black" id="id_312"></path>
<path opacity="0.25" d="M963.424 859.802C967.958 868.298 998.921 885.874 998.921 885.874C998.921 885.874 1003.59 854.11 999.056 845.614C998.09 843.445 996.62 841.471 994.736 839.813C992.853 838.156 990.596 836.849 988.105 835.975C985.614 835.101 982.942 834.678 980.255 834.732C977.567 834.786 974.921 835.316 972.479 836.289C970.038 837.261 967.854 838.657 966.061 840.388C964.268 842.12 962.905 844.15 962.057 846.355C961.208 848.56 960.891 850.892 961.127 853.206C961.362 855.521 962.144 857.77 963.424 859.813V859.802Z" fill="black" id="id_313"></path>
<path opacity="0.25" d="M900.662 917.087C903.464 926.135 930.557 947.97 930.557 947.97C930.557 947.97 941.369 917.352 938.555 908.304C936.947 904.222 933.603 900.822 929.203 898.792C924.802 896.762 919.673 896.254 914.855 897.371C910.037 898.488 905.89 901.146 903.255 904.807C900.619 908.467 899.693 912.857 900.662 917.087Z" fill="black" id="id_314"></path>
</g>
<g opacity="0.1">
<path opacity="0.1" d="M883.928 875.009C883.928 875.009 888.302 795.443 938.838 751.062C960.152 732.557 973.948 708.578 978.156 682.721C980.051 670.432 980.639 658.018 979.913 645.636" stroke="#535461" stroke-width="2" stroke-miterlimit="10" id="id_315"></path>
<path opacity="0.1" d="M1011.71 617.503C1008.16 626.35 979.336 646.453 979.336 646.453C979.336 646.453 971.104 615.241 974.654 606.394C975.359 604.144 976.591 602.043 978.275 600.222C979.959 598.401 982.058 596.899 984.442 595.81C986.826 594.72 989.444 594.066 992.133 593.888C994.823 593.711 997.525 594.013 1000.07 594.777C1002.62 595.541 1004.96 596.75 1006.94 598.328C1008.93 599.907 1010.52 601.822 1011.61 603.953C1012.7 606.085 1013.27 608.388 1013.29 610.719C1013.31 613.05 1012.77 615.359 1011.71 617.503V617.503Z" fill="#7a26c1" id="id_316"></path>
<path opacity="0.1" d="M1022.62 675.659C1014.02 681.415 977.235 684.75 977.235 684.75C977.235 684.75 989.952 654.674 998.491 648.918C1000.5 647.374 1002.85 646.202 1005.41 645.476C1007.96 644.749 1010.66 644.483 1013.34 644.694C1016.01 644.905 1018.61 645.588 1020.97 646.701C1023.33 647.814 1025.4 649.333 1027.06 651.166C1028.71 652.998 1029.91 655.103 1030.58 657.353C1031.26 659.602 1031.39 661.947 1030.98 664.242C1030.56 666.538 1029.61 668.736 1028.17 670.699C1026.73 672.663 1024.84 674.351 1022.62 675.659V675.659Z" fill="#7a26c1" id="id_317"></path>
<path opacity="0.1" d="M987.666 759.048C976.927 760.291 943.188 747.09 943.188 747.09C943.188 747.09 971.73 726.678 982.506 725.436C985.142 724.978 987.859 724.993 990.488 725.48C993.118 725.967 995.604 726.914 997.793 728.264C999.981 729.614 1001.83 731.338 1003.21 733.329C1004.6 735.32 1005.5 737.536 1005.86 739.839C1006.22 742.143 1006.02 744.486 1005.29 746.722C1004.56 748.958 1003.3 751.041 1001.6 752.842C999.901 754.642 997.792 756.122 995.403 757.189C993.015 758.257 990.398 758.89 987.715 759.048H987.666Z" fill="#7a26c1" id="id_318"></path>
<path opacity="0.1" d="M944.797 816.96C934.452 819.753 898.611 811.65 898.611 811.65C898.611 811.65 922.742 787.361 933.088 784.568C937.943 783.544 943.066 784.157 947.417 786.281C951.768 788.406 955.02 791.883 956.512 796.005C958.003 800.128 957.622 804.587 955.446 808.475C953.27 812.364 949.462 815.39 944.797 816.939V816.96Z" fill="#7a26c1" id="id_319"></path>
<path opacity="0.1" d="M937.634 674.83C942.549 683.199 974.151 699.841 974.151 699.841C974.151 699.841 977.554 667.98 972.689 659.59C970.164 655.862 966.091 653.104 961.299 651.879C956.506 650.653 951.353 651.052 946.888 652.993C942.423 654.934 938.98 658.272 937.261 662.329C935.543 666.385 935.676 670.856 937.634 674.83V674.83Z" fill="#7a26c1" id="id_320"></path>
<path opacity="0.1" d="M888.486 743.118C896.03 749.84 931.982 757.54 931.982 757.54C931.982 757.54 924.204 726.243 916.66 719.52C912.961 716.612 908.119 715.032 903.12 715.101C898.12 715.17 893.339 716.882 889.749 719.891C886.159 722.899 884.03 726.977 883.795 731.294C883.561 735.611 885.238 739.843 888.486 743.129V743.118Z" fill="#7a26c1" id="id_321"></path>
<path opacity="0.1" d="M851.257 815.144C857.4 822.875 891.312 835.715 891.312 835.715C891.312 835.715 889.764 803.727 883.645 795.996C880.55 792.645 876.103 790.43 871.198 789.794C866.292 789.159 861.29 790.149 857.194 792.568C853.098 794.986 850.211 798.654 849.112 802.835C848.013 807.016 848.784 811.401 851.269 815.112L851.257 815.144Z" fill="#7a26c1" id="id_322"></path>
</g>
<path opacity="0.1" d="M444.289 1144.87C492.601 1158.91 551.541 1150.37 606.353 1151.36C613.861 1151.49 621.798 1151.9 627.819 1154.32C633.839 1156.74 636.8 1160.69 640.929 1164.04C656.287 1176.56 687.754 1180.58 715.265 1178.46C742.775 1176.33 768 1169.3 793.901 1163.95C838.773 1154.69 890.071 1150.49 934.329 1160.57C938.396 1161.5 942.671 1162.56 947.021 1162.2C956.728 1161.37 959.615 1154.66 966.397 1150.83C978.684 1143.9 1005.26 1145.78 1010.63 1136.66C1013.79 1131.35 1006.53 1125.83 998.626 1122.17C968.376 1108.2 925.101 1105.89 885.513 1108.05C845.924 1110.2 806.999 1116.15 767.202 1116.17C717.624 1116.17 669.717 1107.05 620.618 1103.31C586.608 1100.72 549.489 1101.04 517.605 1108.62C483.14 1116.93 475.522 1135.45 444.289 1144.87Z" fill="#7a26c1" id="id_323"></path>
<path d="M533.701 517.366H525.1V622.505H533.701V517.366Z" fill="#535461" id="id_324"></path>
<path d="M533.701 658.614H525.1V718.087H533.701V658.614Z" fill="#535461" id="id_325"></path>
<path d="M860.41 414.351H589.115C557.153 414.351 531.243 436.746 531.243 464.371V1090.75C531.243 1118.37 557.153 1140.77 589.115 1140.77H860.41C892.372 1140.77 918.282 1118.37 918.282 1090.75V464.371C918.282 436.746 892.372 414.351 860.41 414.351Z" fill="#535461" id="id_326"></path>
<path d="M860.41 440.062H589.115C557.153 440.062 531.243 462.457 531.243 490.082V1051.67C531.243 1079.3 557.153 1101.7 589.115 1101.7H860.41C892.372 1101.7 918.282 1079.3 918.282 1051.67V490.082C918.282 462.457 892.372 440.062 860.41 440.062Z" fill="#7a26c1" id="id_327"></path>
<path d="M753.023 430.281H697.731C695.356 430.281 693.431 431.945 693.431 433.998C693.431 436.051 695.356 437.715 697.731 437.715H753.023C755.398 437.715 757.323 436.051 757.323 433.998C757.323 431.945 755.398 430.281 753.023 430.281Z" fill="#EAEAF3" id="id_328"></path>
<path d="M779.44 439.839C782.833 439.839 785.583 437.461 785.583 434.529C785.583 431.596 782.833 429.219 779.44 429.219C776.047 429.219 773.296 431.596 773.296 434.529C773.296 437.461 776.047 439.839 779.44 439.839Z" fill="#EAEAF3" id="id_329"></path>
<path d="M624.378 741.663V819.19C624.409 821.621 623.881 824.033 622.824 826.285C621.767 828.538 620.202 830.587 618.221 832.312C616.239 834.038 613.881 835.405 611.283 836.336C608.684 837.266 605.898 837.741 603.085 837.733C591.241 837.733 579.74 829.438 579.74 819.19V741.663C579.74 731.553 591.204 723.258 603.085 723.258C608.726 723.278 614.128 725.223 618.117 728.671C622.105 732.118 624.356 736.788 624.378 741.663V741.663ZM632.746 846.739C632.739 849.341 633.328 851.919 634.477 854.325C635.626 856.73 637.314 858.916 639.443 860.756C641.572 862.597 644.101 864.055 646.884 865.049C649.667 866.042 652.65 866.551 655.661 866.545H671.069L671.302 907.443C671.302 932.135 714.048 931.944 714.048 907.443V866.556H742.849V907.454C742.849 932.018 785.853 932.082 785.853 907.454V866.556H801.495C804.494 866.547 807.463 866.028 810.23 865.028C812.998 864.029 815.51 862.567 817.624 860.728C819.739 858.889 821.413 856.708 822.552 854.309C823.691 851.911 824.272 849.342 824.262 846.749V726.635H632.746V846.739ZM824.778 720.178H631.873C631.873 691.504 651.692 666.632 681.12 653.654L666.375 630.024C664.213 626.743 669.705 624.714 671.56 627.486L686.587 651.318C699.809 646.318 714.085 643.737 728.516 643.737C742.948 643.737 757.224 646.318 770.446 651.318L785.386 627.56C787.328 624.682 792.759 626.828 790.572 630.099L775.827 653.654C804.96 666.632 824.778 691.536 824.778 720.178ZM692.596 683.008C692.596 681.143 691.739 679.355 690.213 678.037C688.688 676.718 686.619 675.977 684.462 675.977C682.361 676.048 680.373 676.819 678.915 678.129C677.458 679.439 676.644 681.185 676.644 683.003C676.644 684.82 677.458 686.567 678.915 687.876C680.373 689.186 682.361 689.957 684.462 690.028C686.612 690.028 688.676 689.292 690.2 687.98C691.724 686.668 692.586 684.888 692.596 683.029V683.008ZM780.41 683.008C780.386 681.639 779.893 680.307 778.993 679.181C778.093 678.054 776.827 677.183 775.354 676.679C773.882 676.174 772.27 676.057 770.721 676.344C769.173 676.631 767.757 677.308 766.654 678.29C765.55 679.272 764.808 680.515 764.521 681.862C764.235 683.208 764.416 684.597 765.043 685.855C765.67 687.112 766.713 688.18 768.042 688.925C769.372 689.67 770.926 690.057 772.51 690.039C774.626 689.997 776.639 689.239 778.116 687.929C779.594 686.618 780.417 684.859 780.41 683.029V683.008ZM853.812 723.237C851.014 723.23 848.241 723.701 845.654 724.624C843.067 725.546 840.717 726.902 838.738 728.612C836.759 730.322 835.191 732.354 834.123 734.59C833.056 736.826 832.511 739.223 832.519 741.642V819.169C832.508 821.595 833.05 823.999 834.114 826.244C835.178 828.489 836.743 830.531 838.721 832.253C840.698 833.975 843.049 835.344 845.638 836.28C848.228 837.217 851.005 837.703 853.812 837.711C865.743 837.711 877.158 829.417 877.158 819.169V741.642C877.121 731.361 865.657 723.258 853.812 723.258V723.237Z" fill="white" id="id_330"></path>
<path d="M713.704 925.773H633.839V928.959H713.704V925.773Z" fill="#535461" id="id_331"></path>
<path d="M796.027 925.773H743.193V928.959H796.027V925.773Z" fill="#535461" id="id_332"></path>
<path d="M616.638 925.773H563.804V928.959H616.638V925.773Z" fill="#535461" id="id_333"></path>
<path d="M879.578 925.773H826.744V928.959H879.578V925.773Z" fill="#535461" id="id_334"></path>
<g clip-path="url(#clip2_21_913)">
<path d="M1392.33 815.737H1022.76C1022.75 815.09 1022.49 814.473 1022.05 814.019C1021.6 813.565 1021.01 813.311 1020.39 813.311H1005.83C1005.21 813.311 1004.61 813.565 1004.17 814.019C1003.73 814.473 1003.47 815.09 1003.46 815.737H999.896C999.886 815.09 999.631 814.473 999.188 814.019C998.745 813.565 998.148 813.311 997.527 813.311H982.971C982.349 813.311 981.752 813.565 981.309 814.019C980.866 814.473 980.612 815.09 980.601 815.737H967.631C960.105 815.746 952.888 818.862 947.566 824.402C942.244 829.941 939.25 837.452 939.241 845.287V845.578C939.197 845.575 939.154 845.564 939.109 845.564H938.776C938.464 845.564 938.156 845.628 937.868 845.752C937.58 845.876 937.318 846.058 937.098 846.287C936.877 846.517 936.702 846.789 936.583 847.089C936.464 847.389 936.402 847.71 936.402 848.034V876.933C936.402 877.257 936.464 877.578 936.583 877.878C936.702 878.178 936.877 878.45 937.098 878.68C937.318 878.909 937.58 879.091 937.868 879.215C938.156 879.339 938.464 879.403 938.776 879.403H939.109C939.154 879.403 939.197 879.392 939.241 879.389V1150.4C939.25 1158.23 942.244 1165.74 947.566 1171.28C952.888 1176.82 960.105 1179.94 967.631 1179.94H1392.33C1399.86 1179.94 1407.07 1176.82 1412.4 1171.28C1417.72 1165.74 1420.71 1158.23 1420.72 1150.4V845.287C1420.71 837.452 1417.72 829.942 1412.4 824.402C1407.07 818.862 1399.86 815.746 1392.33 815.737ZM1412.18 1150.4C1412.17 1155.87 1410.08 1161.12 1406.36 1164.99C1402.64 1168.87 1397.59 1171.04 1392.33 1171.05H967.631C962.37 1171.04 957.326 1168.87 953.606 1164.99C949.885 1161.12 947.792 1155.87 947.786 1150.4V845.287C947.792 839.81 949.885 834.56 953.606 830.688C957.326 826.816 962.37 824.637 967.631 824.631H1392.33C1397.59 824.638 1402.64 826.816 1406.36 830.688C1410.08 834.56 1412.17 839.81 1412.18 845.287V1150.4Z" fill="#CCCCCC" id="id_335"></path>
<path d="M1392.33 1175.99H967.631C961.111 1175.98 954.861 1173.29 950.25 1168.49C945.64 1163.69 943.047 1157.18 943.039 1150.4V845.287C943.047 838.501 945.64 831.995 950.25 827.196C954.861 822.397 961.111 819.698 967.631 819.69H1392.33C1398.85 819.698 1405.1 822.397 1409.71 827.196C1414.32 831.995 1416.92 838.501 1416.92 845.287V1150.4C1416.92 1157.18 1414.32 1163.69 1409.71 1168.49C1405.1 1173.29 1398.85 1175.98 1392.33 1175.99V1175.99Z" fill="#E6E6E6" id="id_336"></path>
<path d="M1392.46 1155.37H967.501C966.066 1155.37 964.691 1154.78 963.676 1153.72C962.661 1152.66 962.09 1151.23 962.089 1149.74V845.944C962.09 844.451 962.661 843.019 963.676 841.962C964.691 840.906 966.066 840.312 967.501 840.311H1392.46C1393.9 840.312 1395.27 840.906 1396.29 841.962C1397.3 843.019 1397.87 844.45 1397.87 845.944V1149.74C1397.87 1151.23 1397.3 1152.66 1396.29 1153.72C1395.27 1154.78 1393.9 1155.37 1392.46 1155.37V1155.37Z" fill="white" id="id_337"></path>
<path d="M952.658 999.427C953.78 999.427 954.69 998.48 954.69 997.312C954.69 996.144 953.78 995.197 952.658 995.197C951.536 995.197 950.626 996.144 950.626 997.312C950.626 998.48 951.536 999.427 952.658 999.427Z" fill="white" id="id_338"></path>
<path d="M1121.85 880.51H1031.58C1024.5 880.518 1017.71 883.45 1012.7 888.662C1007.69 893.874 1004.87 900.941 1004.87 908.312V916.806C1004.68 916.752 1004.49 916.745 1004.3 916.784C1004.11 916.822 1003.93 916.906 1003.78 917.028C1003.63 917.15 1003.5 917.308 1003.42 917.488C1003.34 917.668 1003.29 917.866 1003.3 918.066V924.597C1003.29 924.797 1003.34 924.995 1003.42 925.175C1003.5 925.355 1003.63 925.512 1003.78 925.635C1003.93 925.757 1004.11 925.841 1004.3 925.879C1004.49 925.918 1004.68 925.91 1004.87 925.857V935.747C1004.68 935.694 1004.49 935.686 1004.3 935.725C1004.11 935.763 1003.93 935.847 1003.78 935.969C1003.63 936.092 1003.5 936.249 1003.42 936.429C1003.34 936.609 1003.29 936.807 1003.3 937.007V953.335C1003.29 953.536 1003.34 953.733 1003.42 953.913C1003.5 954.094 1003.63 954.251 1003.78 954.373C1003.93 954.495 1004.11 954.579 1004.3 954.618C1004.49 954.656 1004.68 954.649 1004.87 954.596V960.566C1004.68 960.513 1004.49 960.506 1004.3 960.544C1004.11 960.583 1003.93 960.667 1003.78 960.789C1003.63 960.911 1003.5 961.068 1003.42 961.248C1003.34 961.429 1003.29 961.626 1003.3 961.826V978.155C1003.29 978.355 1003.34 978.553 1003.42 978.733C1003.5 978.913 1003.63 979.07 1003.78 979.193C1003.93 979.315 1004.11 979.399 1004.3 979.437C1004.49 979.476 1004.68 979.468 1004.87 979.415V1151.85C1004.87 1159.22 1007.69 1166.29 1012.7 1171.5C1017.71 1176.71 1024.5 1179.64 1031.58 1179.65H1121.85C1128.94 1179.64 1135.73 1176.71 1140.73 1171.5C1145.74 1166.29 1148.56 1159.22 1148.56 1151.85V908.312C1148.56 900.941 1145.74 893.874 1140.73 888.662C1135.73 883.45 1128.94 880.518 1121.85 880.51V880.51ZM1142.92 1151.85C1142.91 1157.66 1140.69 1163.23 1136.74 1167.34C1132.79 1171.45 1127.44 1173.77 1121.85 1173.77H1031.58C1025.99 1173.77 1020.64 1171.45 1016.69 1167.34C1012.74 1163.23 1010.52 1157.66 1010.51 1151.85V908.312C1010.52 902.5 1012.74 896.927 1016.69 892.817C1020.64 888.707 1025.99 886.395 1031.58 886.388H1121.85C1127.44 886.395 1132.79 888.707 1136.74 892.817C1140.69 896.927 1142.91 902.5 1142.92 908.312V1151.85Z" fill="#CCCCCC" id="id_339"></path>
<path d="M1121.85 1177.04H1031.58C1025.16 1177.03 1019.01 1174.37 1014.47 1169.65C1009.94 1164.93 1007.38 1158.53 1007.38 1151.85V908.312C1007.38 901.633 1009.94 895.231 1014.47 890.508C1019.01 885.786 1025.16 883.13 1031.58 883.122H1121.85C1128.27 883.13 1134.42 885.786 1138.96 890.508C1143.5 895.231 1146.05 901.633 1146.06 908.312V1151.85C1146.05 1158.53 1143.5 1164.93 1138.96 1169.65C1134.42 1174.37 1128.27 1177.03 1121.85 1177.04V1177.04Z" fill="#E6E6E6" id="id_340"></path>
<path d="M1124.08 1173.12H1029.35C1025.02 1173.11 1020.87 1171.32 1017.81 1168.14C1014.75 1164.95 1013.03 1160.63 1013.02 1156.13V904.03C1013.03 899.526 1014.75 895.208 1017.81 892.023C1020.87 888.838 1025.02 887.046 1029.35 887.041H1041.7C1042.42 887.042 1043.1 887.338 1043.61 887.864C1044.11 888.391 1044.4 889.105 1044.4 889.849C1044.4 892.048 1045.24 894.157 1046.74 895.712C1048.23 897.267 1050.26 898.142 1052.37 898.145H1099.81C1101.92 898.142 1103.95 897.267 1105.44 895.712C1106.93 894.157 1107.77 892.048 1107.78 889.849C1107.78 889.105 1108.06 888.391 1108.57 887.864C1109.07 887.338 1109.76 887.042 1110.47 887.041H1124.08C1128.41 887.046 1132.56 888.838 1135.62 892.023C1138.68 895.208 1140.4 899.526 1140.41 904.03V1156.13C1140.4 1160.63 1138.68 1164.95 1135.62 1168.14C1132.56 1171.32 1128.41 1173.11 1124.08 1173.12V1173.12Z" fill="white" id="id_341"></path>
<path d="M1080.79 892.756H1069.5C1069.17 892.756 1068.85 892.619 1068.61 892.374C1068.38 892.129 1068.24 891.796 1068.24 891.45C1068.24 891.103 1068.38 890.771 1068.61 890.526C1068.85 890.281 1069.17 890.144 1069.5 890.144H1080.79C1081.13 890.144 1081.45 890.282 1081.68 890.527C1081.91 890.772 1082.05 891.104 1082.05 891.45C1082.05 891.796 1081.91 892.128 1081.68 892.372C1081.45 892.617 1081.13 892.755 1080.79 892.756V892.756Z" fill="white" id="id_342"></path>
<path d="M1088.64 892.429C1088.98 892.429 1089.27 892.137 1089.27 891.776C1089.27 891.415 1088.98 891.123 1088.64 891.123C1088.29 891.123 1088.01 891.415 1088.01 891.776C1088.01 892.137 1088.29 892.429 1088.64 892.429Z" fill="white" id="id_343"></path>
<path d="M1089.27 954.145L1089.41 957.183C1104.33 956.487 1121.61 957.841 1140.01 961.036V957.955C1121.58 954.784 1104.26 953.446 1089.27 954.145Z" fill="#CCCCCC" id="id_344"></path>
<path d="M1070.72 1013.66C1070.6 1014.82 1070.51 1015.99 1070.43 1017.17C1070.28 1019.49 1070.2 1021.82 1070.2 1024.17C1070.21 1046.06 1077.01 1067.37 1089.59 1084.91C1102.17 1102.46 1119.85 1115.31 1140.01 1121.56V926.763C1121.5 932.491 1105.03 943.804 1092.7 959.272C1080.36 974.74 1072.71 993.668 1070.72 1013.66V1013.66Z" fill="#7a26c1" id="id_345"></path>
<path d="M1022.01 954.772C1023.07 954.772 1023.93 953.875 1023.93 952.769C1023.93 951.663 1023.07 950.767 1022.01 950.767C1020.94 950.767 1020.08 951.663 1020.08 952.769C1020.08 953.875 1020.94 954.772 1022.01 954.772Z" fill="#CCCCCC" id="id_346"></path>
<path d="M1017.91 1035.11C1020.01 1035.11 1021.71 1033.34 1021.71 1031.16C1021.71 1028.97 1020.01 1027.2 1017.91 1027.2C1015.81 1027.2 1014.1 1028.97 1014.1 1031.16C1014.1 1033.34 1015.81 1035.11 1017.91 1035.11Z" fill="#CCCCCC" id="id_347"></path>
<path d="M1089.49 930.404C1091.01 930.404 1092.24 929.121 1092.24 927.538C1092.24 925.956 1091.01 924.673 1089.49 924.673C1087.97 924.673 1086.73 925.956 1086.73 927.538C1086.73 929.121 1087.97 930.404 1089.49 930.404Z" fill="#CCCCCC" id="id_348"></path>
<path d="M1026.85 1089.32C1028.07 1089.32 1029.05 1088.3 1029.05 1087.04C1029.05 1085.77 1028.07 1084.75 1026.85 1084.75C1025.64 1084.75 1024.66 1085.77 1024.66 1087.04C1024.66 1088.3 1025.64 1089.32 1026.85 1089.32Z" fill="#CCCCCC" id="id_349"></path>
<path d="M1071.22 1121.33C1072.53 1121.33 1073.6 1120.22 1073.6 1118.86C1073.6 1117.49 1072.53 1116.38 1071.22 1116.38C1069.91 1116.38 1068.84 1117.49 1068.84 1118.86C1068.84 1120.22 1069.91 1121.33 1071.22 1121.33Z" fill="#CCCCCC" id="id_350"></path>
<path d="M1140.37 869.571H1135.67V864.686H1133.15V869.571H1128.46V872.194H1133.15V877.08H1135.67V872.194H1140.37V869.571Z" fill="#CCCCCC" id="id_351"></path>
<path opacity="0.1" d="M1106.26 1015.63C1110.79 1015.63 1114.47 1011.81 1114.47 1007.1C1114.47 1002.38 1110.79 998.56 1106.26 998.56C1101.73 998.56 1098.06 1002.38 1098.06 1007.1C1098.06 1011.81 1101.73 1015.63 1106.26 1015.63Z" fill="black" id="id_352"></path>
<path opacity="0.1" d="M1110.37 1075.78C1114.9 1075.78 1118.57 1071.96 1118.57 1067.25C1118.57 1062.53 1114.9 1058.71 1110.37 1058.71C1105.84 1058.71 1102.16 1062.53 1102.16 1067.25C1102.16 1071.96 1105.84 1075.78 1110.37 1075.78Z" fill="black" id="id_353"></path>
<path d="M1074.18 1013.72C1064.12 1006.69 1056.62 999.748 1051.9 993.096C1047.19 986.459 1045.51 980.464 1046.91 975.276C1048.31 970.088 1052.73 965.874 1060.07 962.752C1067.42 959.622 1077.29 957.748 1089.41 957.183L1089.27 954.145C1063.34 955.354 1047.3 962.567 1044.09 974.455C1040.89 986.343 1051 1001.18 1072.55 1016.25C1090.13 1028.53 1113.67 1039.88 1140.01 1048.86V1045.66C1114.29 1036.81 1091.34 1025.72 1074.18 1013.72Z" fill="#CCCCCC" id="id_354"></path>
<path opacity="0.1" d="M1074.18 1016.16C1072.99 1015.32 1071.84 1014.49 1070.72 1013.66C1070.6 1014.83 1070.51 1016 1070.43 1017.17C1071.13 1017.68 1071.83 1018.18 1072.55 1018.68C1090.13 1030.97 1113.67 1042.31 1140.01 1051.29V1048.09C1114.29 1039.25 1091.34 1028.15 1074.18 1016.16Z" fill="black" id="id_355"></path>
<path d="M1183.02 967.164C1171.53 963.811 1160.14 961.08 1149.08 958.978V962.069C1159.88 964.141 1171.01 966.817 1182.23 970.093C1217.98 980.522 1250.33 995.721 1270.99 1011.79L1272.74 1009.36C1251.8 993.069 1219.11 977.691 1183.02 967.164Z" fill="#CCCCCC" id="id_356"></path>
<path d="M1268.84 1024.17C1268.83 1008.87 1265.51 993.772 1259.11 979.996C1252.71 966.221 1243.41 954.127 1231.9 944.613C1220.39 935.1 1206.96 928.414 1192.62 925.054C1178.28 921.693 1163.4 921.745 1149.08 925.205V1123.13C1170.61 1128.35 1193.2 1125.81 1213.16 1115.93C1233.12 1106.04 1249.27 1089.41 1258.97 1068.74C1259.48 1067.67 1259.96 1066.59 1260.42 1065.5C1265.99 1052.49 1268.86 1038.41 1268.84 1024.17L1268.84 1024.17Z" fill="#7a26c1" id="id_357"></path>
<path d="M1173.82 904.255C1174.44 904.255 1174.94 903.734 1174.94 903.091C1174.94 902.448 1174.44 901.927 1173.82 901.927C1173.2 901.927 1172.7 902.448 1172.7 903.091C1172.7 903.734 1173.2 904.255 1173.82 904.255Z" fill="#F2F2F2" id="id_358"></path>
<path d="M1249.5 912.713C1250.9 912.713 1252.03 911.533 1252.03 910.076C1252.03 908.62 1250.9 907.439 1249.5 907.439C1248.1 907.439 1246.97 908.62 1246.97 910.076C1246.97 911.533 1248.1 912.713 1249.5 912.713Z" fill="#CCCCCC" id="id_359"></path>
<path d="M1339.35 1023.8C1341.62 1023.8 1343.46 1021.88 1343.46 1019.51C1343.46 1017.15 1341.62 1015.23 1339.35 1015.23C1337.08 1015.23 1335.24 1017.15 1335.24 1019.51C1335.24 1021.88 1337.08 1023.8 1339.35 1023.8Z" fill="#CCCCCC" id="id_360"></path>
<path d="M1307.19 952.973C1308.16 952.973 1308.95 952.151 1308.95 951.137C1308.95 950.122 1308.16 949.3 1307.19 949.3C1306.21 949.3 1305.42 950.122 1305.42 951.137C1305.42 952.151 1306.21 952.973 1307.19 952.973Z" fill="#CCCCCC" id="id_361"></path>
<path d="M1301.01 1012.67C1301.99 1012.67 1302.78 1011.85 1302.78 1010.83C1302.78 1009.82 1301.99 1009 1301.01 1009C1300.04 1009 1299.25 1009.82 1299.25 1010.83C1299.25 1011.85 1300.04 1012.67 1301.01 1012.67Z" fill="#CCCCCC" id="id_362"></path>
<path d="M1252.68 1133.94H1249.73V1130.87H1248.15V1133.94H1245.2V1135.58H1248.15V1138.65H1249.73V1135.58H1252.68V1133.94Z" fill="#CCCCCC" id="id_363"></path>
<path d="M1320.71 1118.23H1318.5V1115.94H1317.32V1118.23H1315.12V1119.46H1317.32V1121.76H1318.5V1119.46H1320.71V1118.23Z" fill="#CCCCCC" id="id_364"></path>
<path opacity="0.1" d="M1172.7 953.157C1177.23 953.157 1180.9 949.335 1180.9 944.62C1180.9 939.905 1177.23 936.083 1172.7 936.083C1168.17 936.083 1164.5 939.905 1164.5 944.62C1164.5 949.335 1168.17 953.157 1172.7 953.157Z" fill="black" id="id_365"></path>
<path opacity="0.1" d="M1172.7 1028.83C1177.23 1028.83 1180.9 1025.01 1180.9 1020.29C1180.9 1015.58 1177.23 1011.75 1172.7 1011.75C1168.17 1011.75 1164.5 1015.58 1164.5 1020.29C1164.5 1025.01 1168.17 1028.83 1172.7 1028.83Z" fill="black" id="id_366"></path>
<path opacity="0.1" d="M1216.69 983.037C1221.22 983.037 1224.89 979.215 1224.89 974.5C1224.89 969.785 1221.22 965.963 1216.69 965.963C1212.16 965.963 1208.49 969.785 1208.49 974.5C1208.49 979.215 1212.16 983.037 1216.69 983.037Z" fill="black" id="id_367"></path>
<path opacity="0.1" d="M1243.91 1040.86C1248.44 1040.86 1252.11 1037.04 1252.11 1032.32C1252.11 1027.61 1248.44 1023.78 1243.91 1023.78C1239.38 1023.78 1235.71 1027.61 1235.71 1032.32C1235.71 1037.04 1239.38 1040.86 1243.91 1040.86Z" fill="black" id="id_368"></path>
<path d="M1291.16 1028.45C1287.31 1022.3 1281.11 1015.87 1272.74 1009.36L1270.99 1011.79C1287.26 1024.46 1294.84 1036.56 1292.33 1045.87C1290.93 1051.06 1286.51 1055.28 1279.17 1058.4C1271.81 1061.53 1261.94 1063.4 1249.83 1063.97C1247.26 1064.09 1244.62 1064.15 1241.91 1064.15C1218.22 1064.15 1189.64 1059.58 1160.43 1051.06C1156.6 1049.94 1152.82 1048.77 1149.08 1047.55V1050.74C1152.56 1051.86 1156.08 1052.94 1159.64 1053.99C1189.11 1062.58 1217.96 1067.19 1241.93 1067.19C1244.67 1067.19 1247.35 1067.13 1249.96 1067.01C1275.9 1065.8 1291.94 1058.58 1295.14 1046.7C1296.63 1041.18 1295.29 1035.04 1291.16 1028.45Z" fill="#CCCCCC" id="id_369"></path>
<path opacity="0.1" d="M1276.58 1047.06C1274.01 1047.18 1271.37 1047.24 1268.66 1047.24C1244.96 1047.24 1216.39 1042.68 1187.18 1034.15C1183.35 1033.03 1179.56 1031.87 1175.83 1030.65V1033.83C1179.31 1034.96 1182.83 1036.04 1186.39 1037.08C1215.86 1045.68 1244.7 1050.28 1268.67 1050.28C1271.42 1050.28 1274.1 1050.22 1276.71 1050.1C1279.86 1049.95 1282.87 1049.72 1285.72 1049.4C1286.22 1048.33 1286.71 1047.25 1287.17 1046.16C1283.86 1046.58 1280.33 1046.88 1276.58 1047.06Z" fill="black" id="id_370"></path>
<path d="M1216.66 950.015C1222.57 950.015 1227.35 945.032 1227.35 938.884C1227.35 932.737 1222.57 927.753 1216.66 927.753C1210.75 927.753 1205.97 932.737 1205.97 938.884C1205.97 945.032 1210.75 950.015 1216.66 950.015Z" fill="white" id="id_371"></path>
<path d="M1216.69 922.501C1212.64 922.501 1208.75 924.177 1205.88 927.161C1203.02 930.145 1201.41 934.192 1201.41 938.411C1201.41 947.198 1216.69 976.052 1216.69 976.052C1216.69 976.052 1231.98 947.198 1231.98 938.411C1231.98 934.192 1230.37 930.145 1227.5 927.161C1224.63 924.177 1220.75 922.501 1216.69 922.501ZM1216.69 946.172C1215.29 946.172 1213.92 945.74 1212.76 944.93C1211.59 944.12 1210.68 942.968 1210.15 941.621C1209.61 940.274 1209.47 938.791 1209.74 937.361C1210.02 935.931 1210.69 934.617 1211.68 933.586C1212.67 932.555 1213.94 931.852 1215.31 931.568C1216.68 931.283 1218.11 931.429 1219.4 931.987C1220.7 932.545 1221.8 933.49 1222.58 934.703C1223.36 935.915 1223.78 937.341 1223.78 938.799C1223.78 940.755 1223.03 942.63 1221.7 944.013C1220.37 945.395 1218.57 946.172 1216.69 946.172V946.172Z" fill="#3F3D56" id="id_372"></path>
<path d="M1172.55 990.366C1178.45 990.366 1183.24 985.382 1183.24 979.235C1183.24 973.087 1178.45 968.104 1172.55 968.104C1166.64 968.104 1161.85 973.087 1161.85 979.235C1161.85 985.382 1166.64 990.366 1172.55 990.366Z" fill="white" id="id_373"></path>
<path d="M1172.58 962.852C1168.52 962.852 1164.64 964.528 1161.77 967.512C1158.9 970.495 1157.29 974.542 1157.29 978.762C1157.29 987.549 1172.58 1016.4 1172.58 1016.4C1172.58 1016.4 1187.86 987.549 1187.86 978.762C1187.86 974.542 1186.25 970.495 1183.39 967.512C1180.52 964.528 1176.63 962.852 1172.58 962.852V962.852ZM1172.58 986.523C1171.18 986.523 1169.81 986.09 1168.64 985.28C1167.48 984.47 1166.57 983.319 1166.03 981.971C1165.5 980.624 1165.36 979.142 1165.63 977.711C1165.9 976.281 1166.58 974.967 1167.57 973.936C1168.56 972.905 1169.82 972.203 1171.2 971.918C1172.57 971.634 1173.99 971.78 1175.29 972.338C1176.58 972.896 1177.69 973.841 1178.47 975.054C1179.25 976.266 1179.66 977.692 1179.66 979.15C1179.66 981.105 1178.92 982.981 1177.59 984.363C1176.26 985.746 1174.46 986.523 1172.58 986.523V986.523Z" fill="#3F3D56" id="id_374"></path>
<path d="M1172.55 918.71C1178.45 918.71 1183.24 913.726 1183.24 907.578C1183.24 901.431 1178.45 896.447 1172.55 896.447C1166.64 896.447 1161.85 901.431 1161.85 907.578C1161.85 913.726 1166.64 918.71 1172.55 918.71Z" fill="white" id="id_375"></path>
<path d="M1172.58 891.194C1168.52 891.194 1164.64 892.871 1161.77 895.854C1158.9 898.838 1157.29 902.885 1157.29 907.105C1157.29 915.891 1172.58 944.746 1172.58 944.746C1172.58 944.746 1187.86 915.892 1187.86 907.105C1187.86 902.885 1186.25 898.838 1183.39 895.854C1180.52 892.871 1176.63 891.194 1172.58 891.194ZM1172.58 914.866C1171.18 914.866 1169.81 914.433 1168.64 913.623C1167.48 912.813 1166.57 911.661 1166.03 910.314C1165.5 908.967 1165.36 907.484 1165.63 906.054C1165.9 904.624 1166.58 903.31 1167.57 902.279C1168.56 901.248 1169.82 900.546 1171.2 900.261C1172.57 899.977 1173.99 900.123 1175.29 900.681C1176.58 901.239 1177.69 902.184 1178.47 903.396C1179.25 904.609 1179.66 906.034 1179.66 907.493C1179.66 908.461 1179.48 909.42 1179.12 910.314C1178.77 911.209 1178.24 912.021 1177.59 912.706C1176.93 913.391 1176.15 913.934 1175.29 914.304C1174.43 914.675 1173.51 914.866 1172.58 914.866V914.866Z" fill="#CCCCCC" id="id_376"></path>
<path d="M1244.06 1004.98C1249.97 1004.98 1254.76 999.993 1254.76 993.845C1254.76 987.697 1249.97 982.714 1244.06 982.714C1238.16 982.714 1233.37 987.697 1233.37 993.845C1233.37 999.993 1238.16 1004.98 1244.06 1004.98Z" fill="white" id="id_377"></path>
<path d="M1244.1 977.461C1240.04 977.461 1236.15 979.137 1233.29 982.121C1230.42 985.105 1228.81 989.151 1228.81 993.371C1228.81 1002.16 1244.1 1031.01 1244.1 1031.01C1244.1 1031.01 1259.38 1002.16 1259.38 993.371C1259.38 989.151 1257.77 985.105 1254.9 982.121C1252.04 979.137 1248.15 977.461 1244.1 977.461V977.461ZM1244.1 1001.13C1242.7 1001.13 1241.33 1000.7 1240.16 999.89C1239 999.079 1238.09 997.928 1237.55 996.581C1237.02 995.233 1236.88 993.751 1237.15 992.321C1237.42 990.891 1238.1 989.577 1239.09 988.546C1240.08 987.515 1241.34 986.812 1242.71 986.528C1244.09 986.243 1245.51 986.389 1246.81 986.947C1248.1 987.505 1249.21 988.45 1249.99 989.663C1250.76 990.875 1251.18 992.301 1251.18 993.759C1251.18 995.715 1250.43 997.59 1249.11 998.973C1247.78 1000.36 1245.97 1001.13 1244.1 1001.13V1001.13Z" fill="#CCCCCC" id="id_378"></path>
<path d="M1106.38 979.931C1112.28 979.931 1117.07 974.948 1117.07 968.8C1117.07 962.653 1112.28 957.669 1106.38 957.669C1100.47 957.669 1095.68 962.653 1095.68 968.8C1095.68 974.948 1100.47 979.931 1106.38 979.931Z" fill="white" id="id_379"></path>
<path d="M1106.41 952.416C1102.35 952.416 1098.47 954.092 1095.6 957.076C1092.73 960.06 1091.12 964.107 1091.12 968.326C1091.12 977.113 1106.41 1005.97 1106.41 1005.97C1106.41 1005.97 1121.69 977.113 1121.69 968.326C1121.69 964.107 1120.08 960.06 1117.22 957.076C1114.35 954.092 1110.46 952.416 1106.41 952.416V952.416ZM1106.41 976.087C1105.01 976.087 1103.64 975.655 1102.47 974.845C1101.31 974.035 1100.4 972.883 1099.86 971.536C1099.33 970.189 1099.19 968.706 1099.46 967.276C1099.73 965.846 1100.41 964.532 1101.4 963.501C1102.39 962.47 1103.65 961.767 1105.03 961.483C1106.4 961.198 1107.82 961.344 1109.12 961.902C1110.41 962.461 1111.52 963.406 1112.3 964.618C1113.08 965.831 1113.49 967.256 1113.49 968.714C1113.49 970.67 1112.74 972.545 1111.42 973.928C1110.09 975.31 1108.29 976.087 1106.41 976.087V976.087Z" fill="#CCCCCC" id="id_380"></path>
<path d="M1110.39 1040.46C1116.29 1040.46 1121.08 1035.47 1121.08 1029.33C1121.08 1023.18 1116.29 1018.19 1110.39 1018.19C1104.48 1018.19 1099.69 1023.18 1099.69 1029.33C1099.69 1035.47 1104.48 1040.46 1110.39 1040.46Z" fill="white" id="id_381"></path>
<path d="M1110.42 1012.94C1106.36 1012.94 1102.48 1014.62 1099.61 1017.6C1096.74 1020.59 1095.13 1024.63 1095.13 1028.85C1095.13 1037.64 1110.42 1066.49 1110.42 1066.49C1110.42 1066.49 1125.7 1037.64 1125.7 1028.85C1125.7 1024.63 1124.09 1020.59 1121.23 1017.6C1118.36 1014.62 1114.47 1012.94 1110.42 1012.94ZM1110.42 1036.61C1109.02 1036.61 1107.65 1036.18 1106.48 1035.37C1105.32 1034.56 1104.41 1033.41 1103.87 1032.06C1103.34 1030.71 1103.2 1029.23 1103.47 1027.8C1103.74 1026.37 1104.42 1025.06 1105.41 1024.03C1106.4 1023 1107.66 1022.29 1109.04 1022.01C1110.41 1021.72 1111.83 1021.87 1113.13 1022.43C1114.42 1022.99 1115.53 1023.93 1116.31 1025.14C1117.09 1026.36 1117.5 1027.78 1117.5 1029.24C1117.5 1031.2 1116.76 1033.07 1115.43 1034.45C1114.1 1035.84 1112.3 1036.61 1110.42 1036.61V1036.61Z" fill="#3F3D56" id="id_382"></path>
</g>
</g>
</g>
<defs>
<clipPath id="clip0_21_913">
<rect width="1500" height="1500" fill="white" id="id_383"></rect>
</clipPath>
<clipPath id="clip1_21_913">
<rect width="1348" height="858" fill="white" transform="translate(76 321)" id="id_384"></rect>
</clipPath>
<clipPath id="clip2_21_913">
<rect width="484.318" height="366.634" fill="white" transform="translate(936.402 813.311)" id="id_385"></rect>
</clipPath>
</defs>
</svg>