<svg width="1500" height="1500" viewBox="0 0 1500 1500" fill="none" xmlns="http://www.w3.org/2000/svg">
<g clip-path="url(#clip0_21_2)">
<path d="M648.834 835.321C659.306 851.968 674.163 864.471 691.295 871.054C694.96 872.545 698.812 873.375 702.707 873.514C706.505 873.51 710.233 872.36 713.504 870.183C716.589 868.222 719.544 865.812 722.999 864.731C724.775 864.207 726.629 864.113 728.439 864.454C730.249 864.794 731.976 865.563 733.504 866.709C737.379 869.452 740.148 873.602 742.731 877.766C745.599 882.389 748.514 887.243 752.991 890.05C753.533 890.39 753.034 891.319 752.492 890.979C744.702 886.096 741.818 875.738 735.188 869.441C732.094 866.502 728.196 864.598 724.107 865.547C720.532 866.377 717.483 868.858 714.373 870.875C711.21 873.052 707.623 874.322 703.924 874.575C700.035 874.661 696.162 873.999 692.47 872.619C684.114 869.662 676.223 865.242 669.085 859.52C660.906 853.041 653.771 845.032 647.987 835.84C647.629 835.27 648.479 834.755 648.834 835.321V835.321Z" fill="white" id="id_186"></path>
<path d="M685.668 869.3C684.298 872.392 681.998 874.834 679.18 876.19C676.361 877.546 673.207 877.728 670.28 876.703C669.688 876.493 669.949 875.447 670.542 875.657C673.265 876.617 676.204 876.447 678.826 875.178C681.449 873.909 683.583 871.625 684.843 868.738C685.118 868.111 685.941 868.677 685.668 869.3V869.3Z" fill="white" id="id_187"></path>
<path d="M712.055 871.41C710.125 864.689 706.02 859.035 700.558 855.575C700.017 855.233 700.517 854.304 701.057 854.646C706.735 858.257 710.996 864.151 712.991 871.15C713.18 871.817 712.244 872.073 712.055 871.41Z" fill="white" id="id_188"></path>
<path d="M661.996 852.288C662.747 851.217 663.25 849.952 663.46 848.606C663.671 847.261 663.581 845.878 663.2 844.582C663.003 843.918 663.94 843.662 664.136 844.322C664.551 845.757 664.648 847.284 664.419 848.771C664.189 850.258 663.641 851.658 662.82 852.851C662.752 852.971 662.645 853.056 662.522 853.09C662.399 853.124 662.269 853.104 662.159 853.035C662.05 852.959 661.972 852.839 661.941 852.699C661.911 852.559 661.93 852.412 661.996 852.288V852.288Z" fill="white" id="id_189"></path>
<path d="M711.942 828.203C709.198 829.742 706.059 830.13 703.084 829.299C700.109 828.468 697.494 826.472 695.704 823.666C695.343 823.097 696.111 822.439 696.471 823.009C698.134 825.625 700.571 827.484 703.342 828.251C706.113 829.019 709.037 828.644 711.584 827.194C712.138 826.88 712.493 827.891 711.942 828.203Z" fill="white" id="id_190"></path>
<path d="M731.885 847.803C733.933 841.127 733.674 833.826 731.16 827.355C730.91 826.714 731.805 826.311 732.054 826.951C734.66 833.69 734.915 841.289 732.771 848.231C732.566 848.893 731.682 848.461 731.885 847.803Z" fill="white" id="id_191"></path>
<path d="M702.124 798.549C703.296 798.203 704.373 797.534 705.259 796.603C706.145 795.672 706.812 794.507 707.201 793.213C707.398 792.549 708.282 792.981 708.086 793.641C707.652 795.068 706.914 796.354 705.937 797.385C704.96 798.416 703.774 799.162 702.482 799.558C702.363 799.606 702.232 799.602 702.116 799.546C702 799.49 701.907 799.386 701.856 799.255C701.809 799.121 701.811 798.972 701.861 798.839C701.912 798.707 702.006 798.603 702.124 798.549H702.124Z" fill="white" id="id_192"></path>
<path d="M1345.1 829.342C1336.52 847.315 1323.14 861.782 1306.85 870.69C1303.38 872.678 1299.65 874.036 1295.79 874.713C1292.03 875.236 1288.2 874.612 1284.72 872.904C1281.44 871.385 1278.25 869.404 1274.7 868.81C1272.88 868.536 1271.03 868.699 1269.27 869.289C1267.51 869.878 1265.88 870.88 1264.49 872.229C1260.94 875.488 1258.65 879.99 1256.54 884.481C1254.19 889.467 1251.83 894.688 1247.69 898.094C1247.19 898.506 1247.79 899.359 1248.29 898.947C1255.49 893.021 1257.22 882.342 1263.12 875.173C1265.87 871.828 1269.53 869.398 1273.69 869.773C1277.33 870.101 1280.62 872.141 1283.93 873.711C1287.31 875.433 1291 876.197 1294.7 875.935C1298.57 875.481 1302.34 874.288 1305.86 872.407C1313.83 868.314 1321.18 862.833 1327.64 856.165C1335.05 848.602 1341.26 839.664 1345.99 829.74C1346.29 829.125 1345.39 828.732 1345.1 829.342Z" fill="white" id="id_193"></path>
<path d="M1312.25 868.17C1313.94 871.048 1316.49 873.153 1319.44 874.108C1322.38 875.063 1325.53 874.806 1328.32 873.383C1328.89 873.093 1328.51 872.091 1327.95 872.381C1325.35 873.711 1322.42 873.95 1319.68 873.055C1316.93 872.159 1314.57 870.188 1313 867.497C1312.66 866.913 1311.91 867.589 1312.25 868.17Z" fill="white" id="id_194"></path>
<path d="M1286.29 873.921C1287.47 866.983 1290.93 860.803 1295.97 856.613C1296.47 856.198 1295.87 855.345 1295.38 855.759C1290.13 860.131 1286.55 866.57 1285.33 873.793C1285.22 874.481 1286.17 874.605 1286.29 873.921H1286.29Z" fill="white" id="id_195"></path>
<path d="M1333.88 848.006C1333.02 847.046 1332.38 845.86 1332.03 844.555C1331.67 843.249 1331.61 841.864 1331.85 840.524C1331.97 839.838 1331.01 839.714 1330.89 840.396C1330.64 841.878 1330.71 843.407 1331.1 844.851C1331.49 846.294 1332.18 847.608 1333.13 848.678C1333.21 848.787 1333.32 848.858 1333.45 848.874C1333.57 848.891 1333.7 848.853 1333.8 848.769C1333.9 848.679 1333.97 848.549 1333.98 848.406C1334 848.263 1333.96 848.119 1333.88 848.006H1333.88Z" fill="white" id="id_196"></path>
<path d="M1287.19 777.721C1289.94 797.895 1286.98 818.532 1278.73 836.701C1277.02 840.648 1274.76 844.265 1272.05 847.42C1269.32 850.398 1265.93 852.496 1262.24 853.497C1258.81 854.509 1255.2 855.097 1252.05 857.03C1250.45 858.047 1249.06 859.433 1247.97 861.098C1246.88 862.763 1246.12 864.669 1245.73 866.691C1244.64 871.702 1245.21 876.855 1245.92 881.873C1246.71 887.444 1247.61 893.217 1246.13 898.746C1245.95 899.416 1246.88 899.692 1247.06 899.023C1249.64 889.404 1245.32 879.7 1246.2 869.975C1246.61 865.437 1248.24 861.011 1251.76 858.485C1254.84 856.277 1258.56 855.667 1262.04 854.677C1265.65 853.759 1269.02 851.858 1271.83 849.138C1274.68 846.149 1277.05 842.635 1278.85 838.747C1283.03 830.068 1285.97 820.702 1287.57 810.992C1289.45 799.922 1289.63 788.571 1288.12 777.43C1288.02 776.74 1287.1 777.036 1287.19 777.721Z" fill="white" id="id_197"></path>
<path d="M1281.69 831.026C1284.58 832.173 1287.74 832.123 1290.6 830.886C1293.46 829.649 1295.84 827.305 1297.31 824.273C1297.61 823.658 1296.77 823.111 1296.48 823.727C1295.11 826.553 1292.9 828.736 1290.23 829.882C1287.56 831.028 1284.62 831.061 1281.94 829.975C1281.35 829.74 1281.11 830.793 1281.69 831.026Z" fill="white" id="id_198"></path>
<path d="M1264.04 853.242C1261.28 846.9 1260.74 839.618 1262.53 832.848C1262.7 832.178 1261.77 831.902 1261.59 832.572C1259.74 839.62 1260.32 847.197 1263.2 853.79C1263.48 854.418 1264.31 853.867 1264.04 853.242Z" fill="white" id="id_199"></path>
<path d="M1288.2 800.235C1287 800.054 1285.86 799.54 1284.88 798.739C1283.9 797.937 1283.11 796.874 1282.58 795.644C1282.31 795.012 1281.48 795.564 1281.75 796.191C1282.34 797.547 1283.21 798.721 1284.29 799.609C1285.37 800.497 1286.63 801.073 1287.96 801.286C1288.08 801.318 1288.21 801.296 1288.32 801.224C1288.43 801.152 1288.51 801.036 1288.54 800.899C1288.58 800.76 1288.56 800.612 1288.49 800.487C1288.43 800.363 1288.32 800.272 1288.2 800.235V800.235Z" fill="white" id="id_200"></path>
<path d="M1243.63 543.013H1231.37C1231.13 543.014 1230.9 543.123 1230.73 543.314C1230.56 543.505 1230.47 543.764 1230.47 544.035C1230.46 544.189 1230.5 544.341 1230.56 544.476C1230.64 544.649 1230.75 544.796 1230.89 544.899C1231.04 545.002 1231.2 545.057 1231.37 545.057H1243.63C1243.81 545.058 1243.97 545.004 1244.12 544.901C1244.27 544.798 1244.38 544.651 1244.46 544.476C1244.51 544.339 1244.54 544.187 1244.54 544.035C1244.54 543.901 1244.52 543.768 1244.47 543.644C1244.43 543.52 1244.36 543.407 1244.28 543.312C1244.19 543.217 1244.09 543.142 1243.98 543.09C1243.87 543.039 1243.75 543.013 1243.63 543.013Z" fill="white" id="id_201"></path>
<path d="M1243.63 546.854H1231.37C1231.13 546.854 1230.9 546.962 1230.73 547.154C1230.56 547.346 1230.47 547.606 1230.47 547.877C1230.47 548.148 1230.56 548.408 1230.73 548.6C1230.9 548.791 1231.13 548.899 1231.37 548.899H1243.63C1243.88 548.899 1244.11 548.791 1244.28 548.6C1244.45 548.408 1244.54 548.148 1244.54 547.877C1244.54 547.606 1244.45 547.346 1244.28 547.154C1244.11 546.962 1243.88 546.854 1243.63 546.854Z" fill="white" id="id_202"></path>
<path d="M736.221 540.715C737.77 540.715 739.025 539.299 739.025 537.552C739.025 535.805 737.77 534.389 736.221 534.389C734.671 534.389 733.416 535.805 733.416 537.552C733.416 539.299 734.671 540.715 736.221 540.715Z" fill="white" id="id_203"></path>
<path d="M746.867 540.715C748.416 540.715 749.672 539.299 749.672 537.552C749.672 535.805 748.416 534.389 746.867 534.389C745.318 534.389 744.062 535.805 744.062 537.552C744.062 539.299 745.318 540.715 746.867 540.715Z" fill="white" id="id_204"></path>
<path d="M757.514 540.715C759.064 540.715 760.319 539.299 760.319 537.552C760.319 535.805 759.064 534.389 757.514 534.389C755.965 534.389 754.709 535.805 754.709 537.552C754.709 539.299 755.965 540.715 757.514 540.715Z" fill="white" id="id_205"></path>
<path d="M915.61 676.297C917.159 676.297 918.415 674.88 918.415 673.133C918.415 671.386 917.159 669.97 915.61 669.97C914.061 669.97 912.805 671.386 912.805 673.133C912.805 674.88 914.061 676.297 915.61 676.297Z" fill="white" id="id_206"></path>
<path d="M926.257 676.297C927.806 676.297 929.062 674.88 929.062 673.133C929.062 671.386 927.806 669.97 926.257 669.97C924.707 669.97 923.452 671.386 923.452 673.133C923.452 674.88 924.707 676.297 926.257 676.297Z" fill="white" id="id_207"></path>
<path d="M936.904 676.297C938.453 676.297 939.709 674.88 939.709 673.133C939.709 671.386 938.453 669.97 936.904 669.97C935.355 669.97 934.099 671.386 934.099 673.133C934.099 674.88 935.355 676.297 936.904 676.297Z" fill="white" id="id_208"></path>
<g clip-path="url(#clip1_21_2)">
<path d="M1108.89 992.053L1059.27 945.74L1035.74 924.042C1033.52 921.997 1031.82 919.456 1030.77 916.627C1029.73 913.798 1029.37 910.762 1029.72 907.767C1030.08 904.772 1031.14 901.903 1032.82 899.397C1034.49 896.89 1036.74 894.817 1039.38 893.347C1041.7 892.049 1044.28 891.251 1046.93 891.007C1049.58 890.762 1052.26 891.076 1054.78 891.927C1057.31 892.779 1059.63 894.15 1061.59 895.951C1063.55 897.752 1065.12 899.945 1066.18 902.387L1073.92 920.141L1121.99 969.986L1108.89 992.053Z" fill="#FFB9B9" id="id_209"></path>
<path d="M1115.38 962.013L1097.95 991.031L1168.69 1034.41C1231.06 989.597 1243.41 975.012 1228.13 903.625L1215.97 891.475L1157.21 986.759L1115.38 962.013Z" fill="#7a26c1" id="id_210"></path>
<path d="M1012.65 881.335C1011.95 880.646 1011.03 880.218 1010.06 880.122C1009.08 880.026 1008.1 880.268 1007.28 880.807L974.523 902.138C973.985 902.488 973.532 902.955 973.197 903.503C972.863 904.051 972.655 904.666 972.589 905.305C972.523 905.944 972.6 906.589 972.816 907.194C973.031 907.799 973.379 908.348 973.834 908.801L1057.14 991.727C1057.55 992.13 1058.03 992.449 1058.56 992.664C1059.09 992.88 1059.66 992.988 1060.23 992.982C1060.8 992.977 1061.36 992.858 1061.89 992.632C1062.41 992.406 1062.89 992.079 1063.28 991.668L1090.59 963.418C1091.38 962.598 1091.81 961.5 1091.79 960.363C1091.78 959.225 1091.31 958.14 1090.5 957.343L1012.65 881.335Z" fill="#3F3D56" id="id_211"></path>
<path d="M980.977 904.42L984.367 902.259C984.01 902.895 983.879 903.633 983.995 904.354C984.111 905.074 984.468 905.734 985.007 906.225C985.546 906.717 986.236 907.012 986.964 907.061C987.692 907.111 988.415 906.913 989.016 906.499L1010.95 891.42C1011.45 891.078 1011.85 890.603 1012.09 890.048C1012.33 889.494 1012.41 888.883 1012.32 888.285C1012.23 887.687 1011.98 887.126 1011.58 886.665C1011.19 886.205 1010.68 885.865 1010.1 885.682L1011.85 884.569C1012.07 884.425 1012.34 884.362 1012.61 884.392C1012.88 884.422 1013.13 884.543 1013.32 884.734L1087.12 957.242C1087.23 957.354 1087.32 957.486 1087.37 957.631C1087.43 957.777 1087.46 957.932 1087.46 958.089C1087.46 958.245 1087.42 958.4 1087.36 958.543C1087.29 958.686 1087.2 958.815 1087.09 958.923L1060.29 985.033C1060.06 985.242 1059.77 985.357 1059.46 985.353C1059.16 985.348 1058.87 985.225 1058.65 985.01L980.779 906.243C980.654 906.119 980.559 905.968 980.5 905.802C980.442 905.636 980.421 905.459 980.44 905.284C980.459 905.109 980.517 904.94 980.61 904.791C980.703 904.641 980.828 904.515 980.977 904.42Z" fill="white" id="id_212"></path>
<path d="M1066.16 941.232L1043.52 962.573L989.665 909.383L1016.99 891.598L1066.16 941.232Z" fill="#4ae19b" id="id_213"></path>
<path d="M991.758 922.509C991.904 922.362 991.987 922.163 991.987 921.955C991.987 921.748 991.904 921.549 991.758 921.402L987.048 916.694C986.899 916.551 986.701 916.472 986.494 916.472C986.288 916.472 986.089 916.551 985.94 916.694C985.794 916.841 985.711 917.04 985.711 917.247C985.711 917.455 985.794 917.654 985.94 917.801L990.65 922.509C990.799 922.652 990.997 922.731 991.204 922.731C991.41 922.731 991.608 922.652 991.758 922.509Z" fill="#E6E6E6" id="id_214"></path>
<path d="M999.691 929.332L994.982 924.624C994.909 924.551 994.822 924.494 994.727 924.454C994.632 924.415 994.53 924.395 994.427 924.395C994.325 924.395 994.223 924.415 994.128 924.454C994.033 924.494 993.946 924.551 993.873 924.624C993.801 924.697 993.743 924.783 993.704 924.878C993.664 924.973 993.644 925.075 993.644 925.178C993.644 925.281 993.664 925.383 993.704 925.478C993.743 925.573 993.801 925.659 993.873 925.732L998.583 930.44C998.73 930.587 998.929 930.669 999.137 930.669C999.345 930.669 999.544 930.587 999.691 930.44C999.838 930.293 999.92 930.094 999.92 929.886C999.92 929.678 999.838 929.479 999.691 929.332Z" fill="#E6E6E6" id="id_215"></path>
<path d="M1065.63 964.837C1068.56 964.837 1070.92 962.47 1070.92 959.549C1070.92 956.629 1068.56 954.262 1065.63 954.262C1062.71 954.262 1060.35 956.629 1060.35 959.549C1060.35 962.47 1062.71 964.837 1065.63 964.837Z" fill="#7a26c1" id="id_216"></path>
<path d="M1289.48 1146.47H879.322V1143.63H1290L1289.48 1146.47Z" fill="#3F3D56" id="id_217"></path>
<path d="M1242.58 1144.62V734.571H1245.43V1145.13L1242.58 1144.62Z" fill="#3F3D56" id="id_218"></path>
<path d="M725.772 1132.45L698.904 1139.54C695.087 1147.08 688.566 1152.89 680.644 1155.83C672.723 1158.76 663.986 1158.6 656.181 1155.37L655.594 1155.12C652.034 1153.6 648.712 1151.58 645.733 1149.11C634.449 1139.96 615.648 1135.24 590.716 1134.13C589.188 1133.65 587.862 1132.68 586.948 1131.36C586.034 1130.04 585.584 1128.46 585.668 1126.86C585.757 1125.18 586.434 1123.57 587.581 1122.33C588.728 1121.1 590.273 1120.3 591.948 1120.08L726.382 1102.55L725.772 1132.45Z" fill="#E6E6E6" id="id_219"></path>
<path d="M1074.32 1156.25C1004.04 1144.98 940.002 1126.74 886.313 1096.97L719.667 1137.86L720.278 1101.33L850.537 1055.65C872.513 1047.95 895.867 1044.96 919.074 1046.9L1074.32 1075.7L1074.32 1156.25Z" fill="#2F2E41" id="id_220"></path>
<path d="M806.352 1170.91C805.822 1169.15 805.877 1167.26 806.511 1165.52C807.144 1163.79 808.32 1162.31 809.864 1161.3L872.884 1128.18L888.144 1088.51L914.393 1104.99L907.067 1134.28L908.8 1146.4C909.343 1150.21 909.063 1154.08 907.978 1157.76C906.893 1161.45 905.029 1164.86 902.512 1167.76C899.995 1170.66 896.884 1172.99 893.389 1174.58C889.894 1176.17 886.098 1177 882.256 1177H814.537C812.699 1177 810.91 1176.41 809.436 1175.31C807.961 1174.21 806.88 1172.67 806.352 1170.91Z" fill="#E6E6E6" id="id_221"></path>
<path d="M1159.17 1133.67C1083.07 1228.27 1030.7 1125.24 979.097 1015.89L916.834 1117.2L878.988 1090.34L944.248 946.813C945.859 943.27 948.288 940.161 951.335 937.741C954.383 935.32 957.962 933.658 961.778 932.891C965.594 932.124 969.538 932.274 973.284 933.329C977.031 934.383 980.473 936.312 983.328 938.957L1074.32 1040.3L1091.42 1039.08L1159.17 1133.67Z" fill="#2F2E41" id="id_222"></path>
<path d="M1163.45 863.33C1188.39 863.33 1208.62 843.112 1208.62 818.171C1208.62 793.231 1188.39 773.013 1163.45 773.013C1138.5 773.013 1118.27 793.231 1118.27 818.171C1118.27 843.112 1138.5 863.33 1163.45 863.33Z" fill="#FFB9B9" id="id_223"></path>
<path d="M1220.83 898.725L1170.77 909.71C1165.97 889.103 1159.01 869.059 1150.02 849.905L1196.41 832.818C1202.11 855.614 1210.3 877.716 1220.83 898.725Z" fill="#FFB9B9" id="id_224"></path>
<path d="M1163.45 1145.27L1074.32 1040.3L1110.61 979.999C1114.43 952.872 1128.45 931.549 1150.02 914.526L1164.67 890.182L1208.62 871.874C1224.05 884.146 1235.02 901.147 1239.84 920.262C1244.66 939.376 1243.06 959.545 1235.3 977.663L1163.45 1145.27Z" fill="#7a26c1" id="id_225"></path>
<path d="M1086.53 1029.32L1032.81 987.822L1007.37 968.406C1004.97 966.577 1003.04 964.205 1001.73 961.485C1000.43 958.766 999.788 955.776 999.863 952.761C999.938 949.746 1000.73 946.791 1002.16 944.139C1003.6 941.488 1005.65 939.214 1008.13 937.506C1010.33 935.997 1012.82 934.964 1015.44 934.473C1018.06 933.983 1020.75 934.047 1023.34 934.66C1025.93 935.273 1028.37 936.421 1030.49 938.033C1032.62 939.644 1034.38 941.681 1035.66 944.014L1045.02 960.971L1097.52 1006.13L1086.53 1029.32Z" fill="#FFB9B9" id="id_226"></path>
<path d="M1090.19 998.806L1075.54 1029.32L1150.02 1065.93C1207.94 1015.51 1240.24 967.162 1218.38 897.504L1190.3 904.827L1134.15 1019.55L1090.19 998.806Z" fill="#7a26c1" id="id_227"></path>
<path d="M1222.09 766.127C1232.02 766.127 1240.07 758.077 1240.07 748.147C1240.07 738.217 1232.02 730.167 1222.09 730.167C1212.16 730.167 1204.1 738.217 1204.1 748.147C1204.1 758.077 1212.16 766.127 1222.09 766.127Z" fill="#2F2E41" id="id_228"></path>
<path d="M1203.56 743.746C1203.85 739.184 1205.88 734.906 1209.22 731.784C1212.56 728.662 1216.96 726.93 1221.53 726.941C1221.16 726.894 1220.79 726.836 1220.41 726.812C1215.65 726.506 1210.97 728.103 1207.39 731.252C1203.8 734.4 1201.62 738.843 1201.31 743.601C1201.01 748.36 1202.6 753.045 1205.75 756.627C1208.9 760.208 1213.35 762.392 1218.11 762.698C1218.49 762.722 1218.86 762.712 1219.23 762.713C1214.7 762.139 1210.55 759.857 1207.64 756.333C1204.72 752.809 1203.26 748.308 1203.56 743.746Z" fill="#2F2E41" id="id_229"></path>
<path d="M1203.45 751.423C1187.41 738.121 1141.41 755.028 1138.44 763.971C1116.75 766.926 1100.33 779.577 1100.33 802.072V802.073C1113.22 807.354 1127.89 806.703 1143.74 802.073C1169.02 822.663 1170.75 848.546 1155.38 878.276L1174.29 878.654L1197.73 844.408L1198.85 879.145L1242.19 878.276V828.495C1242.33 811.944 1238.52 795.597 1231.07 780.813C1224.32 767.695 1213.84 760.035 1203.45 751.423Z" fill="#2F2E41" id="id_230"></path>
<path d="M1163.09 839.375C1167.84 839.375 1171.69 833.986 1171.69 827.338C1171.69 820.69 1167.84 815.3 1163.09 815.3C1158.34 815.3 1154.49 820.69 1154.49 827.338C1154.49 833.986 1158.34 839.375 1163.09 839.375Z" fill="#FFB8B8" id="id_231"></path>
<path d="M218.453 324C215.947 324.003 213.544 324.999 211.772 326.771C210 328.543 209.003 330.945 209 333.45V733.051C209.003 735.556 210 737.958 211.772 739.729C213.544 741.501 215.947 742.497 218.453 742.5H804.519C807.025 742.497 809.427 741.501 811.199 739.729C812.972 737.958 813.969 735.556 813.972 733.051V333.45C813.969 330.945 812.972 328.543 811.2 326.771C809.428 324.999 807.025 324.003 804.519 324H218.453Z" fill="#E6E6E6" id="id_232"></path>
<path d="M231.957 337.5C229.45 337.503 227.048 338.499 225.276 340.271C223.504 342.043 222.507 344.445 222.504 346.95V719.55C222.507 722.055 223.504 724.458 225.276 726.229C227.048 728.001 229.45 728.997 231.957 729H791.015C793.521 728.997 795.924 728.001 797.696 726.229C799.468 724.457 800.465 722.055 800.468 719.55V346.95C800.465 344.445 799.468 342.043 797.696 340.271C795.924 338.499 793.521 337.503 791.015 337.5H231.957Z" fill="white" id="id_233"></path>
<path d="M340.847 585.98H338.146V594.08H340.847V585.98Z" fill="#E6E6E6" id="id_234"></path>
<path d="M340.847 608.842H338.146V623.605H340.847V608.842Z" fill="#E6E6E6" id="id_235"></path>
<path d="M340.847 638.367H338.146V646.467H340.847V638.367Z" fill="#E6E6E6" id="id_236"></path>
<path d="M604.172 472.5H601.471V480.6H604.172V472.5Z" fill="#E6E6E6" id="id_237"></path>
<path d="M604.172 617.237H601.471V600.157H604.172V617.237ZM604.172 583.078H601.471V565.998H604.172V583.078ZM604.172 548.918H601.471V531.839H604.172V548.918ZM604.172 514.759H601.471V497.68H604.172V514.759Z" fill="#E6E6E6" id="id_238"></path>
<path d="M604.172 634.316H601.471V642.416H604.172V634.316Z" fill="#E6E6E6" id="id_239"></path>
<path d="M756.765 396.9H754.064V405H756.765V396.9Z" fill="#E6E6E6" id="id_240"></path>
<path d="M756.765 619.029H754.064V603.741H756.765V619.029ZM756.765 588.453H754.064V573.165H756.765V588.453ZM756.765 557.878H754.064V542.59H756.765V557.878ZM756.765 527.302H754.064V512.015H756.765V527.302ZM756.765 496.726H754.064V481.438H756.765V496.726ZM756.765 466.151H754.064V450.863H756.765V466.151ZM756.765 435.575H754.064V420.288H756.765V435.575Z" fill="#E6E6E6" id="id_241"></path>
<path d="M756.765 634.316H754.064V642.416H756.765V634.316Z" fill="#E6E6E6" id="id_242"></path>
<path d="M294.059 645.905C287.56 626.435 299.76 606.343 316.068 596.05C336.822 582.951 363.178 586.849 385.01 594.969C427.995 610.958 466.501 648.333 515.602 639.522C525.347 637.901 534.567 633.988 542.503 628.105C550.735 621.649 557.004 613.027 560.609 603.208C568.406 582.899 566.547 560.743 567.759 539.462C568.881 519.746 572.801 497.326 589.003 484.122C606.754 469.657 631.91 472.464 653.261 471.064C673.805 469.807 693.671 463.242 710.917 452.011C728.101 440.851 742.16 425.5 751.77 407.406C754.035 403.057 756.02 398.568 757.712 393.965C758.617 391.517 754.703 390.461 753.806 392.889C739.471 431.672 702.391 461.262 661.27 466.287C639.582 468.937 616.106 465.264 595.81 475.063C576.7 484.29 568.22 504.283 565.24 524.223C562.04 545.636 564.699 567.533 560.465 588.825C558.355 599.439 554.434 609.881 547.253 618.141C540.428 625.767 531.544 631.258 521.671 633.955C473.516 647.871 432.392 609.814 390.77 592.888C369.108 584.078 343.181 578.876 320.963 588.826C303.659 596.575 288.951 613.965 288.191 633.455C288.024 638.045 288.689 642.628 290.152 646.982C290.974 649.442 294.887 648.387 294.059 645.905H294.059Z" fill="#7a26c1" id="id_243"></path>
<path d="M780.212 647.817H264.366V393.034H267.066V645.117H780.212V647.817Z" fill="#3F3D56" id="id_244"></path>
<path d="M1064.14 633.895C1150.58 633.895 1220.66 564.523 1220.66 478.948C1220.66 393.372 1150.58 324 1064.14 324C977.686 324 907.605 393.372 907.605 478.948C907.605 564.523 977.686 633.895 1064.14 633.895Z" fill="#7a26c1" id="id_245"></path>
<g clip-path="url(#clip2_21_2)">
<path opacity="0.2" d="M1056.98 340.951C1054.75 340.951 1052.54 341.005 1050.34 341.095C1087.46 344.09 1121.96 359.928 1146.83 385.4C1171.71 410.873 1185.12 444.076 1184.32 478.281C1183.53 512.486 1168.61 545.137 1142.58 569.617C1116.54 594.098 1081.34 608.578 1044.12 610.124C1048.36 610.462 1052.64 610.645 1056.98 610.645C1095.93 610.645 1133.29 596.438 1160.84 571.149C1188.39 545.86 1203.86 511.561 1203.86 475.798C1203.86 440.034 1188.39 405.736 1160.84 380.447C1133.29 355.158 1095.93 340.951 1056.98 340.951V340.951Z" fill="black" id="id_246"></path>
<path d="M1057.03 330.999C1055.76 331.001 1054.55 331.464 1053.65 332.287C1052.76 333.109 1052.25 334.224 1052.25 335.388V354.537C1052.25 355.701 1052.75 356.817 1053.65 357.64C1054.55 358.463 1055.76 358.926 1057.03 358.926C1058.3 358.926 1059.51 358.463 1060.41 357.64C1061.31 356.817 1061.81 355.701 1061.81 354.537V335.388C1061.81 334.224 1061.3 333.109 1060.41 332.287C1059.51 331.464 1058.3 331.001 1057.03 330.999Z" fill="white" id="id_247"></path>
<path d="M1152.49 356.923C1151.14 355.998 1149.77 355.096 1148.38 354.218C1147.55 354.169 1146.73 354.318 1145.98 354.653C1145.23 354.987 1144.59 355.495 1144.13 356.125L1132.38 371.948C1131.67 372.91 1131.4 374.092 1131.64 375.235C1131.87 376.379 1132.6 377.389 1133.64 378.044C1134.69 378.699 1135.98 378.945 1137.22 378.728C1138.47 378.511 1139.57 377.849 1140.28 376.887L1152.03 361.064C1152.47 360.464 1152.75 359.771 1152.83 359.047C1152.91 358.324 1152.79 357.594 1152.49 356.923Z" fill="white" id="id_248"></path>
<path d="M1205.83 429.07C1205.6 428.537 1205.25 428.051 1204.81 427.641C1204.37 427.231 1203.84 426.905 1203.27 426.681C1202.69 426.458 1202.07 426.341 1201.44 426.337C1200.81 426.333 1200.19 426.443 1199.61 426.66L1180.28 433.865C1179.11 434.304 1178.17 435.153 1177.68 436.224C1177.19 437.296 1177.18 438.503 1177.66 439.581C1178.13 440.659 1179.06 441.518 1180.22 441.971C1181.39 442.424 1182.71 442.433 1183.88 441.996L1203.21 434.791C1204.38 434.35 1205.32 433.5 1205.81 432.428C1206.3 431.356 1206.31 430.148 1205.83 429.07Z" fill="white" id="id_249"></path>
<path d="M980.806 371.948L969.064 356.125C968.596 355.495 967.957 354.987 967.21 354.653C966.464 354.318 965.635 354.169 964.805 354.218C963.423 355.096 962.05 355.998 960.703 356.923C960.398 357.594 960.28 358.324 960.36 359.047C960.441 359.771 960.717 360.464 961.164 361.064L972.906 376.887C973.619 377.849 974.72 378.511 975.965 378.728C977.21 378.945 978.498 378.699 979.546 378.044C980.594 377.389 981.315 376.379 981.551 375.235C981.788 374.092 981.52 372.91 980.806 371.948Z" fill="white" id="id_250"></path>
<path d="M932.908 433.866L913.579 426.661C912.404 426.223 911.088 426.231 909.921 426.684C908.753 427.137 907.829 427.997 907.352 429.075C906.875 430.153 906.884 431.361 907.377 432.433C907.87 433.505 908.806 434.353 909.98 434.791L929.31 441.997C930.484 442.433 931.799 442.424 932.966 441.971C934.133 441.519 935.056 440.659 935.533 439.581C936.01 438.504 936.001 437.297 935.509 436.225C935.017 435.153 934.081 434.305 932.908 433.866V433.866Z" fill="white" id="id_251"></path>
<path d="M1057.03 591.916C1055.76 591.918 1054.55 592.381 1053.65 593.203C1052.76 594.026 1052.25 595.141 1052.25 596.304V615.454C1052.25 616.618 1052.75 617.734 1053.65 618.557C1054.55 619.38 1055.76 619.842 1057.03 619.842C1058.3 619.842 1059.51 619.38 1060.41 618.557C1061.31 617.734 1061.81 616.618 1061.81 615.454V596.304C1061.81 595.141 1061.3 594.026 1060.41 593.203C1059.51 592.381 1058.3 591.918 1057.03 591.916Z" fill="white" id="id_252"></path>
<path d="M1152.03 589.777L1140.28 573.955C1139.93 573.478 1139.48 573.071 1138.95 572.755C1138.43 572.439 1137.84 572.221 1137.22 572.114C1136.61 572.006 1135.97 572.011 1135.36 572.129C1134.75 572.246 1134.16 572.473 1133.64 572.798C1133.12 573.122 1132.68 573.537 1132.34 574.019C1131.99 574.501 1131.76 575.04 1131.64 575.606C1131.52 576.172 1131.53 576.754 1131.65 577.318C1131.78 577.882 1132.03 578.417 1132.38 578.894L1144.13 594.716C1144.59 595.347 1145.23 595.854 1145.98 596.189C1146.73 596.523 1147.55 596.673 1148.38 596.623C1149.77 595.746 1151.14 594.844 1152.49 593.918C1152.79 593.248 1152.91 592.517 1152.83 591.794C1152.75 591.071 1152.47 590.377 1152.03 589.777Z" fill="white" id="id_253"></path>
<path d="M1203.21 516.05L1183.88 508.845C1182.71 508.408 1181.39 508.416 1180.22 508.869C1179.05 509.321 1178.13 510.181 1177.65 511.259C1177.18 512.337 1177.18 513.545 1177.68 514.617C1178.17 515.689 1179.11 516.538 1180.28 516.976L1199.61 524.181C1200.79 524.618 1202.1 524.609 1203.27 524.156C1204.43 523.703 1205.36 522.843 1205.83 521.766C1206.31 520.688 1206.3 519.481 1205.81 518.409C1205.32 517.338 1204.38 516.489 1203.21 516.05V516.05Z" fill="white" id="id_254"></path>
<path d="M979.546 572.798C978.498 572.143 977.21 571.897 975.965 572.114C974.72 572.331 973.619 572.993 972.906 573.955L961.164 589.777C960.717 590.377 960.441 591.071 960.36 591.794C960.28 592.517 960.398 593.248 960.703 593.918C962.05 594.844 963.423 595.746 964.805 596.623C965.635 596.673 966.464 596.523 967.21 596.189C967.957 595.854 968.596 595.347 969.064 594.716L980.806 578.894C981.159 578.418 981.407 577.882 981.535 577.318C981.663 576.754 981.668 576.172 981.551 575.606C981.434 575.04 981.197 574.501 980.853 574.019C980.509 573.537 980.065 573.122 979.546 572.798Z" fill="white" id="id_255"></path>
<path d="M935.533 511.255C935.297 510.722 934.948 510.236 934.508 509.826C934.067 509.416 933.543 509.09 932.965 508.866C932.387 508.643 931.767 508.526 931.14 508.522C930.513 508.518 929.891 508.628 929.31 508.845L909.98 516.051C908.807 516.489 907.871 517.338 907.379 518.41C906.887 519.481 906.878 520.689 907.355 521.766C907.832 522.844 908.755 523.703 909.922 524.156C911.089 524.609 912.404 524.618 913.578 524.181L932.908 516.976C934.081 516.535 935.015 515.686 935.507 514.613C935.999 513.541 936.009 512.334 935.533 511.255Z" fill="white" id="id_256"></path>
<path d="M1063.23 473.243C1063.67 475.642 1063.06 478.103 1061.53 480.088C1059.99 482.072 1057.67 483.417 1055.05 483.828L970.228 497.074C968.934 497.276 967.609 497.242 966.33 496.974C965.05 496.707 963.84 496.21 962.77 495.513C961.699 494.816 960.789 493.932 960.09 492.911C959.391 491.891 958.919 490.755 958.699 489.567C958.478 488.379 958.515 487.163 958.807 485.988C959.099 484.813 959.64 483.703 960.399 482.72C961.159 481.737 962.122 480.901 963.233 480.26C964.344 479.618 965.582 479.184 966.876 478.982L1051.7 465.736C1054.31 465.331 1057 465.893 1059.16 467.301C1061.32 468.708 1062.78 470.845 1063.23 473.243Z" fill="#3F3D56" id="id_257"></path>
<path d="M1152.51 559.522C1151.29 560.647 1149.64 561.282 1147.91 561.289C1146.18 561.295 1144.52 560.671 1143.29 559.555L1051.98 476.382C1050.75 475.264 1050.06 473.745 1050.05 472.158C1050.05 470.572 1050.73 469.049 1051.94 467.923C1053.16 466.797 1054.82 466.16 1056.54 466.153C1058.27 466.146 1059.93 466.769 1061.16 467.886L1152.47 551.059C1153.7 552.178 1154.39 553.697 1154.4 555.283C1154.4 556.87 1153.72 558.394 1152.51 559.522Z" fill="#3F3D56" id="id_258"></path>
<path d="M1056.59 485.793C1062.83 485.793 1067.89 481.149 1067.89 475.421C1067.89 469.692 1062.83 465.048 1056.59 465.048C1050.35 465.048 1045.3 469.692 1045.3 475.421C1045.3 481.149 1050.35 485.793 1056.59 485.793Z" fill="#CCCCCC" id="id_259"></path>
<path d="M978.769 295.555C961.426 320.588 934.963 337.2 902.329 348.114C901.684 348.557 900.95 348.88 900.17 349.063C899.389 349.246 898.577 349.286 897.779 349.181C896.982 349.076 896.215 348.828 895.522 348.45C894.829 348.073 894.223 347.574 893.74 346.982C876.014 325.253 880.016 294.198 903.412 277.594C909.068 273.587 915.535 270.651 922.437 268.957C929.34 267.263 936.54 266.845 943.619 267.727C950.699 268.608 957.518 270.772 963.679 274.092C969.841 277.413 975.222 281.824 979.512 287.07L980.002 287.671C980.485 288.263 980.836 288.936 981.035 289.653C981.235 290.369 981.279 291.115 981.164 291.847C981.05 292.579 980.779 293.284 980.368 293.92C979.957 294.556 979.414 295.112 978.769 295.555Z" fill="#E6E6E6" id="id_260"></path>
<path d="M1133.68 287.07C1137.97 281.824 1143.35 277.413 1149.51 274.092C1155.67 270.772 1162.49 268.608 1169.57 267.727C1176.65 266.845 1183.85 267.263 1190.75 268.957C1197.65 270.651 1204.12 273.587 1209.78 277.594C1233.17 294.198 1237.18 325.253 1219.45 346.982C1218.97 347.574 1218.36 348.073 1217.67 348.45C1216.97 348.828 1216.21 349.076 1215.41 349.181C1214.61 349.286 1213.8 349.246 1213.02 349.063C1212.24 348.88 1211.51 348.557 1210.86 348.114C1180.57 337.465 1155.72 319.038 1134.42 295.555C1133.12 294.66 1132.26 293.326 1132.03 291.847C1131.79 290.369 1132.21 288.866 1133.19 287.671L1133.68 287.07Z" fill="#E6E6E6" id="id_261"></path>
<path d="M1126.08 624.046C1124.97 624.616 1124.16 625.564 1123.81 626.684C1123.47 627.803 1123.62 629.002 1124.24 630.019L1151.83 675.278C1152.45 676.293 1153.48 677.042 1154.7 677.358C1155.92 677.674 1157.23 677.532 1158.33 676.964C1159.44 676.395 1160.25 675.447 1160.6 674.327C1160.94 673.207 1160.79 672.008 1160.17 670.992L1132.58 625.732C1131.96 624.718 1130.93 623.971 1129.71 623.655C1128.49 623.339 1127.18 623.48 1126.08 624.046Z" fill="#E6E6E6" id="id_262"></path>
<path d="M980.607 625.733L953.019 670.992C952.401 672.008 952.247 673.208 952.591 674.327C952.936 675.447 953.751 676.396 954.857 676.964C955.963 677.532 957.27 677.674 958.49 677.358C959.71 677.042 960.743 676.294 961.362 675.278L988.95 630.019C989.257 629.516 989.453 628.962 989.527 628.39C989.6 627.818 989.55 627.237 989.38 626.683C989.209 626.128 988.921 625.61 988.533 625.157C988.144 624.704 987.662 624.327 987.114 624.045C986.566 623.764 985.963 623.584 985.339 623.517C984.716 623.449 984.084 623.495 983.48 623.652C982.876 623.808 982.311 624.073 981.818 624.43C981.325 624.787 980.914 625.23 980.607 625.733H980.607Z" fill="#E6E6E6" id="id_263"></path>
<path d="M1157.41 686.867C1165.57 686.867 1172.19 680.794 1172.19 673.302C1172.19 665.811 1165.57 659.738 1157.41 659.738C1149.25 659.738 1142.64 665.811 1142.64 673.302C1142.64 680.794 1149.25 686.867 1157.41 686.867Z" fill="#E6E6E6" id="id_264"></path>
<path d="M1167.84 339.776C1176 339.776 1182.62 333.703 1182.62 326.212C1182.62 318.72 1176 312.647 1167.84 312.647C1159.68 312.647 1153.07 318.72 1153.07 326.212C1153.07 333.703 1159.68 339.776 1167.84 339.776Z" fill="#E6E6E6" id="id_265"></path>
<path d="M948.822 338.18C956.982 338.18 963.597 332.107 963.597 324.616C963.597 317.124 956.982 311.051 948.822 311.051C940.662 311.051 934.047 317.124 934.047 324.616C934.047 332.107 940.662 338.18 948.822 338.18Z" fill="#E6E6E6" id="id_266"></path>
<path d="M1145.82 551.893C1146.41 552.73 1147.18 553.44 1148.1 553.973C1149.01 554.505 1150.04 554.847 1151.11 554.975C1152.19 555.102 1153.28 555.012 1154.31 554.711C1155.34 554.41 1156.28 553.905 1157.08 553.231L1180.26 564.636L1179.02 552.14L1157.2 543.225C1155.87 542.073 1154.14 541.406 1152.32 541.35C1150.5 541.295 1148.72 541.854 1147.32 542.922C1145.91 543.991 1144.99 545.494 1144.71 547.148C1144.44 548.801 1144.83 550.489 1145.82 551.893H1145.82Z" fill="#FFB7B7" id="id_267"></path>
<path d="M1151.66 749.355L1141.71 744.979L1140.16 744.291L1137.66 749.907L1120.27 753.421C1119.41 753.594 1118.63 754.015 1118.05 754.623C1117.47 755.23 1117.12 755.992 1117.04 756.798C1116.97 757.603 1117.17 758.409 1117.63 759.099C1118.09 759.788 1118.78 760.325 1119.59 760.63L1136.59 766.997L1141.98 762.54L1140.66 768.521L1147.06 770.92L1154.08 750.421L1151.66 749.355Z" fill="#2F2E41" id="id_268"></path>
</g>
<ellipse cx="1126" cy="829" rx="3" ry="4" transform="rotate(-14.2821 1126 829)" fill="#2F2E41" id="id_269"></ellipse>
</g>
</g>
<defs>
<clipPath id="clip0_21_2">
<rect width="1500" height="1500" fill="white" id="id_270"></rect>
</clipPath>
<clipPath id="clip1_21_2">
<rect width="1081" height="853" fill="white" transform="translate(209 324)" id="id_271"></rect>
</clipPath>
<clipPath id="clip2_21_2">
<rect width="587.249" height="504.236" fill="white" transform="translate(814.108 267.273)" id="id_272"></rect>
</clipPath>
</defs>
</svg>