<svg width="1500" height="1500" viewBox="0 0 1500 1500" fill="none" xmlns="http://www.w3.org/2000/svg">
<g clip-path="url(#clip0_14_1052)">
<path d="M648.834 835.321C659.306 851.968 674.163 864.471 691.295 871.054C694.96 872.545 698.812 873.375 702.707 873.514C706.505 873.51 710.233 872.36 713.504 870.183C716.589 868.222 719.544 865.812 722.999 864.731C724.775 864.207 726.629 864.113 728.439 864.454C730.249 864.794 731.976 865.563 733.504 866.709C737.379 869.452 740.148 873.602 742.731 877.766C745.599 882.389 748.514 887.243 752.991 890.05C753.533 890.39 753.034 891.319 752.492 890.979C744.702 886.096 741.818 875.738 735.188 869.441C732.094 866.502 728.196 864.598 724.107 865.547C720.532 866.377 717.483 868.858 714.373 870.875C711.21 873.052 707.623 874.322 703.924 874.575C700.035 874.661 696.162 873.999 692.47 872.619C684.114 869.662 676.223 865.242 669.085 859.52C660.906 853.041 653.771 845.032 647.987 835.84C647.629 835.27 648.479 834.755 648.834 835.321V835.321Z" fill="white" id="id_231"></path>
<path d="M685.668 869.3C684.298 872.392 681.998 874.834 679.18 876.19C676.361 877.546 673.207 877.728 670.28 876.703C669.688 876.493 669.949 875.447 670.542 875.657C673.265 876.617 676.204 876.447 678.826 875.178C681.449 873.909 683.583 871.625 684.843 868.738C685.118 868.111 685.941 868.677 685.668 869.3V869.3Z" fill="white" id="id_232"></path>
<path d="M712.055 871.41C710.125 864.689 706.02 859.035 700.558 855.575C700.017 855.233 700.517 854.304 701.057 854.646C706.735 858.257 710.996 864.151 712.991 871.15C713.18 871.817 712.244 872.073 712.055 871.41Z" fill="white" id="id_233"></path>
<path d="M661.996 852.288C662.747 851.217 663.25 849.952 663.46 848.606C663.671 847.261 663.581 845.878 663.2 844.582C663.003 843.918 663.94 843.662 664.136 844.322C664.551 845.757 664.648 847.284 664.419 848.771C664.189 850.258 663.641 851.658 662.82 852.851C662.752 852.971 662.645 853.056 662.522 853.09C662.399 853.124 662.269 853.104 662.159 853.035C662.05 852.959 661.972 852.839 661.941 852.699C661.911 852.559 661.93 852.412 661.996 852.288V852.288Z" fill="white" id="id_234"></path>
<path d="M711.942 828.203C709.198 829.742 706.059 830.13 703.084 829.299C700.109 828.468 697.494 826.472 695.704 823.666C695.343 823.097 696.111 822.439 696.471 823.009C698.134 825.625 700.571 827.484 703.342 828.251C706.113 829.019 709.037 828.644 711.584 827.194C712.138 826.88 712.493 827.891 711.942 828.203Z" fill="white" id="id_235"></path>
<path d="M731.885 847.803C733.933 841.127 733.674 833.826 731.16 827.355C730.91 826.714 731.805 826.311 732.054 826.951C734.66 833.69 734.915 841.289 732.771 848.231C732.566 848.893 731.682 848.461 731.885 847.803Z" fill="white" id="id_236"></path>
<path d="M702.124 798.549C703.296 798.203 704.373 797.534 705.259 796.603C706.145 795.672 706.812 794.507 707.201 793.213C707.398 792.549 708.282 792.981 708.086 793.641C707.652 795.068 706.914 796.354 705.937 797.385C704.96 798.416 703.774 799.162 702.482 799.558C702.363 799.606 702.232 799.602 702.116 799.546C702 799.49 701.907 799.386 701.856 799.255C701.809 799.121 701.811 798.972 701.861 798.839C701.912 798.707 702.006 798.603 702.124 798.549H702.124Z" fill="white" id="id_237"></path>
<path d="M1345.1 829.342C1336.52 847.315 1323.14 861.782 1306.85 870.69C1303.38 872.678 1299.65 874.036 1295.79 874.713C1292.02 875.236 1288.2 874.612 1284.72 872.904C1281.44 871.385 1278.25 869.404 1274.7 868.81C1272.88 868.536 1271.03 868.699 1269.27 869.289C1267.51 869.878 1265.88 870.88 1264.49 872.229C1260.94 875.488 1258.65 879.99 1256.54 884.481C1254.19 889.467 1251.83 894.688 1247.69 898.094C1247.19 898.506 1247.79 899.359 1248.29 898.947C1255.49 893.021 1257.22 882.342 1263.12 875.173C1265.87 871.828 1269.53 869.398 1273.69 869.773C1277.33 870.101 1280.62 872.141 1283.93 873.711C1287.31 875.433 1291 876.197 1294.7 875.935C1298.57 875.481 1302.34 874.288 1305.86 872.407C1313.83 868.314 1321.18 862.833 1327.64 856.165C1335.05 848.602 1341.26 839.664 1345.99 829.74C1346.29 829.125 1345.39 828.732 1345.1 829.342Z" fill="white" id="id_238"></path>
<path d="M1312.25 868.17C1313.94 871.048 1316.49 873.153 1319.44 874.108C1322.38 875.063 1325.53 874.806 1328.32 873.383C1328.89 873.093 1328.51 872.091 1327.95 872.381C1325.35 873.711 1322.42 873.95 1319.68 873.055C1316.93 872.159 1314.57 870.188 1313 867.497C1312.66 866.913 1311.91 867.589 1312.25 868.17Z" fill="white" id="id_239"></path>
<path d="M1286.29 873.921C1287.47 866.983 1290.93 860.803 1295.97 856.613C1296.47 856.198 1295.87 855.345 1295.38 855.759C1290.13 860.131 1286.55 866.57 1285.33 873.793C1285.22 874.481 1286.17 874.605 1286.29 873.921H1286.29Z" fill="white" id="id_240"></path>
<path d="M1333.88 848.006C1333.02 847.046 1332.38 845.86 1332.03 844.555C1331.67 843.249 1331.61 841.864 1331.85 840.524C1331.97 839.838 1331.01 839.714 1330.89 840.396C1330.64 841.878 1330.71 843.407 1331.1 844.851C1331.48 846.294 1332.18 847.608 1333.13 848.678C1333.21 848.787 1333.32 848.858 1333.45 848.874C1333.57 848.891 1333.7 848.853 1333.8 848.769C1333.9 848.679 1333.97 848.549 1333.98 848.406C1334 848.263 1333.96 848.119 1333.88 848.006H1333.88Z" fill="white" id="id_241"></path>
<path d="M1287.19 777.721C1289.94 797.895 1286.98 818.532 1278.73 836.701C1277.02 840.648 1274.76 844.265 1272.05 847.42C1269.32 850.398 1265.93 852.496 1262.24 853.497C1258.81 854.509 1255.2 855.097 1252.05 857.03C1250.45 858.047 1249.06 859.433 1247.97 861.098C1246.88 862.763 1246.12 864.669 1245.73 866.691C1244.64 871.702 1245.21 876.855 1245.92 881.873C1246.71 887.444 1247.61 893.217 1246.13 898.746C1245.95 899.416 1246.88 899.692 1247.06 899.023C1249.64 889.404 1245.32 879.7 1246.2 869.975C1246.61 865.437 1248.24 861.011 1251.76 858.485C1254.84 856.277 1258.56 855.667 1262.04 854.677C1265.66 853.759 1269.02 851.858 1271.83 849.138C1274.68 846.149 1277.05 842.635 1278.85 838.747C1283.03 830.068 1285.97 820.702 1287.57 810.992C1289.45 799.922 1289.63 788.571 1288.12 777.43C1288.02 776.74 1287.1 777.036 1287.19 777.721Z" fill="white" id="id_242"></path>
<path d="M1281.69 831.026C1284.58 832.173 1287.74 832.123 1290.6 830.886C1293.46 829.649 1295.84 827.305 1297.31 824.273C1297.61 823.658 1296.77 823.111 1296.48 823.727C1295.11 826.553 1292.9 828.736 1290.23 829.882C1287.56 831.028 1284.62 831.061 1281.94 829.975C1281.35 829.74 1281.11 830.793 1281.69 831.026Z" fill="white" id="id_243"></path>
<path d="M1264.04 853.242C1261.28 846.9 1260.74 839.618 1262.53 832.848C1262.7 832.178 1261.77 831.902 1261.59 832.572C1259.74 839.62 1260.32 847.197 1263.2 853.79C1263.48 854.418 1264.31 853.867 1264.04 853.242Z" fill="white" id="id_244"></path>
<path d="M1288.2 800.235C1287 800.054 1285.86 799.54 1284.88 798.739C1283.9 797.937 1283.11 796.874 1282.58 795.644C1282.31 795.012 1281.48 795.564 1281.75 796.191C1282.34 797.547 1283.21 798.721 1284.29 799.609C1285.37 800.497 1286.63 801.073 1287.96 801.286C1288.08 801.318 1288.21 801.296 1288.32 801.224C1288.43 801.152 1288.51 801.036 1288.54 800.899C1288.58 800.76 1288.56 800.612 1288.49 800.487C1288.43 800.363 1288.32 800.272 1288.2 800.235V800.235Z" fill="white" id="id_245"></path>
<path d="M1243.63 543.013H1231.37C1231.13 543.014 1230.9 543.123 1230.73 543.314C1230.56 543.505 1230.47 543.764 1230.47 544.035C1230.46 544.189 1230.5 544.341 1230.56 544.476C1230.64 544.649 1230.75 544.796 1230.89 544.899C1231.04 545.002 1231.2 545.057 1231.37 545.057H1243.63C1243.81 545.058 1243.97 545.004 1244.12 544.901C1244.27 544.798 1244.38 544.651 1244.46 544.476C1244.51 544.339 1244.54 544.187 1244.54 544.035C1244.54 543.901 1244.52 543.768 1244.47 543.644C1244.43 543.52 1244.36 543.407 1244.28 543.312C1244.19 543.217 1244.09 543.142 1243.98 543.09C1243.87 543.039 1243.75 543.013 1243.63 543.013Z" fill="white" id="id_246"></path>
<path d="M1243.63 546.854H1231.37C1231.13 546.854 1230.9 546.962 1230.73 547.154C1230.56 547.346 1230.47 547.606 1230.47 547.877C1230.47 548.148 1230.56 548.408 1230.73 548.6C1230.9 548.791 1231.13 548.899 1231.37 548.899H1243.63C1243.88 548.899 1244.11 548.791 1244.28 548.6C1244.45 548.408 1244.54 548.148 1244.54 547.877C1244.54 547.606 1244.45 547.346 1244.28 547.154C1244.11 546.962 1243.88 546.854 1243.63 546.854Z" fill="white" id="id_247"></path>
<path d="M736.221 540.715C737.77 540.715 739.025 539.299 739.025 537.552C739.025 535.805 737.77 534.389 736.221 534.389C734.671 534.389 733.416 535.805 733.416 537.552C733.416 539.299 734.671 540.715 736.221 540.715Z" fill="white" id="id_248"></path>
<path d="M746.867 540.715C748.417 540.715 749.672 539.299 749.672 537.552C749.672 535.805 748.417 534.389 746.867 534.389C745.318 534.389 744.062 535.805 744.062 537.552C744.062 539.299 745.318 540.715 746.867 540.715Z" fill="white" id="id_249"></path>
<path d="M757.514 540.715C759.064 540.715 760.319 539.299 760.319 537.552C760.319 535.805 759.064 534.389 757.514 534.389C755.965 534.389 754.709 535.805 754.709 537.552C754.709 539.299 755.965 540.715 757.514 540.715Z" fill="white" id="id_250"></path>
<path d="M915.61 676.297C917.159 676.297 918.415 674.88 918.415 673.133C918.415 671.386 917.159 669.97 915.61 669.97C914.061 669.97 912.805 671.386 912.805 673.133C912.805 674.88 914.061 676.297 915.61 676.297Z" fill="white" id="id_251"></path>
<path d="M926.257 676.297C927.806 676.297 929.062 674.88 929.062 673.133C929.062 671.386 927.806 669.97 926.257 669.97C924.707 669.97 923.452 671.386 923.452 673.133C923.452 674.88 924.707 676.297 926.257 676.297Z" fill="white" id="id_252"></path>
<path d="M936.904 676.297C938.453 676.297 939.709 674.88 939.709 673.133C939.709 671.386 938.453 669.97 936.904 669.97C935.354 669.97 934.099 671.386 934.099 673.133C934.099 674.88 935.354 676.297 936.904 676.297Z" fill="white" id="id_253"></path>
<g clip-path="url(#clip1_14_1052)">
<path d="M1164.03 1133.36C1231.96 1133.36 1287.03 1119.92 1287.03 1103.36C1287.03 1086.79 1231.96 1073.36 1164.03 1073.36C1096.1 1073.36 1041.03 1086.79 1041.03 1103.36C1041.03 1119.92 1096.1 1133.36 1164.03 1133.36Z" fill="#3F3D56" id="id_254"></path>
<path d="M733.336 469.897V866.906C733.334 871.636 731.454 876.171 728.108 879.515C724.763 882.858 720.227 884.737 715.498 884.737H554.32C551.977 884.741 549.656 884.282 547.49 883.388C545.325 882.493 543.357 881.18 541.7 879.524C540.043 877.867 538.729 875.9 537.833 873.735C536.938 871.57 536.478 869.249 536.481 866.906V469.897C536.481 467.554 536.943 465.234 537.839 463.07C538.736 460.906 540.05 458.939 541.706 457.283C543.362 455.626 545.329 454.312 547.493 453.416C549.658 452.519 551.977 452.058 554.32 452.058H578.443V455.153C578.444 459.049 579.991 462.785 582.746 465.539C585.5 468.294 589.236 469.842 593.132 469.842H675.103C678.998 469.842 682.734 468.294 685.489 465.539C688.243 462.785 689.791 459.049 689.791 455.153V452.058H715.498C717.84 452.057 720.16 452.518 722.325 453.414C724.49 454.311 726.456 455.625 728.113 457.281C729.77 458.938 731.084 460.905 731.98 463.069C732.876 465.234 733.337 467.554 733.336 469.897Z" fill="#7a26c1" id="id_255"></path>
<path d="M726.279 518.412H543.562V607.408H726.279V518.412Z" fill="#3F3D56" id="id_256"></path>
<path d="M617.128 579.521C621.911 597.202 638.294 608.153 638.294 608.153C638.294 608.153 646.922 590.436 642.139 572.755C637.356 555.074 620.973 544.124 620.973 544.124C620.973 544.124 612.345 561.84 617.128 579.521Z" fill="white" id="id_257"></path>
<path d="M624.157 575.721C637.282 588.497 638.885 608.138 638.885 608.138C638.885 608.138 619.208 607.064 606.083 594.287C592.959 581.511 591.355 561.87 591.355 561.87C591.355 561.87 611.032 562.944 624.157 575.721Z" fill="#4ae19b" id="id_258"></path>
<path d="M660.641 579.521C655.858 597.202 639.475 608.153 639.475 608.153C639.475 608.153 630.846 590.436 635.629 572.755C640.413 555.074 656.796 544.124 656.796 544.124C656.796 544.124 665.424 561.84 660.641 579.521Z" fill="white" id="id_259"></path>
<path d="M653.612 575.721C640.487 588.497 638.884 608.138 638.884 608.138C638.884 608.138 658.561 607.064 671.686 594.287C684.81 581.511 686.414 561.87 686.414 561.87C686.414 561.87 666.737 562.944 653.612 575.721Z" fill="#4ae19b" id="id_260"></path>
<path d="M709.937 657.246H559.904V665.481H709.937V657.246Z" fill="#F0F0F0" id="id_261"></path>
<path d="M709.937 670.514H559.904V678.75H709.937V670.514Z" fill="#F0F0F0" id="id_262"></path>
<path d="M709.937 683.783H559.904V692.019H709.937V683.783Z" fill="#F0F0F0" id="id_263"></path>
<path d="M709.937 697.052H559.904V705.288H709.937V697.052Z" fill="#F0F0F0" id="id_264"></path>
<path d="M663.46 768.025L630.065 744.318L606.358 777.713L639.753 801.42L663.46 768.025Z" fill="#F0F0F0" id="id_265"></path>
<path d="M639.451 810.029C637.582 810.029 635.755 809.475 634.201 808.437C632.647 807.398 631.435 805.922 630.72 804.195C630.005 802.468 629.817 800.568 630.182 798.735C630.547 796.901 631.447 795.217 632.769 793.896C634.09 792.574 635.774 791.674 637.608 791.309C639.441 790.944 641.341 791.132 643.068 791.847C644.795 792.562 646.271 793.774 647.31 795.328C648.348 796.882 648.902 798.709 648.902 800.578C648.899 803.084 647.903 805.486 646.131 807.258C644.359 809.03 641.957 810.026 639.451 810.029ZM639.451 792.703C637.894 792.703 636.371 793.165 635.076 794.03C633.781 794.895 632.771 796.125 632.175 797.564C631.579 799.004 631.423 800.587 631.727 802.115C632.031 803.643 632.781 805.046 633.882 806.147C634.984 807.249 636.387 807.999 637.915 808.303C639.443 808.607 641.026 808.451 642.465 807.855C643.904 807.259 645.134 806.249 646 804.954C646.865 803.659 647.327 802.136 647.327 800.578C647.325 798.49 646.494 796.488 645.018 795.012C643.541 793.535 641.539 792.705 639.451 792.703Z" fill="#3F3D56" id="id_266"></path>
<path d="M408.855 384.839V781.848C408.853 786.578 406.972 791.113 403.627 794.457C400.282 797.8 395.746 799.679 391.016 799.679H229.839C227.496 799.683 225.175 799.224 223.009 798.33C220.843 797.435 218.876 796.122 217.218 794.466C215.561 792.809 214.247 790.842 213.352 788.677C212.456 786.512 211.997 784.191 212 781.848V384.839C212 382.496 212.461 380.176 213.358 378.012C214.254 375.848 215.568 373.881 217.225 372.225C218.881 370.568 220.848 369.254 223.012 368.358C225.176 367.461 227.496 367 229.839 367H253.962V370.095C253.962 373.991 255.51 377.727 258.264 380.481C261.019 383.236 264.755 384.784 268.65 384.784H350.621C354.517 384.784 358.253 383.236 361.008 380.481C363.762 377.727 365.31 373.991 365.31 370.095V367H391.016C393.359 366.999 395.679 367.46 397.844 368.356C400.008 369.253 401.975 370.566 403.632 372.223C405.288 373.88 406.602 375.847 407.498 378.011C408.395 380.176 408.855 382.496 408.855 384.839Z" fill="#F2F2F2" id="id_267"></path>
<path d="M388.409 583.781H230.894V442.805H388.409V583.781ZM232.469 582.206H386.834V444.38H232.469V582.206Z" fill="#3F3D56" id="id_268"></path>
<path d="M232.207 443.005L231.157 444.18L387.097 583.581L388.147 582.406L232.207 443.005Z" fill="#3F3D56" id="id_269"></path>
<path d="M387.098 443.006L231.155 582.405L232.205 583.579L388.148 444.181L387.098 443.006Z" fill="#3F3D56" id="id_270"></path>
<path d="M387.622 624.735H231.682V626.31H387.622V624.735Z" fill="#3F3D56" id="id_271"></path>
<path d="M387.622 638.911H231.682V640.486H387.622V638.911Z" fill="#3F3D56" id="id_272"></path>
<path d="M387.622 653.088H231.682V654.663H387.622V653.088Z" fill="#3F3D56" id="id_273"></path>
<path d="M309.652 667.264H231.682V668.839H309.652V667.264Z" fill="#3F3D56" id="id_274"></path>
<path d="M309.652 681.44H231.682V683.016H309.652V681.44Z" fill="#3F3D56" id="id_275"></path>
<path d="M1057.03 384.839V781.848C1057.03 786.578 1055.15 791.113 1051.8 794.457C1048.46 797.8 1043.92 799.679 1039.19 799.679H878.014C875.671 799.683 873.35 799.224 871.184 798.33C869.019 797.435 867.051 796.122 865.394 794.466C863.737 792.809 862.423 790.842 861.527 788.677C860.632 786.512 860.172 784.191 860.175 781.848V384.839C860.175 382.496 860.637 380.176 861.533 378.012C862.429 375.848 863.743 373.881 865.4 372.225C867.056 370.568 869.023 369.254 871.187 368.358C873.352 367.461 875.671 367 878.014 367H902.137V370.095C902.137 373.991 903.685 377.727 906.439 380.481C909.194 383.236 912.93 384.784 916.826 384.784H998.797C1002.69 384.784 1006.43 383.236 1009.18 380.481C1011.94 377.727 1013.48 373.991 1013.48 370.095V367H1039.19C1041.53 366.999 1043.85 367.46 1046.02 368.356C1048.18 369.253 1050.15 370.566 1051.81 372.223C1053.46 373.88 1054.78 375.847 1055.67 378.011C1056.57 380.176 1057.03 382.496 1057.03 384.839Z" fill="#F2F2F2" id="id_276"></path>
<path d="M1037.37 570.392H881.432V571.967H1037.37V570.392Z" fill="#3F3D56" id="id_277"></path>
<path d="M1037.37 611.346H881.432V612.921H1037.37V611.346Z" fill="#3F3D56" id="id_278"></path>
<path d="M1037.37 652.3H881.432V653.875H1037.37V652.3Z" fill="#3F3D56" id="id_279"></path>
<path d="M955.242 510.599C969.381 510.599 980.844 499.136 980.844 484.997C980.844 470.857 969.381 459.395 955.242 459.395C941.102 459.395 929.64 470.857 929.64 484.997C929.64 499.136 941.102 510.599 955.242 510.599Z" fill="#7a26c1" id="id_280"></path>
<path d="M1009.02 563.304H997.993V588.507H1009.02V563.304Z" fill="#7a26c1" id="id_281"></path>
<path d="M912.147 603.47H901.121V628.673H912.147V603.47Z" fill="#7a26c1" id="id_282"></path>
<path d="M976.729 643.637H965.703V668.839H976.729V643.637Z" fill="#7a26c1" id="id_283"></path>
<path d="M958.603 513.687C952.372 513.687 946.281 511.839 941.101 508.378C935.92 504.916 931.882 499.996 929.498 494.239C927.113 488.483 926.489 482.149 927.705 476.038C928.921 469.927 931.921 464.313 936.327 459.908C940.732 455.502 946.346 452.502 952.457 451.286C958.568 450.07 964.902 450.694 970.658 453.079C976.415 455.463 981.335 459.501 984.797 464.682C988.258 469.862 990.106 475.953 990.106 482.184C990.096 490.536 986.774 498.543 980.868 504.449C974.962 510.355 966.955 513.677 958.603 513.687ZM958.603 452.256C952.683 452.256 946.897 454.011 941.976 457.3C937.054 460.588 933.218 465.262 930.953 470.731C928.688 476.199 928.095 482.217 929.25 488.022C930.405 493.828 933.255 499.16 937.44 503.346C941.626 507.531 946.959 510.382 952.764 511.537C958.569 512.691 964.587 512.099 970.056 509.833C975.524 507.568 980.198 503.732 983.487 498.811C986.775 493.889 988.531 488.103 988.531 482.184C988.522 474.249 985.366 466.642 979.755 461.031C974.144 455.421 966.537 452.265 958.603 452.256V452.256Z" fill="#3F3D56" id="id_284"></path>
<path d="M430.134 575.269L428.592 576.542L491.789 653.08L493.331 651.807L430.134 575.269Z" fill="#3F3D56" id="id_285"></path>
<path d="M500.245 661.751C495.004 658.713 487.744 655.569 482.026 654.625L491.551 651.222L496.694 642.514C496.538 648.307 498.253 656.031 500.245 661.751Z" fill="#3F3D56" id="id_286"></path>
<path d="M838.123 575.262L774.943 651.814L776.486 653.087L839.666 576.535L838.123 575.262Z" fill="#3F3D56" id="id_287"></path>
<path d="M768.021 661.751C770.012 656.03 771.726 648.306 771.571 642.513L776.715 651.222L786.238 654.624C780.52 655.568 773.261 658.712 768.021 661.751Z" fill="#3F3D56" id="id_288"></path>
<path d="M1228.53 744.856C1228.53 744.856 1228.53 890.856 1205.53 943.856L1152.53 1062.86C1152.53 1062.86 1118.53 1060.86 1116.53 1046.86L1156.53 922.856L1180.53 849.856L1186.53 735.856L1228.53 744.856Z" fill="#2F2E41" id="id_289"></path>
<path d="M1195.53 748.856L1186.53 809.856L1192.53 943.856L1195.53 1017.86C1195.53 1017.86 1207.53 1050.86 1203.53 1053.86L1195.53 1059.86C1195.53 1059.86 1163.53 1055.86 1162.53 1053.86C1161.53 1051.86 1142.53 900.856 1142.53 900.856C1142.53 900.856 1103.53 778.856 1105.53 776.856C1107.53 774.856 1116.53 744.856 1116.53 744.856L1195.53 748.856Z" fill="#2F2E41" id="id_290"></path>
<path d="M1202.53 1049.86L1206.53 1072.86C1206.53 1072.86 1217.53 1119.86 1206.53 1119.86C1195.53 1119.86 1175.53 1106.86 1174.53 1098.86C1173.53 1090.86 1176.53 1054.86 1176.53 1054.86L1202.53 1049.86Z" fill="#2F2E41" id="id_291"></path>
<path d="M1151.53 1057.86C1151.53 1057.86 1159.53 1073.86 1164.53 1075.86C1169.53 1077.86 1192.3 1090.94 1178.91 1099.4C1165.53 1107.86 1151.53 1099.86 1151.53 1099.86L1105.53 1074.86C1105.53 1074.86 1111.53 1049.86 1120.53 1047.86C1129.53 1045.86 1151.53 1057.86 1151.53 1057.86Z" fill="#2F2E41" id="id_292"></path>
<path d="M1141.53 523.856C1161.41 523.856 1177.53 507.739 1177.53 487.856C1177.53 467.974 1161.41 451.856 1141.53 451.856C1121.65 451.856 1105.53 467.974 1105.53 487.856C1105.53 507.739 1121.65 523.856 1141.53 523.856Z" fill="#FFB8B8" id="id_293"></path>
<path d="M1171.53 490.856C1171.53 490.856 1178.53 536.856 1185.53 542.856C1192.53 548.856 1170.53 569.856 1160.53 568.856C1150.53 567.856 1139.53 545.856 1139.53 545.856C1139.53 545.856 1142.53 516.856 1137.53 508.856C1132.53 500.856 1171.53 490.856 1171.53 490.856Z" fill="#FFB8B8" id="id_294"></path>
<path d="M1163.53 549.856L1180.51 534.178C1185.98 541.045 1192.79 546.721 1200.53 550.856C1213.53 557.856 1175.53 629.856 1175.53 629.856L1114.53 553.856C1114.53 553.856 1133.93 540.96 1140.23 535.908L1163.53 549.856Z" fill="#3F3D56" id="id_295"></path>
<path d="M1173.53 610.857C1173.53 610.857 1200.33 564.137 1197.43 548.997C1197.43 548.997 1236.53 558.857 1238.53 571.857C1240.53 584.857 1219.53 631.857 1219.53 631.857C1219.53 631.857 1236.53 750.857 1226.53 751.857C1216.53 752.857 1116.53 753.857 1114.53 748.857C1112.53 743.857 1116.53 728.857 1110.53 723.857C1104.53 718.857 1097.53 721.857 1100.53 713.857C1103.53 705.857 1116.53 695.857 1112.53 689.857C1108.53 683.857 1107.53 685.857 1108.53 681.857C1109.53 677.857 1106.53 624.857 1106.53 624.857C1106.53 624.857 1085.53 566.857 1090.53 562.857C1095.53 558.857 1121.76 548.997 1121.76 548.997L1173.53 610.857Z" fill="#3F3D56" id="id_296"></path>
<path d="M1253.53 766.856C1253.53 766.856 1250.53 806.856 1233.53 804.856C1216.53 802.856 1236.53 759.856 1236.53 759.856L1253.53 766.856Z" fill="#FFB8B8" id="id_297"></path>
<path d="M1104.53 765.856C1104.53 765.856 1110.53 789.856 1117.53 787.856V759.856L1114.53 754.856L1104.53 765.856Z" fill="#FFB8B8" id="id_298"></path>
<path d="M1170.89 493.035C1170.8 492 1170.44 491.005 1169.87 490.14C1169.28 489.482 1168.52 489.002 1167.68 488.754C1165.45 488.063 1163.04 488.188 1160.89 489.108C1158.75 490.028 1157 491.683 1155.96 493.775C1155.04 495.789 1154.59 498.382 1152.57 499.279C1150.21 500.322 1147.6 498.102 1146.68 495.699C1145.75 493.296 1145.73 490.573 1144.49 488.313C1143.03 485.633 1140.08 484.053 1137.09 483.42C1134.62 482.895 1131.59 482.62 1130.47 480.35C1130.11 479.482 1129.95 478.543 1130.02 477.606C1130.04 474.263 1130.65 470.95 1131.8 467.814C1122.01 465.857 1113.29 475.418 1103.3 475.572C1102.04 475.646 1100.77 475.398 1099.63 474.852C1097.41 473.668 1096.45 471.044 1095.78 468.621C1095.07 466.048 1094.49 463.445 1094.03 460.811L1097.23 462.278C1096.34 460.574 1095.85 458.688 1095.8 456.766C1097.45 456.594 1099.12 456.735 1100.72 457.181L1100.95 451.447C1103.43 454.581 1108.35 453.479 1112.07 452.029C1119.25 449.229 1126.39 446.198 1133.92 444.582C1141.46 442.966 1149.53 442.847 1156.65 445.783C1164.14 448.868 1169.91 455.003 1174.99 461.304C1177.81 464.797 1180.53 468.468 1182.05 472.69C1183.96 478.406 1183.94 484.588 1181.99 490.291C1180.36 495.425 1177.31 501.635 1173.2 505.192C1171.77 501.558 1171.57 496.923 1170.89 493.035Z" fill="#2F2E41" id="id_299"></path>
<path d="M1102.53 559.856L1089.53 562.856C1089.53 562.856 1074.53 578.856 1073.53 593.856C1072.53 608.856 1072.53 683.856 1072.53 683.856L1091.53 745.856C1091.53 745.856 1089.53 759.856 1091.53 759.856C1093.53 759.856 1094.53 756.856 1094.53 760.856C1094.53 764.856 1089.53 760.856 1094.53 764.856L1104.53 772.856L1121.24 750.698C1121.24 750.698 1122.53 741.856 1119.53 739.856C1116.53 737.856 1116.53 736.856 1117.53 733.856C1118.53 730.856 1120.53 729.856 1119.53 727.856C1118.53 725.856 1115.53 722.856 1115.53 720.856C1115.53 718.856 1115.53 716.856 1114.53 715.856C1113.53 714.856 1106.53 690.856 1106.53 690.856L1110.53 612.856L1102.53 559.856Z" fill="#3F3D56" id="id_300"></path>
<path d="M1228.53 564.856L1238.53 569.856C1238.53 569.856 1254.53 617.856 1254.53 659.856C1254.53 701.856 1257.53 729.856 1257.53 729.856C1257.53 729.856 1262.53 741.856 1260.53 741.856C1258.53 741.856 1256.53 741.856 1258.53 744.856C1260.53 747.856 1261.53 746.856 1260.53 749.856C1259.53 752.856 1258.53 747.856 1259.53 752.856C1260.53 757.856 1259.53 759.856 1257.53 759.856C1255.53 759.856 1255.53 772.856 1255.53 772.856L1231.53 763.856C1231.53 763.856 1235.53 758.856 1234.53 756.856C1233.92 755.607 1233.58 754.245 1233.53 752.856C1233.53 752.856 1238.53 751.856 1233.53 749.856C1228.53 747.856 1230.53 747.856 1231.53 741.856C1232.53 735.856 1235.53 736.856 1232.53 735.856C1229.53 734.856 1211.53 641.856 1211.53 641.856L1228.53 564.856Z" fill="#3F3D56" id="id_301"></path>
<path d="M1163.52 553.178C1165.17 553.178 1166.52 551.835 1166.52 550.178C1166.52 548.521 1165.17 547.178 1163.52 547.178C1161.86 547.178 1160.52 548.521 1160.52 550.178C1160.52 551.835 1161.86 553.178 1163.52 553.178Z" fill="#2F2E41" id="id_302"></path>
<path d="M1163.52 563.178C1165.17 563.178 1166.52 561.835 1166.52 560.178C1166.52 558.521 1165.17 557.178 1163.52 557.178C1161.86 557.178 1160.52 558.521 1160.52 560.178C1160.52 561.835 1161.86 563.178 1163.52 563.178Z" fill="#2F2E41" id="id_303"></path>
<path d="M465.979 925.37V1059.23C465.979 1060.13 465.624 1060.98 464.993 1061.61C464.361 1062.25 463.504 1062.6 462.611 1062.6H235.37C235.208 1062.6 235.047 1062.59 234.887 1062.56C234.086 1062.45 233.352 1062.05 232.822 1061.44C232.292 1060.82 232 1060.04 232 1059.23V925.37C232 924.928 232.087 924.49 232.256 924.081C232.425 923.672 232.673 923.3 232.986 922.988C233.299 922.675 233.67 922.426 234.079 922.257C234.487 922.087 234.925 922 235.368 922H462.608C463.051 922 463.489 922.087 463.898 922.256C464.307 922.425 464.678 922.673 464.991 922.986C465.304 923.299 465.552 923.67 465.722 924.079C465.891 924.487 465.978 924.925 465.979 925.368V925.37Z" fill="#E6E6E6" id="id_304"></path>
<path d="M416.587 1050.31H271.542C271.36 1050.31 271.179 1050.29 271 1050.26L339.6 931.438C340.018 930.698 340.626 930.082 341.36 929.654C342.095 929.226 342.93 929 343.78 929C344.631 929 345.466 929.226 346.2 929.654C346.934 930.082 347.542 930.698 347.961 931.438L394 1011.18L396.205 1014.99L416.587 1050.31Z" fill="#3F3D56" id="id_305"></path>
<path d="M491.452 1048.29H366L390.31 1012.97L392.06 1010.43L423.738 964.413C425.815 961.397 430.811 961.209 433.253 963.844C433.417 964.024 433.569 964.214 433.709 964.413L491.452 1048.29Z" fill="#3F3D56" id="id_306"></path>
<path d="M300.567 1021.13C316.896 1021.13 330.133 1007.9 330.133 991.567C330.133 975.237 316.896 962 300.567 962C284.237 962 271 975.237 271 991.567C271 1007.9 284.237 1021.13 300.567 1021.13Z" fill="#4ae19b" id="id_307"></path>
<path d="M1114.43 496.421C1114.93 498.527 1115.06 500.488 1114.88 501.949C1114.79 502.681 1114.62 503.26 1114.4 503.664C1114.19 504.069 1113.95 504.245 1113.74 504.296C1113.52 504.347 1113.23 504.295 1112.86 504.032C1112.48 503.769 1112.07 503.327 1111.66 502.715C1110.84 501.494 1110.07 499.685 1109.57 497.579C1109.07 495.473 1108.94 493.511 1109.12 492.051C1109.21 491.318 1109.38 490.74 1109.6 490.336C1109.81 489.931 1110.05 489.755 1110.26 489.704C1110.48 489.653 1110.77 489.704 1111.14 489.968C1111.52 490.231 1111.93 490.672 1112.34 491.285C1113.16 492.506 1113.93 494.315 1114.43 496.421Z" stroke="black" id="id_308"></path>
<path d="M1116.5 496L1140 491.5" stroke="black" id="id_309"></path>
</g>
</g>
<defs>
<clipPath id="clip0_14_1052">
<rect width="1500" height="1500" fill="white" id="id_310"></rect>
</clipPath>
<clipPath id="clip1_14_1052">
<rect width="1075.03" height="766.356" fill="white" transform="translate(212 367)" id="id_311"></rect>
</clipPath>
</defs>
</svg>