<svg width="1500" height="1500" viewBox="0 0 1500 1500" fill="none" xmlns="http://www.w3.org/2000/svg">
<g clip-path="url(#clip0_25_420)">
<path d="M648.834 835.321C659.306 851.968 674.163 864.471 691.295 871.054C694.96 872.545 698.812 873.376 702.707 873.514C706.505 873.511 710.233 872.361 713.504 870.183C716.589 868.222 719.544 865.813 722.999 864.732C724.775 864.208 726.629 864.113 728.439 864.454C730.249 864.795 731.975 865.563 733.504 866.709C737.379 869.452 740.148 873.602 742.731 877.766C745.599 882.39 748.514 887.243 752.991 890.05C753.533 890.39 753.034 891.32 752.492 890.98C744.702 886.096 741.818 875.738 735.188 869.441C732.094 866.503 728.196 864.598 724.107 865.547C720.532 866.378 717.482 868.859 714.373 870.875C711.21 873.052 707.623 874.323 703.924 874.576C700.035 874.661 696.162 874 692.47 872.62C684.114 869.663 676.223 865.242 669.085 859.521C660.906 853.042 653.771 845.033 647.987 835.84C647.629 835.271 648.478 834.756 648.834 835.321V835.321Z" fill="white" id="id_726"></path>
<path d="M685.668 869.3C684.298 872.392 681.998 874.834 679.18 876.19C676.361 877.546 673.207 877.728 670.28 876.703C669.688 876.493 669.949 875.447 670.542 875.657C673.265 876.617 676.204 876.447 678.826 875.178C681.449 873.909 683.583 871.625 684.843 868.738C685.117 868.111 685.94 868.677 685.668 869.3V869.3Z" fill="white" id="id_727"></path>
<path d="M712.055 871.411C710.125 864.69 706.02 859.036 700.559 855.576C700.017 855.234 700.517 854.305 701.057 854.647C706.735 858.258 710.997 864.152 712.991 871.151C713.181 871.818 712.244 872.074 712.055 871.411Z" fill="white" id="id_728"></path>
<path d="M661.996 852.289C662.747 851.217 663.25 849.952 663.46 848.607C663.67 847.262 663.581 845.879 663.2 844.582C663.003 843.918 663.94 843.663 664.136 844.323C664.551 845.757 664.648 847.285 664.419 848.771C664.189 850.258 663.641 851.659 662.82 852.851C662.751 852.971 662.645 853.057 662.522 853.091C662.399 853.125 662.269 853.105 662.159 853.035C662.05 852.96 661.972 852.839 661.941 852.7C661.911 852.56 661.93 852.412 661.996 852.289V852.289Z" fill="white" id="id_729"></path>
<path d="M711.942 828.204C709.198 829.743 706.058 830.131 703.084 829.3C700.109 828.469 697.494 826.473 695.704 823.667C695.343 823.098 696.11 822.44 696.471 823.01C698.134 825.625 700.57 827.485 703.342 828.252C706.113 829.02 709.036 828.645 711.584 827.195C712.138 826.881 712.493 827.892 711.942 828.204Z" fill="white" id="id_730"></path>
<path d="M731.885 847.804C733.933 841.128 733.674 833.827 731.16 827.356C730.91 826.715 731.805 826.312 732.054 826.952C734.659 833.691 734.915 841.29 732.771 848.232C732.566 848.894 731.682 848.462 731.885 847.804Z" fill="white" id="id_731"></path>
<path d="M702.125 798.548C703.296 798.202 704.373 797.534 705.259 796.602C706.145 795.671 706.813 794.506 707.201 793.213C707.398 792.548 708.282 792.981 708.087 793.641C707.652 795.068 706.914 796.353 705.937 797.385C704.96 798.416 703.774 799.162 702.482 799.557C702.364 799.606 702.233 799.602 702.116 799.545C702 799.489 701.907 799.385 701.856 799.254C701.809 799.121 701.811 798.971 701.861 798.839C701.912 798.707 702.006 798.602 702.124 798.548H702.125Z" fill="white" id="id_732"></path>
<path d="M1345.1 829.343C1336.52 847.315 1323.14 861.783 1306.85 870.691C1303.38 872.679 1299.65 874.036 1295.79 874.714C1292.03 875.237 1288.2 874.612 1284.72 872.905C1281.44 871.386 1278.25 869.405 1274.7 868.811C1272.88 868.537 1271.03 868.7 1269.27 869.289C1267.51 869.878 1265.88 870.88 1264.49 872.229C1260.94 875.489 1258.65 879.991 1256.54 884.481C1254.19 889.467 1251.83 894.688 1247.69 898.094C1247.19 898.507 1247.79 899.36 1248.29 898.948C1255.49 893.022 1257.22 882.342 1263.12 875.174C1265.87 871.829 1269.53 869.398 1273.69 869.774C1277.33 870.102 1280.62 872.142 1283.93 873.712C1287.31 875.434 1291 876.197 1294.7 875.936C1298.57 875.482 1302.34 874.288 1305.86 872.407C1313.83 868.314 1321.18 862.833 1327.64 856.166C1335.05 848.602 1341.26 839.665 1345.99 829.74C1346.29 829.126 1345.39 828.732 1345.1 829.343Z" fill="white" id="id_733"></path>
<path d="M1312.25 868.17C1313.94 871.049 1316.49 873.153 1319.44 874.108C1322.38 875.063 1325.53 874.806 1328.32 873.384C1328.89 873.094 1328.51 872.092 1327.95 872.382C1325.35 873.712 1322.42 873.951 1319.68 873.055C1316.93 872.159 1314.57 870.188 1313 867.498C1312.66 866.913 1311.91 867.589 1312.25 868.17Z" fill="white" id="id_734"></path>
<path d="M1286.29 873.92C1287.47 866.983 1290.93 860.803 1295.97 856.613C1296.47 856.198 1295.87 855.345 1295.38 855.759C1290.13 860.131 1286.55 866.57 1285.33 873.792C1285.22 874.481 1286.17 874.605 1286.29 873.92H1286.29Z" fill="white" id="id_735"></path>
<path d="M1333.88 848.006C1333.02 847.047 1332.38 845.861 1332.03 844.555C1331.67 843.249 1331.61 841.864 1331.85 840.525C1331.97 839.838 1331.01 839.715 1330.89 840.397C1330.64 841.878 1330.71 843.407 1331.1 844.851C1331.49 846.295 1332.18 847.609 1333.13 848.679C1333.21 848.788 1333.32 848.858 1333.45 848.875C1333.57 848.892 1333.7 848.854 1333.8 848.769C1333.9 848.68 1333.97 848.549 1333.98 848.406C1334 848.263 1333.96 848.12 1333.88 848.006H1333.88Z" fill="white" id="id_736"></path>
<path d="M1287.19 777.721C1289.94 797.895 1286.98 818.532 1278.73 836.701C1277.02 840.648 1274.76 844.265 1272.05 847.42C1269.32 850.398 1265.93 852.496 1262.24 853.497C1258.81 854.509 1255.2 855.097 1252.05 857.03C1250.45 858.047 1249.06 859.433 1247.97 861.098C1246.88 862.763 1246.12 864.669 1245.73 866.691C1244.64 871.702 1245.21 876.855 1245.92 881.873C1246.71 887.444 1247.61 893.217 1246.13 898.746C1245.95 899.416 1246.88 899.692 1247.06 899.023C1249.64 889.404 1245.32 879.7 1246.2 869.975C1246.61 865.437 1248.24 861.011 1251.76 858.485C1254.84 856.277 1258.56 855.667 1262.04 854.677C1265.65 853.759 1269.02 851.858 1271.83 849.138C1274.68 846.149 1277.05 842.635 1278.85 838.747C1283.03 830.068 1285.97 820.702 1287.57 810.992C1289.45 799.922 1289.63 788.571 1288.12 777.43C1288.02 776.74 1287.1 777.036 1287.19 777.721Z" fill="white" id="id_737"></path>
<path d="M1281.69 831.026C1284.58 832.173 1287.74 832.123 1290.6 830.886C1293.46 829.649 1295.84 827.305 1297.31 824.273C1297.61 823.658 1296.77 823.111 1296.48 823.727C1295.11 826.553 1292.9 828.736 1290.23 829.882C1287.56 831.028 1284.62 831.061 1281.94 829.975C1281.35 829.74 1281.11 830.793 1281.69 831.026Z" fill="white" id="id_738"></path>
<path d="M1264.04 853.243C1261.28 846.901 1260.74 839.619 1262.53 832.849C1262.7 832.179 1261.77 831.903 1261.59 832.573C1259.74 839.621 1260.32 847.198 1263.2 853.791C1263.48 854.419 1264.31 853.868 1264.04 853.243Z" fill="white" id="id_739"></path>
<path d="M1288.2 800.235C1287 800.054 1285.86 799.54 1284.88 798.739C1283.9 797.937 1283.11 796.874 1282.58 795.644C1282.31 795.012 1281.48 795.564 1281.75 796.191C1282.34 797.547 1283.21 798.721 1284.29 799.609C1285.37 800.497 1286.63 801.073 1287.96 801.286C1288.08 801.318 1288.21 801.296 1288.32 801.224C1288.43 801.152 1288.51 801.036 1288.54 800.899C1288.58 800.76 1288.56 800.612 1288.49 800.487C1288.43 800.363 1288.32 800.272 1288.2 800.235V800.235Z" fill="white" id="id_740"></path>
<path d="M1243.63 543.013H1231.37C1231.13 543.014 1230.9 543.123 1230.73 543.314C1230.56 543.505 1230.47 543.764 1230.47 544.035C1230.46 544.189 1230.5 544.341 1230.56 544.476C1230.64 544.649 1230.75 544.796 1230.89 544.899C1231.04 545.002 1231.2 545.057 1231.37 545.057H1243.63C1243.81 545.058 1243.97 545.004 1244.12 544.901C1244.27 544.798 1244.38 544.651 1244.46 544.476C1244.51 544.339 1244.54 544.187 1244.54 544.035C1244.54 543.901 1244.52 543.768 1244.47 543.644C1244.43 543.52 1244.36 543.407 1244.28 543.312C1244.19 543.217 1244.09 543.142 1243.98 543.09C1243.87 543.039 1243.75 543.013 1243.63 543.013Z" fill="white" id="id_741"></path>
<path d="M736.22 540.716C737.77 540.716 739.025 539.3 739.025 537.553C739.025 535.806 737.77 534.39 736.22 534.39C734.671 534.39 733.415 535.806 733.415 537.553C733.415 539.3 734.671 540.716 736.22 540.716Z" fill="white" id="id_742"></path>
<path d="M746.867 540.716C748.416 540.716 749.672 539.3 749.672 537.553C749.672 535.806 748.416 534.39 746.867 534.39C745.318 534.39 744.062 535.806 744.062 537.553C744.062 539.3 745.318 540.716 746.867 540.716Z" fill="white" id="id_743"></path>
<path d="M757.515 540.716C759.064 540.716 760.319 539.3 760.319 537.553C760.319 535.806 759.064 534.39 757.515 534.39C755.965 534.39 754.71 535.806 754.71 537.553C754.71 539.3 755.965 540.716 757.515 540.716Z" fill="white" id="id_744"></path>
<path d="M915.61 676.297C917.159 676.297 918.415 674.881 918.415 673.134C918.415 671.387 917.159 669.971 915.61 669.971C914.061 669.971 912.805 671.387 912.805 673.134C912.805 674.881 914.061 676.297 915.61 676.297Z" fill="white" id="id_745"></path>
<path d="M926.257 676.297C927.806 676.297 929.062 674.881 929.062 673.134C929.062 671.387 927.806 669.971 926.257 669.971C924.707 669.971 923.452 671.387 923.452 673.134C923.452 674.881 924.707 676.297 926.257 676.297Z" fill="white" id="id_746"></path>
<path d="M936.904 676.297C938.453 676.297 939.709 674.881 939.709 673.134C939.709 671.387 938.453 669.971 936.904 669.971C935.355 669.971 934.099 671.387 934.099 673.134C934.099 674.881 935.355 676.297 936.904 676.297Z" fill="white" id="id_747"></path>
<g clip-path="url(#clip1_25_420)">
<path d="M1216.84 1226.97L1191.17 1226.97L1178.95 1124.9L1216.85 1124.91L1216.84 1226.97Z" fill="#FFB6B6" id="id_748"></path>
<path d="M1217.75 1254.58L1138.79 1254.57V1253.54C1138.8 1236.05 1152.55 1221.87 1169.52 1221.87H1169.53L1183.95 1210.6L1210.86 1221.87L1217.75 1221.87L1217.75 1254.58V1254.58Z" fill="#2F2E41" id="id_749"></path>
<path d="M1103.02 1226.97L1077.35 1226.97L1065.13 1124.9L1103.03 1124.91L1103.02 1226.97Z" fill="#FFB6B6" id="id_750"></path>
<path d="M1103.92 1254.58L1024.97 1254.57V1253.54C1024.97 1236.05 1038.73 1221.87 1055.7 1221.87H1055.7L1070.13 1210.6L1097.03 1221.87L1103.93 1221.87L1103.92 1254.58V1254.58Z" fill="#2F2E41" id="id_751"></path>
<path d="M1090.79 657.362L1238.91 660.576C1238.91 660.576 1265.54 705.573 1245.21 769.05L1247.49 786.727L1238.13 814.046L1233.45 897.611L1238.13 910.467L1235.01 934.573C1235.01 934.573 1247.49 1093.67 1216.3 1174.02L1178.88 1172.41L1164.85 962.771L1172.64 947.429L1171.09 941.001L1152.37 844.58L1133.66 894.397V922.077L1116.51 942.608C1116.51 942.608 1122.75 1132.24 1105.6 1170.8H1063.7L1047.91 913.682L1063.5 764.229L1060.38 754.587L1065.06 749.766L1061.94 733.696L1090.79 657.362L1090.79 657.362V657.362Z" fill="#2F2E41" id="id_752"></path>
<path d="M1153.93 364.082L1199.15 352.833L1211.62 383.366C1211.62 383.366 1276.16 418.721 1279.28 466.931C1279.28 466.931 1288.03 505.5 1280.23 523.177C1272.43 540.854 1239.69 597.1 1239.69 597.1C1239.69 597.1 1269.31 695.128 1261.52 699.949C1253.72 704.77 1068.18 695.128 1068.18 685.486C1068.18 675.843 1099.06 574.601 1099.06 574.601L1105.6 401.044L1147.7 384.973L1153.93 364.082L1153.93 364.082V364.082Z" fill="#3F3D56" id="id_753"></path>
<path d="M1274.48 759.674C1265.02 754.758 1261.21 742.867 1265.98 733.113C1266.46 732.131 1267.02 731.225 1267.63 730.365L1242.47 552.569L1277.3 553.718L1295.53 726.952C1302.13 732.725 1304.32 742.589 1300.25 750.911C1295.48 760.665 1283.94 764.588 1274.48 759.674H1274.48V759.674Z" fill="#FFB6B6" id="id_754"></path>
<path d="M943.959 675.76C940.149 665.568 945.077 654.122 954.965 650.195C955.961 649.799 956.97 649.519 957.98 649.303L1055.18 500.146L1080.24 525.106L980.874 666.08C982.006 674.929 977.202 683.753 968.764 687.104C958.875 691.031 947.77 685.952 943.959 675.76V675.76Z" fill="#FFB6B6" id="id_755"></path>
<path d="M1211.01 507.724C1201.16 472.875 1217.51 437.32 1252.72 437.492C1262.9 437.541 1270.81 440.586 1273 449.012C1280.67 478.504 1284.86 523.022 1284.86 523.022L1293.96 570.421L1288.44 580.263L1299.93 612.027L1294.36 627.054L1293.16 703.795L1265.09 702.188L1234.17 643.685L1222.34 636.439C1222.34 636.439 1231.84 541.849 1212.95 514.615L1211.01 507.724H1211.01V507.724Z" fill="#3F3D56" id="id_756"></path>
<path d="M1085.29 421.96C1101.7 389.847 1143.72 382.24 1168.93 407.579C1176.22 414.902 1179.86 422.754 1175.75 430.384C1161.39 457.09 1128.1 485.843 1128.1 485.843L1087.1 553.771L1076.51 556.903L1063.36 587.978L1035.19 622.115L997.876 642.396L976.047 619.898L980.683 590.977L1036.86 513.835C1036.86 513.835 1077.27 461.422 1082.05 428.31L1085.29 421.96V421.96V421.96Z" fill="#3F3D56" id="id_757"></path>
<path d="M1162.53 354.69C1163.56 354.817 1164.59 354.914 1165.61 354.962C1168.8 355.142 1171.95 354.955 1174.98 354.424C1184.2 352.901 1192.57 348.401 1199.04 341.802C1205.87 334.838 1210.54 325.543 1211.81 314.962C1214.77 289.985 1197.51 267.234 1173.28 264.182C1149.39 261.156 1127.62 278.375 1124.15 302.778C1124.09 303.155 1124.03 303.517 1124 303.893C1121.04 328.886 1138.28 351.623 1162.53 354.69V354.69V354.69Z" fill="#FFB6B6" id="id_758"></path>
<path d="M1114.18 301.106C1120.46 304.306 1130.72 294.247 1134.64 300.034C1135.28 298.783 1135.99 297.574 1136.68 296.43C1137.31 295.406 1138.21 293.222 1139.26 292.847C1137.94 296.129 1138.23 300.574 1139.6 304.382C1145.79 306.767 1153.9 301.488 1159.63 295.245C1168.63 285.455 1183.32 310.559 1179.85 323.551C1184.27 317.986 1193.86 321.125 1197.12 327.488C1200.37 333.836 1194.87 338.921 1193.7 346.002L1202.56 344.841C1208.16 339.227 1207.77 329.767 1212.37 323.26C1220.06 312.37 1223.05 301.259 1217.26 290.02C1212.13 280.083 1211.65 267.222 1202.24 261.493C1206.35 259.421 1191.73 262.658 1195.64 255.905C1199.56 249.167 1178.65 248.349 1177.29 251.959C1171.31 244.588 1165.28 239.729 1157.93 245.635C1150.71 251.445 1151.46 257.553 1142.98 257.006C1139 256.752 1139.44 264.397 1137.08 267.73C1134.72 271.045 1125.58 273.173 1125.14 272.819C1122.73 270.872 1114.51 287.444 1114.51 287.444C1114.51 287.444 1107.85 297.864 1114.18 301.106H1114.18V301.106Z" fill="#2F2E41" id="id_759"></path>
<path d="M560.908 590.353C709.444 590.353 829.857 714.458 829.857 867.549C829.857 1020.64 709.444 1144.75 560.908 1144.75C412.372 1144.75 206.803 992.961 291.959 867.549C377.115 742.137 412.372 590.353 560.908 590.353V590.353Z" fill="#F2F2F2" id="id_760"></path>
<path d="M920.876 603.539C918.465 603.539 916.503 605.561 916.503 608.046V752.279C916.503 754.764 918.465 756.786 920.876 756.786C923.288 756.786 925.25 754.764 925.25 752.279V608.046C925.25 605.561 923.288 603.539 920.876 603.539Z" fill="#3F3D56" id="id_761"></path>
<path d="M186.187 495.365C183.775 495.365 181.814 497.387 181.814 499.872V535.931C181.814 538.416 183.775 540.438 186.187 540.438C188.599 540.438 190.56 538.416 190.56 535.931V499.872C190.56 497.387 188.599 495.365 186.187 495.365Z" fill="#3F3D56" id="id_762"></path>
<path d="M186.187 603.539C183.775 603.539 181.814 605.561 181.814 608.046V677.909C181.814 680.395 183.775 682.416 186.187 682.416C188.599 682.416 190.56 680.395 190.56 677.909V608.046C190.56 605.561 188.599 603.539 186.187 603.539Z" fill="#3F3D56" id="id_763"></path>
<path d="M186.187 702.699C183.775 702.699 181.814 704.721 181.814 707.206V777.069C181.814 779.555 183.775 781.576 186.187 781.576C188.599 781.576 190.56 779.555 190.56 777.069V707.206C190.56 704.721 188.599 702.699 186.187 702.699Z" fill="#3F3D56" id="id_764"></path>
<path d="M578.401 353.387C575.989 353.387 574.028 355.408 574.028 357.894V427.757C574.028 430.242 575.989 432.264 578.401 432.264C580.813 432.264 582.774 430.242 582.774 427.757V357.894C582.774 355.408 580.813 353.387 578.401 353.387V353.387Z" fill="#3F3D56" id="id_765"></path>
<path d="M1209.04 1240.19C1213.56 1240.48 1216.06 1234.69 1212.64 1231.32L1212.3 1229.93C1212.35 1229.82 1212.39 1229.71 1212.44 1229.59C1217 1218.37 1232.49 1218.44 1237.02 1229.69C1241.04 1239.67 1246.15 1249.66 1247.42 1260.22C1247.98 1264.87 1247.73 1269.62 1246.72 1274.19C1256.14 1252.98 1261.1 1229.82 1261.1 1206.53C1261.1 1200.68 1260.79 1194.83 1260.15 1188.99C1259.63 1184.22 1258.91 1179.47 1257.98 1174.77C1252.94 1149.36 1242.02 1125.15 1226.27 1104.93C1218.7 1100.67 1212.39 1094 1208.58 1086.01C1207.21 1083.13 1206.13 1080.03 1205.63 1076.87C1206.49 1076.99 1208.87 1063.46 1208.22 1062.63C1209.42 1060.76 1211.57 1059.82 1212.88 1057.99C1219.41 1048.88 1228.39 1050.47 1233.08 1062.85C1243.1 1068.06 1243.2 1076.71 1237.05 1085.02C1233.14 1090.31 1232.6 1097.47 1229.17 1103.13C1229.52 1103.59 1229.89 1104.05 1230.24 1104.51C1236.72 1113.07 1242.32 1122.27 1247.04 1131.94C1245.7 1121.19 1247.67 1108.25 1251.03 1099.91C1254.85 1090.41 1262.02 1082.4 1268.33 1074.19C1275.91 1064.32 1291.45 1068.62 1292.78 1081.14C1292.8 1081.26 1292.81 1081.38 1292.82 1081.5C1291.88 1082.04 1290.96 1082.62 1290.07 1083.23C1284.95 1086.72 1286.72 1094.89 1292.78 1095.86L1292.92 1095.88C1292.58 1099.36 1292 1102.81 1291.15 1106.2C1299.25 1138.46 1281.77 1150.21 1256.82 1150.74C1256.27 1151.03 1255.73 1151.32 1255.18 1151.6C1257.71 1158.94 1259.73 1166.46 1261.23 1174.09C1262.57 1180.83 1263.5 1187.64 1264.02 1194.48C1264.67 1203.11 1264.62 1211.79 1263.91 1220.41L1263.95 1220.1C1265.75 1210.61 1270.75 1201.75 1278.01 1195.6C1288.82 1186.45 1304.1 1183.08 1315.76 1175.72C1321.38 1172.17 1328.58 1176.75 1327.6 1183.46L1327.55 1183.78C1325.81 1184.51 1324.12 1185.36 1322.48 1186.3C1321.54 1186.85 1320.62 1187.43 1319.73 1188.04C1314.61 1191.52 1316.38 1199.7 1322.44 1200.66L1322.58 1200.68C1322.68 1200.7 1322.76 1200.71 1322.86 1200.73C1319.88 1208.02 1315.73 1214.79 1310.53 1220.62C1305.47 1248.79 1283.73 1251.46 1260.48 1243.26H1260.46C1257.92 1254.67 1254.21 1265.82 1249.43 1276.45H1210.03C1209.89 1275.99 1209.76 1275.53 1209.64 1275.08C1213.28 1275.31 1216.95 1275.09 1220.54 1274.41C1217.62 1270.71 1214.69 1266.98 1211.77 1263.29C1211.7 1263.21 1211.64 1263.14 1211.59 1263.07C1210.1 1261.18 1208.61 1259.3 1207.12 1257.41L1207.12 1257.4C1207.03 1251.6 1207.7 1245.81 1209.04 1240.19L1209.04 1240.19L1209.04 1240.19H1209.04Z" fill="black" id="id_766"></path>
<path d="M443.316 848.865H291.959V844.357H443.316C456.464 844.357 467.161 833.331 467.161 819.779V714.303H471.534V819.779C471.534 835.816 458.876 848.865 443.316 848.865H443.316Z" fill="#FF8563" id="id_767"></path>
<path d="M732.117 1077.51H387.871V1082.01H732.117V1077.51Z" fill="#FF8563" id="id_768"></path>
<path d="M950.529 818.726H766.656C756.733 818.726 748.661 810.406 748.661 800.179V612.979C748.661 602.752 756.733 594.432 766.656 594.432H950.529C960.452 594.432 968.524 602.752 968.524 612.979V800.179C968.524 810.406 960.452 818.726 950.529 818.726Z" fill="#E6E6E6" id="id_769"></path>
<path d="M800.899 599.958C775.01 599.958 754.022 621.589 754.022 648.272V796.207C754.022 805.592 761.404 813.2 770.509 813.2H882.943C927.247 813.2 963.162 776.183 963.162 730.521V616.951C963.162 607.566 955.781 599.958 946.675 599.958H800.899V599.958V599.958Z" fill="white" id="id_770"></path>
<path d="M907.839 654.359H808.961C807.074 654.359 805.539 652.777 805.539 650.833C805.539 648.889 807.074 647.308 808.961 647.308H907.839C909.725 647.308 911.259 648.889 911.259 650.833C911.259 652.777 909.725 654.359 907.839 654.359Z" fill="#E6E6E6" id="id_771"></path>
<path d="M907.839 729.549H808.961C807.074 729.549 805.539 727.967 805.539 726.023C805.539 724.078 807.074 722.497 808.961 722.497H907.839C909.725 722.497 911.259 724.078 911.259 726.023C911.259 727.967 909.725 729.549 907.839 729.549Z" fill="#E6E6E6" id="id_772"></path>
<path d="M947.991 691.979H768.808C766.922 691.979 765.387 690.397 765.387 688.452C765.387 686.508 766.922 684.927 768.808 684.927H947.991C949.878 684.927 951.412 686.508 951.412 688.452C951.412 690.397 949.878 691.979 947.991 691.979V691.979Z" fill="#E6E6E6" id="id_773"></path>
<path d="M949.821 760.12H885.09C883.204 760.12 881.669 758.538 881.669 756.594C881.669 754.65 883.204 753.068 885.09 753.068H949.821C951.707 753.068 953.242 754.65 953.242 756.594C953.242 758.538 951.707 760.12 949.821 760.12Z" fill="#E6E6E6" id="id_774"></path>
<path d="M564.31 1191.71H418.303C410.423 1191.71 404.013 1185.1 404.013 1176.98V1028.33C404.013 1020.21 410.423 1013.61 418.303 1013.61H564.311C572.19 1013.61 578.6 1020.21 578.6 1028.33V1176.98C578.6 1185.1 572.19 1191.71 564.311 1191.71H564.31V1191.71Z" fill="#E6E6E6" id="id_775"></path>
<path d="M445.494 1017.99C424.936 1017.99 408.271 1035.17 408.271 1056.36V1173.83C408.271 1181.28 414.132 1187.32 421.363 1187.32H510.643C545.823 1187.32 574.342 1157.93 574.342 1121.67V1031.49C574.342 1024.04 568.481 1017.99 561.25 1017.99H445.494L445.494 1017.99H445.494Z" fill="white" id="id_776"></path>
<path d="M530.412 1061.19H451.896C450.398 1061.19 449.179 1059.94 449.179 1058.39C449.179 1056.85 450.398 1055.59 451.896 1055.59H530.412C531.91 1055.59 533.128 1056.85 533.128 1058.39C533.128 1059.94 531.91 1061.19 530.412 1061.19Z" fill="#E6E6E6" id="id_777"></path>
<path d="M530.412 1120.9H451.896C450.398 1120.9 449.179 1119.64 449.179 1118.1C449.179 1116.55 450.398 1115.3 451.896 1115.3H530.412C531.91 1115.3 533.128 1116.55 533.128 1118.1C533.128 1119.64 531.91 1120.9 530.412 1120.9Z" fill="#E6E6E6" id="id_778"></path>
<path d="M562.295 1091.06H420.012C418.514 1091.06 417.295 1089.81 417.295 1088.26C417.295 1086.72 418.514 1085.46 420.012 1085.46H562.295C563.793 1085.46 565.012 1086.72 565.012 1088.26C565.012 1089.81 563.793 1091.06 562.295 1091.06Z" fill="#E6E6E6" id="id_779"></path>
<path d="M563.748 1145.17H512.348C510.85 1145.17 509.631 1143.92 509.631 1142.37C509.631 1140.83 510.85 1139.57 512.348 1139.57H563.748C565.246 1139.57 566.464 1140.83 566.464 1142.37C566.464 1143.92 565.246 1145.17 563.748 1145.17Z" fill="#E6E6E6" id="id_780"></path>
<path d="M462.26 713.165H354.281C348.454 713.165 343.714 708.279 343.714 702.273V592.34C343.714 586.334 348.454 581.448 354.281 581.448H462.26C468.087 581.448 472.828 586.334 472.828 592.34V702.273C472.828 708.279 468.087 713.165 462.26 713.165V713.165V713.165Z" fill="#E6E6E6" id="id_781"></path>
<path d="M374.39 584.693C359.187 584.693 346.862 597.396 346.862 613.066V699.94C346.862 705.452 351.197 709.919 356.544 709.919H422.571C448.588 709.919 469.679 688.181 469.679 661.366V594.672C469.679 589.161 465.345 584.693 459.997 584.693H374.39V584.693L374.39 584.693Z" fill="white" id="id_782"></path>
<path d="M437.191 616.64H379.125C378.017 616.64 377.116 615.711 377.116 614.569C377.116 613.428 378.017 612.499 379.125 612.499H437.191C438.299 612.499 439.2 613.428 439.2 614.569C439.2 615.711 438.299 616.64 437.191 616.64Z" fill="#E6E6E6" id="id_783"></path>
<path d="M437.191 660.794H379.125C378.017 660.794 377.116 659.865 377.116 658.724C377.116 657.582 378.017 656.653 379.125 656.653H437.191C438.299 656.653 439.2 657.582 439.2 658.724C439.2 659.865 438.299 660.794 437.191 660.794Z" fill="#E6E6E6" id="id_784"></path>
<path d="M460.77 638.732H355.545C354.438 638.732 353.536 637.803 353.536 636.661C353.536 635.519 354.438 634.591 355.545 634.591H460.77C461.878 634.591 462.779 635.519 462.779 636.661C462.779 637.803 461.878 638.732 460.77 638.732Z" fill="#E6E6E6" id="id_785"></path>
<path d="M461.845 678.749H423.832C422.724 678.749 421.823 677.82 421.823 676.678C421.823 675.536 422.724 674.607 423.832 674.607H461.845C462.952 674.607 463.853 675.536 463.853 676.678C463.853 677.82 462.952 678.749 461.845 678.749Z" fill="#E6E6E6" id="id_786"></path>
<path d="M777.379 851.774C789.455 851.774 799.245 841.684 799.245 829.237C799.245 816.791 789.455 806.701 777.379 806.701C765.303 806.701 755.513 816.791 755.513 829.237C755.513 841.684 765.303 851.774 777.379 851.774Z" fill="#FF8563" id="id_787"></path>
<path d="M469.072 736.839C481.148 736.839 490.938 726.749 490.938 714.303C490.938 701.856 481.148 691.767 469.072 691.767C456.996 691.767 447.206 701.856 447.206 714.303C447.206 726.749 456.996 736.839 469.072 736.839Z" fill="#FF8563" id="id_788"></path>
<path d="M574.028 1045.59C586.104 1045.59 595.893 1035.5 595.893 1023.05C595.893 1010.6 586.104 1000.51 574.028 1000.51C561.951 1000.51 552.162 1010.6 552.162 1023.05C552.162 1035.5 561.951 1045.59 574.028 1045.59Z" fill="#FF8563" id="id_789"></path>
<path d="M621.26 420.706C636.311 420.706 648.512 408.395 648.512 393.21C648.512 378.024 636.311 365.714 621.26 365.714C606.209 365.714 594.008 378.024 594.008 393.21C594.008 408.395 606.209 420.706 621.26 420.706Z" fill="#FB5132" id="id_790"></path>
<path d="M839.727 383.803H693.041C688.008 383.803 683.914 379.583 683.914 374.397C683.914 369.21 688.008 364.99 693.041 364.99H839.727C844.759 364.99 848.854 369.21 848.854 374.397C848.854 379.583 844.759 383.803 839.727 383.803V383.803Z" fill="#FB5132" id="id_791"></path>
<path d="M954.201 415.64H693.041C688.008 415.64 683.914 411.42 683.914 406.234C683.914 401.047 688.008 396.827 693.041 396.827H954.201C959.234 396.827 963.328 401.047 963.328 406.234C963.328 411.42 959.234 415.64 954.201 415.64Z" fill="#FB5132" id="id_792"></path>
<path d="M226.808 536.267C236.549 536.267 244.445 528.299 244.445 518.472C244.445 508.644 236.549 500.677 226.808 500.677C217.067 500.677 209.171 508.644 209.171 518.472C209.171 528.299 217.067 536.267 226.808 536.267Z" fill="#F2F2F2" id="id_793"></path>
<path d="M368.197 512.383H273.263C270.007 512.383 267.357 509.652 267.357 506.296C267.357 502.939 270.007 500.208 273.263 500.208H368.197C371.453 500.208 374.103 502.939 374.103 506.296C374.103 509.652 371.453 512.383 368.197 512.383H368.197Z" fill="#F2F2F2" id="id_794"></path>
<path d="M442.283 532.988H273.263C270.007 532.988 267.357 530.257 267.357 526.9C267.357 523.544 270.007 520.812 273.263 520.812H442.283C445.54 520.812 448.189 523.544 448.189 526.9C448.189 530.257 445.539 532.988 442.283 532.988Z" fill="#F2F2F2" id="id_795"></path>
<path d="M755.959 1169.54C765.7 1169.54 773.596 1161.57 773.596 1151.74C773.596 1141.91 765.7 1133.95 755.959 1133.95C746.218 1133.95 738.322 1141.91 738.322 1151.74C738.322 1161.57 746.218 1169.54 755.959 1169.54Z" fill="#FB5132" id="id_796"></path>
<path d="M897.348 1145.65H802.414C799.158 1145.65 796.508 1142.92 796.508 1139.57C796.508 1136.21 799.158 1133.48 802.414 1133.48H897.348C900.604 1133.48 903.254 1136.21 903.254 1139.57C903.254 1142.92 900.604 1145.65 897.348 1145.65V1145.65Z" fill="#FB5132" id="id_797"></path>
<path d="M971.434 1166.26H802.414C799.158 1166.26 796.508 1163.53 796.508 1160.17C796.508 1156.82 799.158 1154.08 802.414 1154.08H971.434C974.691 1154.08 977.34 1156.82 977.34 1160.17C977.34 1163.53 974.691 1166.26 971.434 1166.26V1166.26Z" fill="#FB5132" id="id_798"></path>
<path d="M543.962 594.5H539.589V808.595H543.962V594.5Z" fill="#E6E6E6" id="id_799"></path>
<path d="M541.775 822.116C549.021 822.116 554.895 816.062 554.895 808.594C554.895 801.126 549.021 795.072 541.775 795.072C534.53 795.072 528.656 801.126 528.656 808.594C528.656 816.062 534.53 822.116 541.775 822.116Z" fill="#E6E6E6" id="id_800"></path>
<path d="M740.754 977.616C747.999 977.616 753.873 971.562 753.873 964.094C753.873 956.626 747.999 950.572 740.754 950.572C733.508 950.572 727.634 956.626 727.634 964.094C727.634 971.562 733.508 977.616 740.754 977.616Z" fill="#E6E6E6" id="id_801"></path>
<path d="M386.529 792.819C393.774 792.819 399.648 786.765 399.648 779.297C399.648 771.829 393.774 765.775 386.529 765.775C379.283 765.775 373.409 771.829 373.409 779.297C373.409 786.765 379.283 792.819 386.529 792.819Z" fill="#E6E6E6" id="id_802"></path>
<path d="M381.68 779.318L309.932 781.557L310.065 786.064L381.812 783.825L381.68 779.318Z" fill="#E6E6E6" id="id_803"></path>
<path d="M847.483 1015.86H738.688V964.096H743.061V1011.35H847.483V1015.86Z" fill="#E6E6E6" id="id_804"></path>
<path d="M381.143 940.465C388.389 940.465 394.263 934.412 394.263 926.944C394.263 919.476 388.389 913.422 381.143 913.422C373.898 913.422 368.024 919.476 368.024 926.944C368.024 934.412 373.898 940.465 381.143 940.465Z" fill="#E6E6E6" id="id_805"></path>
<path d="M486.577 978.709H377.782V926.943H382.155V974.201H486.577V978.709Z" fill="#E6E6E6" id="id_806"></path>
<path d="M819.47 875.492H296.917V879.999H819.47V875.492Z" fill="#E6E6E6" id="id_807"></path>
<path d="M430.992 397.336H289.482C285.372 397.336 281.997 393.964 281.837 389.714C281.827 389.611 281.823 389.507 281.825 389.403C281.83 385.024 285.253 381.476 289.482 381.47H430.992C435.221 381.47 438.65 385.022 438.65 389.403C438.65 393.784 435.222 397.336 430.992 397.336Z" fill="#FF7263" id="id_808"></path>
<path d="M497.448 414.645H290.237C284.219 414.645 279.277 419.549 279.042 425.731C279.027 425.881 279.021 426.032 279.025 426.184C279.033 432.553 284.044 437.714 290.237 437.723H497.448C503.641 437.723 508.661 432.556 508.661 426.184C508.661 419.811 503.641 414.645 497.448 414.645Z" fill="#FF7263" id="id_809"></path>
<path d="M215.313 447.82C233.487 447.82 248.219 436.822 248.219 410.97C248.219 385.118 233.487 364.161 215.313 364.161C197.14 364.161 182.408 385.118 182.408 410.97C182.408 436.822 197.14 447.82 215.313 447.82Z" fill="#FF7263" id="id_810"></path>
<circle cx="1137.5" cy="323.5" r="5.5" fill="#2F2E41" id="id_811"></circle>
</g>
</g>
<defs>
<clipPath id="clip0_25_420">
<rect width="1500" height="1500" fill="white" id="id_812"></rect>
</clipPath>
<clipPath id="clip1_25_420">
<rect width="1235" height="1014" fill="white" transform="translate(132 243)" id="id_813"></rect>
</clipPath>
</defs>
</svg>