<svg width="1500" height="1500" viewBox="0 0 1500 1500" fill="none" xmlns="http://www.w3.org/2000/svg">
<g clip-path="url(#clip0_16_35)">
<path d="M648.834 835.321C659.306 851.968 674.163 864.471 691.295 871.054C694.96 872.545 698.812 873.375 702.707 873.514C706.505 873.51 710.233 872.36 713.504 870.183C716.589 868.222 719.544 865.812 722.999 864.731C724.775 864.207 726.629 864.113 728.439 864.454C730.249 864.794 731.976 865.563 733.504 866.709C737.379 869.452 740.148 873.602 742.731 877.766C745.599 882.389 748.514 887.243 752.991 890.05C753.533 890.39 753.034 891.319 752.492 890.979C744.702 886.096 741.818 875.738 735.188 869.441C732.094 866.502 728.196 864.598 724.107 865.547C720.532 866.377 717.483 868.858 714.373 870.875C711.21 873.052 707.623 874.322 703.924 874.575C700.035 874.661 696.162 873.999 692.47 872.619C684.114 869.662 676.223 865.242 669.085 859.52C660.906 853.041 653.771 845.032 647.987 835.84C647.629 835.27 648.479 834.755 648.834 835.321V835.321Z" fill="white" id="id_101"></path>
<path d="M685.668 869.3C684.298 872.392 681.998 874.834 679.18 876.19C676.361 877.546 673.207 877.728 670.28 876.703C669.688 876.493 669.949 875.447 670.542 875.657C673.265 876.617 676.204 876.447 678.826 875.178C681.449 873.909 683.583 871.625 684.843 868.738C685.118 868.111 685.941 868.677 685.668 869.3V869.3Z" fill="white" id="id_102"></path>
<path d="M712.055 871.41C710.125 864.689 706.02 859.035 700.558 855.575C700.017 855.233 700.517 854.304 701.057 854.646C706.735 858.257 710.996 864.151 712.991 871.15C713.18 871.817 712.244 872.073 712.055 871.41Z" fill="white" id="id_103"></path>
<path d="M661.996 852.288C662.747 851.217 663.25 849.952 663.46 848.606C663.671 847.261 663.581 845.878 663.2 844.582C663.003 843.918 663.94 843.662 664.136 844.322C664.551 845.757 664.648 847.284 664.419 848.771C664.189 850.258 663.641 851.658 662.82 852.851C662.752 852.971 662.645 853.056 662.522 853.09C662.399 853.124 662.269 853.104 662.159 853.035C662.05 852.959 661.972 852.839 661.941 852.699C661.911 852.559 661.93 852.412 661.996 852.288V852.288Z" fill="white" id="id_104"></path>
<path d="M711.942 828.203C709.198 829.742 706.059 830.13 703.084 829.299C700.109 828.468 697.494 826.472 695.704 823.666C695.343 823.097 696.111 822.439 696.471 823.009C698.134 825.625 700.571 827.484 703.342 828.251C706.113 829.019 709.037 828.644 711.584 827.194C712.138 826.88 712.493 827.891 711.942 828.203Z" fill="white" id="id_105"></path>
<path d="M731.885 847.803C733.933 841.127 733.674 833.826 731.16 827.355C730.91 826.714 731.805 826.311 732.054 826.951C734.66 833.69 734.915 841.289 732.771 848.231C732.566 848.893 731.682 848.461 731.885 847.803Z" fill="white" id="id_106"></path>
<path d="M702.124 798.549C703.296 798.203 704.373 797.534 705.259 796.603C706.145 795.672 706.812 794.507 707.201 793.213C707.398 792.549 708.282 792.981 708.086 793.641C707.652 795.068 706.914 796.354 705.937 797.385C704.96 798.416 703.774 799.162 702.482 799.558C702.363 799.606 702.232 799.602 702.116 799.546C702 799.49 701.907 799.386 701.856 799.255C701.809 799.121 701.811 798.972 701.861 798.839C701.912 798.707 702.006 798.603 702.124 798.549H702.124Z" fill="white" id="id_107"></path>
<path d="M1345.1 829.342C1336.52 847.315 1323.14 861.782 1306.85 870.69C1303.38 872.678 1299.65 874.036 1295.79 874.713C1292.02 875.236 1288.2 874.612 1284.72 872.904C1281.44 871.385 1278.25 869.404 1274.7 868.81C1272.88 868.536 1271.03 868.699 1269.27 869.289C1267.51 869.878 1265.88 870.88 1264.49 872.229C1260.94 875.488 1258.65 879.99 1256.54 884.481C1254.19 889.467 1251.83 894.688 1247.69 898.094C1247.19 898.506 1247.79 899.359 1248.29 898.947C1255.49 893.021 1257.22 882.342 1263.12 875.173C1265.87 871.828 1269.53 869.398 1273.69 869.773C1277.33 870.101 1280.62 872.141 1283.93 873.711C1287.31 875.433 1291 876.197 1294.7 875.935C1298.57 875.481 1302.34 874.288 1305.86 872.407C1313.83 868.314 1321.18 862.833 1327.64 856.165C1335.05 848.602 1341.26 839.664 1345.99 829.74C1346.29 829.125 1345.39 828.732 1345.1 829.342Z" fill="white" id="id_108"></path>
<path d="M1312.25 868.17C1313.94 871.048 1316.49 873.153 1319.44 874.108C1322.38 875.063 1325.53 874.806 1328.32 873.383C1328.89 873.093 1328.51 872.091 1327.95 872.381C1325.35 873.711 1322.42 873.95 1319.68 873.055C1316.93 872.159 1314.57 870.188 1313 867.497C1312.66 866.913 1311.91 867.589 1312.25 868.17Z" fill="white" id="id_109"></path>
<path d="M1286.29 873.921C1287.47 866.983 1290.93 860.803 1295.97 856.613C1296.47 856.198 1295.87 855.345 1295.38 855.759C1290.13 860.131 1286.55 866.57 1285.33 873.793C1285.22 874.481 1286.17 874.605 1286.29 873.921H1286.29Z" fill="white" id="id_110"></path>
<path d="M1333.88 848.006C1333.02 847.046 1332.38 845.86 1332.03 844.555C1331.67 843.249 1331.61 841.864 1331.85 840.524C1331.97 839.838 1331.01 839.714 1330.89 840.396C1330.64 841.878 1330.71 843.407 1331.1 844.851C1331.48 846.294 1332.18 847.608 1333.13 848.678C1333.21 848.787 1333.32 848.858 1333.45 848.874C1333.57 848.891 1333.7 848.853 1333.8 848.769C1333.9 848.679 1333.97 848.549 1333.98 848.406C1334 848.263 1333.96 848.119 1333.88 848.006H1333.88Z" fill="white" id="id_111"></path>
<path d="M1287.19 777.721C1289.94 797.895 1286.98 818.532 1278.73 836.701C1277.02 840.648 1274.76 844.265 1272.05 847.42C1269.32 850.398 1265.93 852.496 1262.24 853.497C1258.81 854.509 1255.2 855.097 1252.05 857.03C1250.45 858.047 1249.06 859.433 1247.97 861.098C1246.88 862.763 1246.12 864.669 1245.73 866.691C1244.64 871.702 1245.21 876.855 1245.92 881.873C1246.71 887.444 1247.61 893.217 1246.13 898.746C1245.95 899.416 1246.88 899.692 1247.06 899.023C1249.64 889.404 1245.32 879.7 1246.2 869.975C1246.61 865.437 1248.24 861.011 1251.76 858.485C1254.84 856.277 1258.56 855.667 1262.04 854.677C1265.66 853.759 1269.02 851.858 1271.83 849.138C1274.68 846.149 1277.05 842.635 1278.85 838.747C1283.03 830.068 1285.97 820.702 1287.57 810.992C1289.45 799.922 1289.63 788.571 1288.12 777.43C1288.02 776.74 1287.1 777.036 1287.19 777.721Z" fill="white" id="id_112"></path>
<path d="M1281.69 831.026C1284.58 832.173 1287.74 832.123 1290.6 830.886C1293.46 829.649 1295.84 827.305 1297.31 824.273C1297.61 823.658 1296.77 823.111 1296.48 823.727C1295.11 826.553 1292.9 828.736 1290.23 829.882C1287.56 831.028 1284.62 831.061 1281.94 829.975C1281.35 829.74 1281.11 830.793 1281.69 831.026Z" fill="white" id="id_113"></path>
<path d="M1264.04 853.242C1261.28 846.9 1260.74 839.618 1262.53 832.848C1262.7 832.178 1261.77 831.902 1261.59 832.572C1259.74 839.62 1260.32 847.197 1263.2 853.79C1263.48 854.418 1264.31 853.867 1264.04 853.242Z" fill="white" id="id_114"></path>
<path d="M1288.2 800.235C1287 800.054 1285.86 799.54 1284.88 798.739C1283.9 797.937 1283.11 796.874 1282.58 795.644C1282.31 795.012 1281.48 795.564 1281.75 796.191C1282.34 797.547 1283.21 798.721 1284.29 799.609C1285.37 800.497 1286.63 801.073 1287.96 801.286C1288.08 801.318 1288.21 801.296 1288.32 801.224C1288.43 801.152 1288.51 801.036 1288.54 800.899C1288.58 800.76 1288.56 800.612 1288.49 800.487C1288.43 800.363 1288.32 800.272 1288.2 800.235V800.235Z" fill="white" id="id_115"></path>
<path d="M1243.63 543.013H1231.37C1231.13 543.014 1230.9 543.123 1230.73 543.314C1230.56 543.505 1230.47 543.764 1230.47 544.035C1230.46 544.189 1230.5 544.341 1230.56 544.476C1230.64 544.649 1230.75 544.796 1230.89 544.899C1231.04 545.002 1231.2 545.057 1231.37 545.057H1243.63C1243.81 545.058 1243.97 545.004 1244.12 544.901C1244.27 544.798 1244.38 544.651 1244.46 544.476C1244.51 544.339 1244.54 544.187 1244.54 544.035C1244.54 543.901 1244.52 543.768 1244.47 543.644C1244.43 543.52 1244.36 543.407 1244.28 543.312C1244.19 543.217 1244.09 543.142 1243.98 543.09C1243.87 543.039 1243.75 543.013 1243.63 543.013Z" fill="white" id="id_116"></path>
<path d="M1243.63 546.854H1231.37C1231.13 546.854 1230.9 546.962 1230.73 547.154C1230.56 547.346 1230.47 547.606 1230.47 547.877C1230.47 548.148 1230.56 548.408 1230.73 548.6C1230.9 548.791 1231.13 548.899 1231.37 548.899H1243.63C1243.88 548.899 1244.11 548.791 1244.28 548.6C1244.45 548.408 1244.54 548.148 1244.54 547.877C1244.54 547.606 1244.45 547.346 1244.28 547.154C1244.11 546.962 1243.88 546.854 1243.63 546.854Z" fill="white" id="id_117"></path>
<path d="M736.221 540.715C737.77 540.715 739.025 539.299 739.025 537.552C739.025 535.805 737.77 534.389 736.221 534.389C734.671 534.389 733.416 535.805 733.416 537.552C733.416 539.299 734.671 540.715 736.221 540.715Z" fill="white" id="id_118"></path>
<path d="M746.867 540.715C748.417 540.715 749.672 539.299 749.672 537.552C749.672 535.805 748.417 534.389 746.867 534.389C745.318 534.389 744.062 535.805 744.062 537.552C744.062 539.299 745.318 540.715 746.867 540.715Z" fill="white" id="id_119"></path>
<path d="M757.514 540.715C759.064 540.715 760.319 539.299 760.319 537.552C760.319 535.805 759.064 534.389 757.514 534.389C755.965 534.389 754.709 535.805 754.709 537.552C754.709 539.299 755.965 540.715 757.514 540.715Z" fill="white" id="id_120"></path>
<path d="M915.61 676.297C917.159 676.297 918.415 674.88 918.415 673.133C918.415 671.386 917.159 669.97 915.61 669.97C914.061 669.97 912.805 671.386 912.805 673.133C912.805 674.88 914.061 676.297 915.61 676.297Z" fill="white" id="id_121"></path>
<path d="M926.257 676.297C927.806 676.297 929.062 674.88 929.062 673.133C929.062 671.386 927.806 669.97 926.257 669.97C924.707 669.97 923.452 671.386 923.452 673.133C923.452 674.88 924.707 676.297 926.257 676.297Z" fill="white" id="id_122"></path>
<path d="M936.904 676.297C938.453 676.297 939.709 674.88 939.709 673.133C939.709 671.386 938.453 669.97 936.904 669.97C935.354 669.97 934.099 671.386 934.099 673.133C934.099 674.88 935.354 676.297 936.904 676.297Z" fill="white" id="id_123"></path>
<g clip-path="url(#clip1_16_35)">
<rect width="1369" height="746" transform="translate(65 377)" fill="#E4E4E4" id="id_124"></rect>
<path d="M1253.38 1118.11C1253.51 1117.72 1266.2 1078.52 1243.75 1043.54L1241.45 1045.01C1263.19 1078.87 1250.93 1116.87 1250.8 1117.25L1253.38 1118.11Z" fill="#E4E4E4" id="id_125"></path>
<path d="M1227.69 1048.57C1228.18 1050.86 1229.11 1053.04 1230.43 1054.97C1231.76 1056.9 1233.45 1058.55 1235.41 1059.83C1237.38 1061.11 1239.57 1061.99 1241.88 1062.42C1244.18 1062.85 1246.55 1062.82 1248.84 1062.34C1251.14 1061.86 1253.31 1060.93 1255.25 1059.6C1257.18 1058.28 1258.84 1056.59 1260.12 1054.63C1261.4 1052.67 1262.28 1050.47 1262.71 1048.17C1263.14 1045.87 1263.11 1043.51 1262.63 1041.21C1260.59 1031.58 1243.35 1007.6 1233.7 1009.63C1224.05 1011.67 1225.66 1038.94 1227.69 1048.57Z" fill="#E4E4E4" id="id_126"></path>
<path d="M1230.95 1093.63C1239.56 1102.92 1254.96 1102.67 1254.96 1102.67C1254.96 1102.67 1256.4 1087.36 1247.79 1078.06C1239.18 1068.77 1223.78 1069.03 1223.78 1069.03C1223.78 1069.03 1222.33 1084.34 1230.95 1093.63Z" fill="#E4E4E4" id="id_127"></path>
<path d="M1361.45 1120.83C1361.75 1119.9 1391.69 1027.4 1338.71 944.857L1333.3 948.319C1384.59 1028.22 1355.65 1117.9 1355.35 1118.8L1361.45 1120.83Z" fill="#E4E4E4" id="id_128"></path>
<path d="M1308.5 1063.07C1328.82 1085 1365.17 1084.4 1365.17 1084.4C1365.17 1084.4 1368.57 1048.25 1348.25 1026.33C1327.94 1004.4 1291.58 1004.99 1291.58 1004.99C1291.58 1004.99 1288.18 1041.14 1308.5 1063.07Z" fill="#E4E4E4" id="id_129"></path>
<path d="M854.759 1113.86L834.892 1105.51L821.264 1006.05H639.779L625.008 1105.1L607.234 1113.98C606.384 1114.4 605.702 1115.1 605.299 1115.96C604.896 1116.82 604.795 1117.79 605.014 1118.72C605.232 1119.64 605.757 1120.46 606.502 1121.05C607.248 1121.64 608.171 1121.96 609.122 1121.96H853.121C854.096 1121.96 855.04 1121.63 855.794 1121.01C856.548 1120.39 857.066 1119.54 857.259 1118.58C857.451 1117.63 857.308 1116.64 856.852 1115.78C856.396 1114.92 855.657 1114.24 854.759 1113.86V1113.86Z" fill="#E6E6E6" id="id_130"></path>
<path d="M1177.27 1019.29H285.767C281.089 1019.28 276.607 1017.41 273.303 1014.11C269.999 1010.8 268.144 1006.32 268.144 1001.65V876.104H1194.89V1001.65C1194.89 1006.32 1193.04 1010.8 1189.73 1014.11C1186.43 1017.41 1181.95 1019.28 1177.27 1019.29V1019.29Z" fill="#CCCCCC" id="id_131"></path>
<path d="M1195.82 935.438H267.33V398.263C267.337 392.625 269.582 387.221 273.574 383.235C277.565 379.248 282.977 377.006 288.622 377H1174.53C1180.18 377.006 1185.59 379.248 1189.58 383.235C1193.57 387.221 1195.82 392.625 1195.82 398.263V935.438Z" fill="#3F3D56" id="id_132"></path>
<path d="M1206.61 455.284H375.285C370.86 455.29 366.618 457.01 363.491 460.066C360.363 463.123 358.606 467.267 358.604 471.589V916.742C358.606 921.063 360.363 925.207 363.491 928.264C366.618 931.321 370.86 933.041 375.285 933.047H1206.61C1211.04 933.039 1215.28 931.318 1218.41 928.262C1221.53 925.205 1223.29 921.063 1223.3 916.742V471.589C1223.29 467.268 1221.53 463.125 1218.41 460.069C1215.28 457.012 1211.04 455.292 1206.61 455.284Z" fill="white" id="id_133"></path>
<path d="M467.707 415.987V896.453H322.782C318.431 896.447 314.259 894.718 311.183 891.643C308.108 888.569 306.379 884.402 306.377 880.056V432.384C306.379 428.038 308.108 423.871 311.183 420.797C314.259 417.722 318.431 415.993 322.782 415.987H467.707Z" fill="#F0F0F0" id="id_134"></path>
<path d="M348.147 658.703C346.515 658.332 344.822 658.323 343.187 658.676C341.552 659.029 340.014 659.736 338.682 660.747C337.35 661.758 336.256 663.048 335.477 664.527C334.698 666.006 334.254 667.637 334.175 669.306L295.166 680.791L311.314 694.405L345.882 681.412C348.699 681.359 351.398 680.276 353.468 678.368C355.538 676.461 356.836 673.861 357.115 671.062C357.394 668.262 356.635 665.458 354.982 663.18C353.329 660.902 350.897 659.309 348.147 658.703H348.147Z" fill="#FFB6B6" id="id_135"></path>
<path d="M190.531 745.138C186.674 745.133 182.945 743.76 180.007 741.265C177.07 738.769 175.116 735.313 174.493 731.512C173.871 727.711 174.62 723.813 176.608 720.513C178.595 717.213 181.692 714.725 185.346 713.492L264.396 686.844L326.058 664.411L333.625 690.862L279.19 726.683L193.933 744.78C192.814 745.018 191.674 745.138 190.531 745.138V745.138Z" fill="#7a26c1" id="id_136"></path>
<path d="M239.999 1109.54H251.098L256.379 1066.78H239.997L239.999 1109.54Z" fill="#FFB6B6" id="id_137"></path>
<path d="M237.167 1105.92L259.025 1105.92H259.026C262.721 1105.92 266.264 1107.38 268.876 1109.99C271.488 1112.6 272.956 1116.14 272.956 1119.83V1120.28L237.168 1120.28L237.167 1105.92Z" fill="#2F2E41" id="id_138"></path>
<path d="M154.899 1109.54H165.998L171.279 1066.78H154.898L154.899 1109.54Z" fill="#FFB6B6" id="id_139"></path>
<path d="M152.068 1105.92L173.926 1105.92H173.927C177.621 1105.92 181.164 1107.38 183.776 1109.99C186.388 1112.6 187.856 1116.14 187.856 1119.83V1120.28L152.069 1120.28L152.068 1105.92Z" fill="#2F2E41" id="id_140"></path>
<path d="M154.789 853.096C149.71 864.912 148.598 878.053 151.621 890.552L148.452 1102.63H172.828L186.475 985.998L209.108 909.15L233.552 968.82V1093.18L257.09 1091.78L269.764 959.779L255.279 865.754L154.789 853.096Z" fill="#2F2E41" id="id_141"></path>
<path d="M243.963 688.099L223.141 681.771L217.709 670.921H190.963L184.212 682.675C184.212 682.675 157.053 692.62 156.147 740.537C155.242 788.454 151.621 865.302 151.621 865.302L258.712 880.548L243.963 688.099Z" fill="#7a26c1" id="id_142"></path>
<path d="M274.708 871.967C275.41 870.451 275.771 868.799 275.765 867.128C275.759 865.458 275.386 863.808 274.673 862.297C273.96 860.786 272.924 859.449 271.637 858.381C270.35 857.312 268.845 856.539 267.227 856.115L264.088 815.622L247.396 828.566L252.935 865.034C252.402 867.796 252.902 870.658 254.34 873.077C255.778 875.496 258.054 877.304 260.738 878.158C263.422 879.013 266.326 878.855 268.901 877.714C271.475 876.573 273.542 874.528 274.708 871.967H274.708Z" fill="#FFB6B6" id="id_143"></path>
<path d="M246.227 851.097L222.459 790.476V703.431C222.459 699.285 224.046 695.296 226.896 692.28C229.745 689.264 233.641 687.451 237.785 687.21C241.93 686.969 246.01 688.32 249.19 690.986C252.37 693.651 254.409 697.43 254.89 701.548L264.556 784.307L273.708 849.204L246.227 851.097Z" fill="#7a26c1" id="id_144"></path>
<path d="M209.466 656.848C224.228 656.848 236.194 644.897 236.194 630.156C236.194 615.414 224.228 603.464 209.466 603.464C194.705 603.464 182.738 615.414 182.738 630.156C182.738 644.897 194.705 656.848 209.466 656.848Z" fill="#FFB9B9" id="id_145"></path>
<path d="M211.216 622.042C209.966 623.645 208.252 625.093 207.976 627.106C207.772 628.598 208.425 630.072 208.487 631.577C208.492 633.095 207.917 634.558 206.879 635.668C205.842 636.778 204.419 637.451 202.902 637.55C201.845 636.222 200.318 635.35 198.636 635.113C197.799 635.019 196.954 635.195 196.224 635.616C195.495 636.037 194.92 636.68 194.584 637.451C193.79 639.691 195.627 641.965 195.923 644.322C195.962 646.066 195.68 647.801 195.09 649.443C194.412 652.147 194.231 655.008 193.043 657.53C191.855 660.053 189.213 662.222 186.478 661.665C184.178 661.196 182.622 658.972 181.979 656.717C181.336 654.463 181.365 652.073 180.899 649.776C179.387 642.31 172.953 636.78 170.428 629.592C167.193 620.383 171.079 609.85 177.777 602.742C180.484 599.628 184.019 597.343 187.972 596.15C192.145 595.089 196.558 595.852 200.84 595.398C205.42 594.913 209.725 593.054 214.176 591.873C218.627 590.692 223.599 590.247 227.645 592.444C230.466 593.977 232.51 596.62 235.139 598.463C238.153 600.56 241.808 601.536 245.468 601.223L241.097 603.131C242.77 604.665 244.79 605.77 246.985 606.352C245.199 607.766 242.989 608.54 240.71 608.551C241.186 609.407 241.831 610.156 242.608 610.752C243.385 611.348 244.275 611.779 245.225 612.018C241.906 613.574 238.383 615.168 234.734 614.817C232.946 614.645 231.238 614.011 229.472 613.684C225.708 612.988 221.843 613.71 218.084 614.43C216.109 614.808 213.687 615.171 212.69 617.067C211.86 618.645 212.495 620.404 211.216 622.042Z" fill="#2F2E41" id="id_146"></path>
<path d="M387.042 698.802C410.592 698.802 429.682 679.737 429.682 656.22C429.682 632.702 410.592 613.637 387.042 613.637C363.493 613.637 344.402 632.702 344.402 656.22C344.402 679.737 363.493 698.802 387.042 698.802Z" fill="#7a26c1" id="id_147"></path>
<path d="M412.625 656.22H389.601V633.226H384.483V656.22H361.458V661.33H384.483V684.324H389.601V661.33H412.625V656.22Z" fill="white" id="id_148"></path>
<path d="M750.146 472.183C748.831 472.184 747.57 472.706 746.64 473.635C745.71 474.563 745.187 475.822 745.186 477.136V560.068C745.187 561.381 745.71 562.64 746.64 563.569C747.57 564.498 748.831 565.02 750.146 565.021H1084.92C1086.24 565.02 1087.5 564.498 1088.43 563.569C1089.36 562.64 1089.88 561.381 1089.88 560.068V477.136C1089.88 475.822 1089.36 474.563 1088.43 473.635C1087.5 472.706 1086.24 472.184 1084.92 472.183H750.146Z" fill="white" id="id_149"></path>
<path d="M750.146 472.183C748.831 472.184 747.57 472.706 746.64 473.635C745.71 474.563 745.187 475.822 745.186 477.136V560.068C745.187 561.381 745.71 562.64 746.64 563.569C747.57 564.498 748.831 565.02 750.146 565.021H1084.92C1086.24 565.02 1087.5 564.498 1088.43 563.569C1089.36 562.64 1089.88 561.381 1089.88 560.068V477.136C1089.88 475.822 1089.36 474.563 1088.43 473.635C1087.5 472.706 1086.24 472.184 1084.92 472.183H750.146Z" fill="#E6E6E6" id="id_150"></path>
<path d="M750.766 559.449H1084.3V477.755H750.766V559.449Z" fill="white" id="id_151"></path>
<path d="M788.688 501.267C787.537 501.267 786.433 501.723 785.619 502.536C784.805 503.349 784.348 504.451 784.348 505.6C784.348 506.75 784.805 507.852 785.619 508.665C786.433 509.478 787.537 509.934 788.688 509.934H1046.37C1046.94 509.935 1047.5 509.823 1048.03 509.605C1048.56 509.388 1049.04 509.069 1049.44 508.666C1049.84 508.264 1050.16 507.786 1050.38 507.261C1050.6 506.735 1050.71 506.171 1050.71 505.602C1050.71 505.033 1050.6 504.47 1050.38 503.944C1050.16 503.418 1049.84 502.94 1049.44 502.537C1049.04 502.135 1048.56 501.815 1048.03 501.597C1047.51 501.379 1046.94 501.267 1046.37 501.267H788.688Z" fill="#E4E4E4" id="id_152"></path>
<path d="M788.687 527.27C787.538 527.272 786.436 527.73 785.624 528.542C784.812 529.355 784.355 530.456 784.355 531.604C784.355 532.752 784.812 533.853 785.624 534.666C786.436 535.478 787.538 535.936 788.687 535.938H1046.37C1047.52 535.94 1048.63 535.486 1049.44 534.675C1050.26 533.864 1050.72 532.763 1050.72 531.614C1050.72 530.464 1050.27 529.361 1049.46 528.546C1048.64 527.732 1047.54 527.273 1046.39 527.27H788.687V527.27Z" fill="#E4E4E4" id="id_153"></path>
<path d="M517.342 612.9C516.027 612.902 514.766 613.424 513.836 614.353C512.906 615.281 512.383 616.54 512.382 617.853V700.786C512.383 702.099 512.906 703.358 513.836 704.287C514.766 705.215 516.027 705.738 517.342 705.739H852.12C853.435 705.738 854.696 705.215 855.625 704.287C856.555 703.358 857.078 702.099 857.08 700.786V617.853C857.078 616.54 856.555 615.281 855.625 614.353C854.696 613.424 853.435 612.902 852.12 612.9H517.342Z" fill="white" id="id_154"></path>
<path d="M517.342 612.9C516.027 612.902 514.766 613.424 513.836 614.353C512.906 615.281 512.383 616.54 512.382 617.853V700.786C512.383 702.099 512.906 703.358 513.836 704.287C514.766 705.215 516.027 705.738 517.342 705.739H852.12C853.435 705.738 854.696 705.215 855.625 704.287C856.555 703.358 857.078 702.099 857.08 700.786V617.853C857.078 616.54 856.555 615.281 855.625 614.353C854.696 613.424 853.435 612.902 852.12 612.9H517.342Z" fill="#E6E6E6" id="id_155"></path>
<path d="M517.961 700.167H851.5V618.473H517.961V700.167Z" fill="white" id="id_156"></path>
<path d="M555.884 641.984C554.733 641.984 553.629 642.441 552.815 643.254C552.001 644.066 551.544 645.169 551.544 646.318C551.544 647.468 552.001 648.57 552.815 649.383C553.629 650.196 554.733 650.652 555.884 650.652H813.566C814.136 650.652 814.7 650.541 815.227 650.323C815.754 650.105 816.232 649.786 816.635 649.384C817.038 648.982 817.358 648.504 817.577 647.978C817.795 647.453 817.907 646.889 817.908 646.32C817.908 645.751 817.796 645.187 817.578 644.661C817.36 644.136 817.041 643.658 816.638 643.255C816.235 642.852 815.757 642.533 815.23 642.315C814.704 642.097 814.14 641.985 813.57 641.984H555.884Z" fill="#E4E4E4" id="id_157"></path>
<path d="M555.884 667.987C554.734 667.989 553.632 668.447 552.82 669.259C552.008 670.072 551.552 671.173 551.552 672.321C551.552 673.469 552.008 674.57 552.82 675.383C553.632 676.195 554.734 676.653 555.884 676.655H813.566C814.717 676.658 815.822 676.203 816.638 675.392C817.453 674.582 817.913 673.48 817.916 672.331C817.918 671.181 817.463 670.078 816.651 669.263C815.839 668.449 814.737 667.99 813.586 667.987H555.884V667.987Z" fill="#E4E4E4" id="id_158"></path>
<path d="M925.411 835.483C926.902 835.319 928.339 834.83 929.621 834.051C930.902 833.273 931.997 832.223 932.828 830.976C933.66 829.73 934.207 828.316 934.432 826.835C934.657 825.354 934.554 823.842 934.131 822.405L963.8 801.241L946.119 794.441L920.655 815.582C918.285 816.452 916.317 818.161 915.124 820.383C913.931 822.606 913.595 825.189 914.182 827.642C914.768 830.095 916.235 832.248 918.305 833.693C920.375 835.138 922.903 835.775 925.411 835.483V835.483Z" fill="#FFB7B7" id="id_159"></path>
<path d="M941.883 821.544L932.041 804.756L932.25 804.518L971.962 759.368L1002.8 706.856L1029.57 710.264L1029.97 718.347L1029.89 718.467L987.347 782.327L987.301 782.365L941.883 821.544Z" fill="#3F3D56" id="id_160"></path>
<path d="M1073.09 1105.62L1057.95 1105.62L1050.75 1047.3L1073.09 1047.3L1073.09 1105.62Z" fill="#FFB7B7" id="id_161"></path>
<path d="M1076.95 1120.28L1028.13 1120.28V1119.66C1028.13 1114.63 1030.13 1109.8 1033.7 1106.24C1037.26 1102.68 1042.09 1100.69 1047.13 1100.69H1047.13L1076.95 1100.69L1076.95 1120.28Z" fill="#2F2E41" id="id_162"></path>
<path d="M942.777 1105.13L928.049 1101.62L934.606 1043.22L956.342 1048.4L942.777 1105.13Z" fill="#FFB7B7" id="id_163"></path>
<path d="M943.125 1120.28L895.637 1108.96L895.78 1108.36C896.951 1103.46 900.021 1099.23 904.315 1096.6C908.608 1093.96 913.775 1093.14 918.677 1094.31L918.678 1094.31L947.682 1101.22L943.125 1120.28Z" fill="#2F2E41" id="id_164"></path>
<path d="M1001.62 680.191V654.738C1001.62 645.692 1005.22 637.017 1011.63 630.621C1018.03 624.224 1026.72 620.631 1035.78 620.631C1044.84 620.631 1053.52 624.224 1059.93 630.621C1066.33 637.017 1069.93 645.692 1069.93 654.738V680.191C1069.93 681.406 1069.45 682.57 1068.59 683.429C1067.73 684.288 1066.56 684.771 1065.34 684.773H1006.21C1005 684.771 1003.83 684.288 1002.97 683.429C1002.11 682.57 1001.63 681.406 1001.62 680.191V680.191Z" fill="#2F2E41" id="id_165"></path>
<path d="M1027.35 684.385C1041.18 684.385 1052.39 673.19 1052.39 659.379C1052.39 645.569 1041.18 634.373 1027.35 634.373C1013.52 634.373 1002.31 645.569 1002.31 659.379C1002.31 673.19 1013.52 684.385 1027.35 684.385Z" fill="#FFB7B7" id="id_166"></path>
<path d="M993.544 656.774C993.553 649.621 996.402 642.763 1001.47 637.705C1006.53 632.647 1013.4 629.802 1020.56 629.794H1025.66C1032.82 629.802 1039.69 632.647 1044.75 637.705C1049.82 642.763 1052.67 649.621 1052.68 656.774V657.283H1041.9L1038.23 647.009L1037.49 657.283H1031.93L1030.07 652.099L1029.7 657.283H993.544V656.774Z" fill="#2F2E41" id="id_167"></path>
<path d="M1041.95 791.36L978.199 788.936L974.635 747.282C971.886 739.658 971.842 733.112 974.503 727.826C976.792 723.485 980.637 720.166 985.269 718.533L999.22 701.707C1001.02 699.543 1003.27 697.806 1005.82 696.619C1008.37 695.432 1011.15 694.826 1013.96 694.844L1050.21 695.091C1051.08 694.566 1056.38 691.877 1066.83 696.401C1078.17 701.309 1075.54 718.355 1075.51 718.526L1075.48 718.686L1075.36 718.792L1051.25 739.068L1041.95 791.36Z" fill="#3F3D56" id="id_168"></path>
<path d="M978.707 784.461L948.55 839.369L925.686 1089.18L951.519 1097.06L997.245 901.641L1050.31 1091.51L1081.28 1092.28L1060.2 873.174L1041.77 788.341L978.707 784.461Z" fill="#2F2E41" id="id_169"></path>
<path d="M783.528 743.76C782.277 743.356 780.916 743.465 779.745 744.062C778.574 744.659 777.688 745.696 777.281 746.944L751.673 825.835C751.268 827.085 751.377 828.443 751.975 829.613C752.572 830.783 753.61 831.668 754.861 832.075L1073.32 935.171C1074.58 935.574 1075.94 935.466 1077.11 934.869C1078.28 934.271 1079.17 933.235 1079.57 931.986L1105.18 853.095C1105.58 851.846 1105.48 850.487 1104.88 849.317C1104.28 848.148 1103.24 847.263 1101.99 846.856L783.528 743.76Z" fill="white" id="id_170"></path>
<path d="M783.528 743.76C782.277 743.356 780.916 743.465 779.745 744.062C778.574 744.659 777.688 745.696 777.281 746.944L751.673 825.835C751.268 827.085 751.377 828.443 751.975 829.613C752.572 830.783 753.61 831.668 754.861 832.075L1073.32 935.171C1074.58 935.574 1075.94 935.466 1077.11 934.869C1078.28 934.271 1079.17 933.235 1079.57 931.986L1105.18 853.095C1105.58 851.846 1105.48 850.487 1104.88 849.317C1104.28 848.148 1103.24 847.263 1101.99 846.856L783.528 743.76Z" fill="#E6E6E6" id="id_171"></path>
<path d="M757.171 826.964L1074.45 929.679L1099.68 851.966L782.397 749.251L757.171 826.964Z" fill="white" id="id_172"></path>
<path d="M811.211 783.295C810.116 782.942 808.926 783.037 807.901 783.559C806.876 784.082 806.101 784.989 805.747 786.082C805.392 787.175 805.486 788.364 806.009 789.388C806.532 790.412 807.44 791.186 808.535 791.541L1053.66 870.895C1054.2 871.071 1054.77 871.139 1055.34 871.095C1055.91 871.051 1056.46 870.895 1056.97 870.637C1057.48 870.378 1057.93 870.022 1058.3 869.589C1058.67 869.156 1058.96 868.654 1059.13 868.113C1059.31 867.571 1059.38 867 1059.33 866.432C1059.28 865.864 1059.13 865.311 1058.87 864.804C1058.61 864.296 1058.25 863.845 1057.82 863.476C1057.38 863.106 1056.88 862.826 1056.34 862.651L1056.34 862.65L811.211 783.295Z" fill="#7a26c1" id="id_173"></path>
<path d="M803.182 808.032C802.088 807.68 800.898 807.776 799.875 808.299C798.852 808.822 798.078 809.729 797.724 810.821C797.369 811.913 797.463 813.1 797.985 814.123C798.506 815.146 799.413 815.921 800.505 816.277L1045.63 895.631C1046.72 895.988 1047.92 895.896 1048.94 895.376C1049.97 894.856 1050.75 893.95 1051.1 892.857C1051.46 891.765 1051.37 890.575 1050.85 889.55C1050.33 888.525 1049.42 887.749 1048.32 887.392L1048.31 887.386L803.182 808.032Z" fill="#7a26c1" id="id_174"></path>
<path d="M1059.28 873.353C1060.39 872.352 1061.28 871.119 1061.86 869.741C1062.45 868.363 1062.73 866.873 1062.68 865.376C1062.63 863.879 1062.25 862.411 1061.57 861.076C1060.89 859.742 1059.92 858.572 1058.74 857.651L1070.51 823.189L1052.17 827.947L1043.8 859.943C1042.38 862.029 1041.78 864.563 1042.11 867.063C1042.43 869.564 1043.67 871.858 1045.58 873.511C1047.48 875.164 1049.93 876.061 1052.46 876.032C1054.98 876.003 1057.41 875.049 1059.28 873.353V873.353Z" fill="#FFB7B7" id="id_175"></path>
<path d="M1064.54 852.441L1046.74 844.52L1052.72 784.405L1047.16 723.787L1070.91 710.982L1075.95 717.322L1075.95 717.466L1078.62 794.119L1078.6 794.177L1064.54 852.441Z" fill="#3F3D56" id="id_176"></path>
<path d="M1431.92 1123H501.457C500.987 1123.01 500.526 1122.86 500.147 1122.59C499.768 1122.31 499.492 1121.91 499.362 1121.46C499.281 1121.15 499.271 1120.83 499.334 1120.52C499.397 1120.21 499.531 1119.91 499.725 1119.66C499.919 1119.41 500.169 1119.2 500.455 1119.06C500.74 1118.92 501.054 1118.85 501.373 1118.85H1431.75C1432.25 1118.83 1432.74 1118.98 1433.14 1119.28C1433.53 1119.57 1433.82 1119.99 1433.95 1120.47C1434.02 1120.78 1434.02 1121.09 1433.95 1121.39C1433.88 1121.7 1433.74 1121.98 1433.54 1122.22C1433.35 1122.47 1433.1 1122.66 1432.82 1122.8C1432.54 1122.93 1432.23 1123 1431.92 1123Z" fill="#CCCCCC" id="id_177"></path>
<path d="M378.178 1123H67.1622C66.6916 1123.01 66.2309 1122.86 65.8519 1122.59C65.4729 1122.31 65.1969 1121.91 65.0668 1121.46C64.9856 1121.15 64.9762 1120.83 65.0392 1120.52C65.1022 1120.21 65.236 1119.91 65.4302 1119.66C65.6245 1119.41 65.8741 1119.2 66.1597 1119.06C66.4454 1118.92 66.7595 1118.85 67.078 1118.85H378.007C378.504 1118.83 378.992 1118.98 379.391 1119.28C379.791 1119.57 380.078 1119.99 380.208 1120.47C380.275 1120.78 380.273 1121.09 380.203 1121.39C380.132 1121.7 379.994 1121.98 379.799 1122.22C379.605 1122.47 379.358 1122.66 379.077 1122.8C378.796 1122.93 378.489 1123 378.178 1123V1123Z" fill="#CCCCCC" id="id_178"></path>
<path d="M715.105 445.828C715.107 443.531 714.496 441.275 713.334 439.293C712.173 437.31 710.503 435.672 708.497 434.549C706.491 433.425 704.222 432.855 701.922 432.899C699.623 432.942 697.377 433.597 695.415 434.796C693.453 435.995 691.847 437.694 690.761 439.719C689.676 441.744 689.15 444.022 689.239 446.317C689.328 448.612 690.028 450.843 691.266 452.778C692.505 454.713 694.238 456.284 696.286 457.328V477.545H708.048V457.328C710.171 456.247 711.954 454.601 713.2 452.572C714.445 450.542 715.104 448.208 715.105 445.828V445.828Z" fill="white" id="id_179"></path>
<path d="M165.063 1056.35L214.915 1045.63C221.126 1027.49 220.712 1008.61 213.708 990.608C193.683 1020.79 134.923 1028.19 101.445 1052.28C91.0886 1059.85 83.3778 1068.9 78.8841 1078.76C74.3904 1088.62 73.229 1099.04 75.4859 1109.25L65 1133.36C89.4967 1131.94 113.248 1126.94 134.618 1118.7C155.987 1110.46 174.467 1099.18 188.784 1085.63C196.704 1077.98 203.171 1069.68 208.032 1060.93C186.771 1059.49 165.063 1056.35 165.063 1056.35Z" fill="#7a26c1" id="id_180"></path>
<ellipse cx="227" cy="629.5" rx="2" ry="3.5" fill="#2F2E41" id="id_181"></ellipse>
<circle cx="1014" cy="666" r="3" fill="#2F2E41" id="id_182"></circle>
<circle cx="1038" cy="666" r="3" fill="#2F2E41" id="id_183"></circle>
</g>
</g>
<defs>
<clipPath id="clip0_16_35">
<rect width="1500" height="1500" fill="white" id="id_184"></rect>
</clipPath>
<clipPath id="clip1_16_35">
<rect width="1369" height="746" fill="white" transform="translate(65 377)" id="id_185"></rect>
</clipPath>
</defs>
</svg>