<svg version="1.1" id="Layer_1" xmlns="http://www.w3.org/2000/svg" xmlns:xlink="http://www.w3.org/1999/xlink" x="0px" y="0px" viewBox="0 0 64 64" enable-background="new 0 0 64 64" xml:space="preserve">
<path d="M56,7H3C2.4,7,2,7.4,2,8v23v30c0,0.6,0.4,1,1,1h30c0.4,0,0.8-0.2,0.9-0.6c0.2-0.4,0.1-0.8-0.2-1.1L24.4,51H55v5
	c0,0.6,0.4,1,1,1c3.3,0,6-2.7,6-6V13C62,9.7,59.3,7,56,7z M4,60V33.4L30.6,60H4z M17,13h2.7l3.5,2H17V13z M11,23v-2h12.2l-3.5,2H11z
	 M15,19h-4v-6h4V19z M11,25h4v16.6l-4-4V25z M57,54.9V50V18.9c1.1-0.2,2.2-0.7,3-1.5V51C60,52.9,58.7,54.4,57,54.9z M56,17
	c-0.6,0-1,0.4-1,1v31H22.4L17,43.6V25h3c0.2,0,0.3,0,0.5-0.1l7-4c0.4-0.2,0.6-0.7,0.5-1.1c-0.1-0.4-0.5-0.7-1-0.7H17v-2h10
	c0.5,0,0.9-0.3,1-0.7c0.1-0.4-0.1-0.9-0.5-1.1l-7-4C20.3,11,20.2,11,20,11h-4h-6c-0.6,0-1,0.4-1,1v3H7v2h2v3v4v2H8v-1H6v4h2v-1h1
	v7.6l-5-5V9h52c2.2,0,4,1.8,4,4S58.2,17,56,17z" id="id_101" style="fill: rgb(122, 38, 193);"></path>
<path d="M7,58h16c0.4,0,0.8-0.2,0.9-0.6c0.2-0.4,0.1-0.8-0.2-1.1l-16-16C7.4,40,7,39.9,6.6,40.1C6.2,40.2,6,40.6,6,41v16
	C6,57.6,6.4,58,7,58z M8,51h1v5H8V51z M11,46.4l4,4V56h-4V46.4z M17,56v-3.6l3.6,3.6H17z M9,44.4V49H8v-5.6L9,44.4z" id="id_102" style="fill: rgb(122, 38, 193);"></path>
<path d="M48.8,10.4c-0.4-0.5-1.2-0.5-1.6,0l-3,4C44.1,14.6,44,14.8,44,15v29c0,2.2,1.8,4,4,4s4-1.8,4-4V15c0-0.2-0.1-0.4-0.2-0.6
	L48.8,10.4z M48,12.7l1.7,2.3h-3.5L48,12.7z M47,17v23h-1V17H47z M49,17h1v23h-1V17z M48,46c-1.1,0-2-0.9-2-2v-2h4v2
	C50,45.1,49.1,46,48,46z" id="id_103" style="fill: rgb(122, 38, 193);"></path>
<path d="M41,10h-6c-0.6,0-1,0.4-1,1v36c0,0.6,0.4,1,1,1h6c0.6,0,1-0.4,1-1V11C42,10.4,41.6,10,41,10z M40,46h-4v-2h2v-2h-2v-2h2v-2
	h-2v-2h2v-2h-2v-2h2v-2h-2v-2h2v-2h-2v-2h2v-2h-2v-2h2v-2h-2v-2h2v-2h-2v-2h4V46z" id="id_104" style="fill: rgb(122, 38, 193);"></path>
</svg>